%TF.GenerationSoftware,KiCad,Pcbnew,(5.1.6)-1*%
%TF.CreationDate,2020-05-23T23:32:43+08:00*%
%TF.ProjectId,ePap,65506170-2e6b-4696-9361-645f70636258,rev?*%
%TF.SameCoordinates,Original*%
%TF.FileFunction,Soldermask,Top*%
%TF.FilePolarity,Negative*%
%FSLAX46Y46*%
G04 Gerber Fmt 4.6, Leading zero omitted, Abs format (unit mm)*
G04 Created by KiCad (PCBNEW (5.1.6)-1) date 2020-05-23 23:32:43*
%MOMM*%
%LPD*%
G01*
G04 APERTURE LIST*
%ADD10R,1.800000X1.800000*%
%ADD11O,1.800000X1.800000*%
%ADD12R,1.450000X1.450000*%
%ADD13O,1.450000X1.450000*%
%ADD14R,1.200000X0.400000*%
%ADD15R,3.200000X2.400000*%
%ADD16C,1.100000*%
%ADD17C,2.600000*%
G04 APERTURE END LIST*
D10*
%TO.C,J4*%
X136398000Y-106426000D03*
D11*
X136398000Y-103886000D03*
X136398000Y-101346000D03*
X136398000Y-98806000D03*
X136398000Y-96266000D03*
X136398000Y-93726000D03*
X136398000Y-91186000D03*
X136398000Y-88646000D03*
%TD*%
%TO.C,C1*%
G36*
G01*
X124619000Y-107450500D02*
X124619000Y-106925500D01*
G75*
G02*
X124881500Y-106663000I262500J0D01*
G01*
X125506500Y-106663000D01*
G75*
G02*
X125769000Y-106925500I0J-262500D01*
G01*
X125769000Y-107450500D01*
G75*
G02*
X125506500Y-107713000I-262500J0D01*
G01*
X124881500Y-107713000D01*
G75*
G02*
X124619000Y-107450500I0J262500D01*
G01*
G37*
G36*
G01*
X122869000Y-107450500D02*
X122869000Y-106925500D01*
G75*
G02*
X123131500Y-106663000I262500J0D01*
G01*
X123756500Y-106663000D01*
G75*
G02*
X124019000Y-106925500I0J-262500D01*
G01*
X124019000Y-107450500D01*
G75*
G02*
X123756500Y-107713000I-262500J0D01*
G01*
X123131500Y-107713000D01*
G75*
G02*
X122869000Y-107450500I0J262500D01*
G01*
G37*
%TD*%
%TO.C,C2*%
G36*
G01*
X124619000Y-99322500D02*
X124619000Y-98797500D01*
G75*
G02*
X124881500Y-98535000I262500J0D01*
G01*
X125506500Y-98535000D01*
G75*
G02*
X125769000Y-98797500I0J-262500D01*
G01*
X125769000Y-99322500D01*
G75*
G02*
X125506500Y-99585000I-262500J0D01*
G01*
X124881500Y-99585000D01*
G75*
G02*
X124619000Y-99322500I0J262500D01*
G01*
G37*
G36*
G01*
X122869000Y-99322500D02*
X122869000Y-98797500D01*
G75*
G02*
X123131500Y-98535000I262500J0D01*
G01*
X123756500Y-98535000D01*
G75*
G02*
X124019000Y-98797500I0J-262500D01*
G01*
X124019000Y-99322500D01*
G75*
G02*
X123756500Y-99585000I-262500J0D01*
G01*
X123131500Y-99585000D01*
G75*
G02*
X122869000Y-99322500I0J262500D01*
G01*
G37*
%TD*%
%TO.C,C3*%
G36*
G01*
X124619000Y-92210500D02*
X124619000Y-91685500D01*
G75*
G02*
X124881500Y-91423000I262500J0D01*
G01*
X125506500Y-91423000D01*
G75*
G02*
X125769000Y-91685500I0J-262500D01*
G01*
X125769000Y-92210500D01*
G75*
G02*
X125506500Y-92473000I-262500J0D01*
G01*
X124881500Y-92473000D01*
G75*
G02*
X124619000Y-92210500I0J262500D01*
G01*
G37*
G36*
G01*
X122869000Y-92210500D02*
X122869000Y-91685500D01*
G75*
G02*
X123131500Y-91423000I262500J0D01*
G01*
X123756500Y-91423000D01*
G75*
G02*
X124019000Y-91685500I0J-262500D01*
G01*
X124019000Y-92210500D01*
G75*
G02*
X123756500Y-92473000I-262500J0D01*
G01*
X123131500Y-92473000D01*
G75*
G02*
X122869000Y-92210500I0J262500D01*
G01*
G37*
%TD*%
%TO.C,C4*%
G36*
G01*
X110451000Y-105418500D02*
X110451000Y-104893500D01*
G75*
G02*
X110713500Y-104631000I262500J0D01*
G01*
X111338500Y-104631000D01*
G75*
G02*
X111601000Y-104893500I0J-262500D01*
G01*
X111601000Y-105418500D01*
G75*
G02*
X111338500Y-105681000I-262500J0D01*
G01*
X110713500Y-105681000D01*
G75*
G02*
X110451000Y-105418500I0J262500D01*
G01*
G37*
G36*
G01*
X112201000Y-105418500D02*
X112201000Y-104893500D01*
G75*
G02*
X112463500Y-104631000I262500J0D01*
G01*
X113088500Y-104631000D01*
G75*
G02*
X113351000Y-104893500I0J-262500D01*
G01*
X113351000Y-105418500D01*
G75*
G02*
X113088500Y-105681000I-262500J0D01*
G01*
X112463500Y-105681000D01*
G75*
G02*
X112201000Y-105418500I0J262500D01*
G01*
G37*
%TD*%
%TO.C,C5*%
G36*
G01*
X124619000Y-105418500D02*
X124619000Y-104893500D01*
G75*
G02*
X124881500Y-104631000I262500J0D01*
G01*
X125506500Y-104631000D01*
G75*
G02*
X125769000Y-104893500I0J-262500D01*
G01*
X125769000Y-105418500D01*
G75*
G02*
X125506500Y-105681000I-262500J0D01*
G01*
X124881500Y-105681000D01*
G75*
G02*
X124619000Y-105418500I0J262500D01*
G01*
G37*
G36*
G01*
X122869000Y-105418500D02*
X122869000Y-104893500D01*
G75*
G02*
X123131500Y-104631000I262500J0D01*
G01*
X123756500Y-104631000D01*
G75*
G02*
X124019000Y-104893500I0J-262500D01*
G01*
X124019000Y-105418500D01*
G75*
G02*
X123756500Y-105681000I-262500J0D01*
G01*
X123131500Y-105681000D01*
G75*
G02*
X122869000Y-105418500I0J262500D01*
G01*
G37*
%TD*%
%TO.C,C6*%
G36*
G01*
X122869000Y-94242500D02*
X122869000Y-93717500D01*
G75*
G02*
X123131500Y-93455000I262500J0D01*
G01*
X123756500Y-93455000D01*
G75*
G02*
X124019000Y-93717500I0J-262500D01*
G01*
X124019000Y-94242500D01*
G75*
G02*
X123756500Y-94505000I-262500J0D01*
G01*
X123131500Y-94505000D01*
G75*
G02*
X122869000Y-94242500I0J262500D01*
G01*
G37*
G36*
G01*
X124619000Y-94242500D02*
X124619000Y-93717500D01*
G75*
G02*
X124881500Y-93455000I262500J0D01*
G01*
X125506500Y-93455000D01*
G75*
G02*
X125769000Y-93717500I0J-262500D01*
G01*
X125769000Y-94242500D01*
G75*
G02*
X125506500Y-94505000I-262500J0D01*
G01*
X124881500Y-94505000D01*
G75*
G02*
X124619000Y-94242500I0J262500D01*
G01*
G37*
%TD*%
%TO.C,C7*%
G36*
G01*
X122869000Y-103386500D02*
X122869000Y-102861500D01*
G75*
G02*
X123131500Y-102599000I262500J0D01*
G01*
X123756500Y-102599000D01*
G75*
G02*
X124019000Y-102861500I0J-262500D01*
G01*
X124019000Y-103386500D01*
G75*
G02*
X123756500Y-103649000I-262500J0D01*
G01*
X123131500Y-103649000D01*
G75*
G02*
X122869000Y-103386500I0J262500D01*
G01*
G37*
G36*
G01*
X124619000Y-103386500D02*
X124619000Y-102861500D01*
G75*
G02*
X124881500Y-102599000I262500J0D01*
G01*
X125506500Y-102599000D01*
G75*
G02*
X125769000Y-102861500I0J-262500D01*
G01*
X125769000Y-103386500D01*
G75*
G02*
X125506500Y-103649000I-262500J0D01*
G01*
X124881500Y-103649000D01*
G75*
G02*
X124619000Y-103386500I0J262500D01*
G01*
G37*
%TD*%
%TO.C,C8*%
G36*
G01*
X122869000Y-101354500D02*
X122869000Y-100829500D01*
G75*
G02*
X123131500Y-100567000I262500J0D01*
G01*
X123756500Y-100567000D01*
G75*
G02*
X124019000Y-100829500I0J-262500D01*
G01*
X124019000Y-101354500D01*
G75*
G02*
X123756500Y-101617000I-262500J0D01*
G01*
X123131500Y-101617000D01*
G75*
G02*
X122869000Y-101354500I0J262500D01*
G01*
G37*
G36*
G01*
X124619000Y-101354500D02*
X124619000Y-100829500D01*
G75*
G02*
X124881500Y-100567000I262500J0D01*
G01*
X125506500Y-100567000D01*
G75*
G02*
X125769000Y-100829500I0J-262500D01*
G01*
X125769000Y-101354500D01*
G75*
G02*
X125506500Y-101617000I-262500J0D01*
G01*
X124881500Y-101617000D01*
G75*
G02*
X124619000Y-101354500I0J262500D01*
G01*
G37*
%TD*%
D12*
%TO.C,J2*%
X131254000Y-90424000D03*
D13*
X129254000Y-90424000D03*
X127254000Y-90424000D03*
%TD*%
D12*
%TO.C,J3*%
X128016000Y-104648000D03*
D13*
X130016000Y-104648000D03*
%TD*%
D14*
%TO.C,J5*%
X118698000Y-91786000D03*
X118698000Y-92286000D03*
X118698000Y-92786000D03*
X118698000Y-93286000D03*
X118698000Y-93786000D03*
X118698000Y-94286000D03*
X118698000Y-94786000D03*
X118698000Y-95286000D03*
X118698000Y-95786000D03*
X118698000Y-96286000D03*
X118698000Y-96786000D03*
X118698000Y-97286000D03*
X118698000Y-97786000D03*
X118698000Y-98286000D03*
X118698000Y-98786000D03*
X118698000Y-99286000D03*
X118698000Y-99786000D03*
X118698000Y-100286000D03*
X118698000Y-100786000D03*
X118698000Y-101286000D03*
X118698000Y-101786000D03*
X118698000Y-102286000D03*
X118698000Y-102786000D03*
X118698000Y-103286000D03*
D15*
X116998000Y-90116000D03*
X116998000Y-104956000D03*
%TD*%
%TO.C,J6*%
X102870000Y-107456000D03*
X102870000Y-87616000D03*
D14*
X104570000Y-105786000D03*
X104570000Y-105286000D03*
X104570000Y-104786000D03*
X104570000Y-104286000D03*
X104570000Y-103786000D03*
X104570000Y-103286000D03*
X104570000Y-102786000D03*
X104570000Y-102286000D03*
X104570000Y-101786000D03*
X104570000Y-101286000D03*
X104570000Y-100786000D03*
X104570000Y-100286000D03*
X104570000Y-99786000D03*
X104570000Y-99286000D03*
X104570000Y-98786000D03*
X104570000Y-98286000D03*
X104570000Y-97786000D03*
X104570000Y-97286000D03*
X104570000Y-96786000D03*
X104570000Y-96286000D03*
X104570000Y-95786000D03*
X104570000Y-95286000D03*
X104570000Y-94786000D03*
X104570000Y-94286000D03*
X104570000Y-93786000D03*
X104570000Y-93286000D03*
X104570000Y-92786000D03*
X104570000Y-92286000D03*
X104570000Y-91786000D03*
X104570000Y-91286000D03*
X104570000Y-90786000D03*
X104570000Y-90286000D03*
X104570000Y-89786000D03*
X104570000Y-89286000D03*
%TD*%
D16*
%TO.C,TP1*%
X101981000Y-92964000D03*
%TD*%
%TO.C,TP2*%
X101981000Y-96012000D03*
%TD*%
D17*
%TO.C,TP3*%
X122428000Y-88773000D03*
%TD*%
M02*
