%TF.GenerationSoftware,KiCad,Pcbnew,(5.1.6)-1*%
%TF.CreationDate,2020-05-23T23:32:43+08:00*%
%TF.ProjectId,ePap,65506170-2e6b-4696-9361-645f70636258,rev?*%
%TF.SameCoordinates,Original*%
%TF.FileFunction,Paste,Top*%
%TF.FilePolarity,Positive*%
%FSLAX46Y46*%
G04 Gerber Fmt 4.6, Leading zero omitted, Abs format (unit mm)*
G04 Created by KiCad (PCBNEW (5.1.6)-1) date 2020-05-23 23:32:43*
%MOMM*%
%LPD*%
G01*
G04 APERTURE LIST*
%ADD10R,1.100000X0.300000*%
%ADD11R,3.100000X2.300000*%
G04 APERTURE END LIST*
%TO.C,C1*%
G36*
G01*
X124669000Y-107425500D02*
X124669000Y-106950500D01*
G75*
G02*
X124906500Y-106713000I237500J0D01*
G01*
X125481500Y-106713000D01*
G75*
G02*
X125719000Y-106950500I0J-237500D01*
G01*
X125719000Y-107425500D01*
G75*
G02*
X125481500Y-107663000I-237500J0D01*
G01*
X124906500Y-107663000D01*
G75*
G02*
X124669000Y-107425500I0J237500D01*
G01*
G37*
G36*
G01*
X122919000Y-107425500D02*
X122919000Y-106950500D01*
G75*
G02*
X123156500Y-106713000I237500J0D01*
G01*
X123731500Y-106713000D01*
G75*
G02*
X123969000Y-106950500I0J-237500D01*
G01*
X123969000Y-107425500D01*
G75*
G02*
X123731500Y-107663000I-237500J0D01*
G01*
X123156500Y-107663000D01*
G75*
G02*
X122919000Y-107425500I0J237500D01*
G01*
G37*
%TD*%
%TO.C,C2*%
G36*
G01*
X124669000Y-99297500D02*
X124669000Y-98822500D01*
G75*
G02*
X124906500Y-98585000I237500J0D01*
G01*
X125481500Y-98585000D01*
G75*
G02*
X125719000Y-98822500I0J-237500D01*
G01*
X125719000Y-99297500D01*
G75*
G02*
X125481500Y-99535000I-237500J0D01*
G01*
X124906500Y-99535000D01*
G75*
G02*
X124669000Y-99297500I0J237500D01*
G01*
G37*
G36*
G01*
X122919000Y-99297500D02*
X122919000Y-98822500D01*
G75*
G02*
X123156500Y-98585000I237500J0D01*
G01*
X123731500Y-98585000D01*
G75*
G02*
X123969000Y-98822500I0J-237500D01*
G01*
X123969000Y-99297500D01*
G75*
G02*
X123731500Y-99535000I-237500J0D01*
G01*
X123156500Y-99535000D01*
G75*
G02*
X122919000Y-99297500I0J237500D01*
G01*
G37*
%TD*%
%TO.C,C3*%
G36*
G01*
X124669000Y-92185500D02*
X124669000Y-91710500D01*
G75*
G02*
X124906500Y-91473000I237500J0D01*
G01*
X125481500Y-91473000D01*
G75*
G02*
X125719000Y-91710500I0J-237500D01*
G01*
X125719000Y-92185500D01*
G75*
G02*
X125481500Y-92423000I-237500J0D01*
G01*
X124906500Y-92423000D01*
G75*
G02*
X124669000Y-92185500I0J237500D01*
G01*
G37*
G36*
G01*
X122919000Y-92185500D02*
X122919000Y-91710500D01*
G75*
G02*
X123156500Y-91473000I237500J0D01*
G01*
X123731500Y-91473000D01*
G75*
G02*
X123969000Y-91710500I0J-237500D01*
G01*
X123969000Y-92185500D01*
G75*
G02*
X123731500Y-92423000I-237500J0D01*
G01*
X123156500Y-92423000D01*
G75*
G02*
X122919000Y-92185500I0J237500D01*
G01*
G37*
%TD*%
%TO.C,C4*%
G36*
G01*
X110501000Y-105393500D02*
X110501000Y-104918500D01*
G75*
G02*
X110738500Y-104681000I237500J0D01*
G01*
X111313500Y-104681000D01*
G75*
G02*
X111551000Y-104918500I0J-237500D01*
G01*
X111551000Y-105393500D01*
G75*
G02*
X111313500Y-105631000I-237500J0D01*
G01*
X110738500Y-105631000D01*
G75*
G02*
X110501000Y-105393500I0J237500D01*
G01*
G37*
G36*
G01*
X112251000Y-105393500D02*
X112251000Y-104918500D01*
G75*
G02*
X112488500Y-104681000I237500J0D01*
G01*
X113063500Y-104681000D01*
G75*
G02*
X113301000Y-104918500I0J-237500D01*
G01*
X113301000Y-105393500D01*
G75*
G02*
X113063500Y-105631000I-237500J0D01*
G01*
X112488500Y-105631000D01*
G75*
G02*
X112251000Y-105393500I0J237500D01*
G01*
G37*
%TD*%
%TO.C,C5*%
G36*
G01*
X124669000Y-105393500D02*
X124669000Y-104918500D01*
G75*
G02*
X124906500Y-104681000I237500J0D01*
G01*
X125481500Y-104681000D01*
G75*
G02*
X125719000Y-104918500I0J-237500D01*
G01*
X125719000Y-105393500D01*
G75*
G02*
X125481500Y-105631000I-237500J0D01*
G01*
X124906500Y-105631000D01*
G75*
G02*
X124669000Y-105393500I0J237500D01*
G01*
G37*
G36*
G01*
X122919000Y-105393500D02*
X122919000Y-104918500D01*
G75*
G02*
X123156500Y-104681000I237500J0D01*
G01*
X123731500Y-104681000D01*
G75*
G02*
X123969000Y-104918500I0J-237500D01*
G01*
X123969000Y-105393500D01*
G75*
G02*
X123731500Y-105631000I-237500J0D01*
G01*
X123156500Y-105631000D01*
G75*
G02*
X122919000Y-105393500I0J237500D01*
G01*
G37*
%TD*%
%TO.C,C6*%
G36*
G01*
X122919000Y-94217500D02*
X122919000Y-93742500D01*
G75*
G02*
X123156500Y-93505000I237500J0D01*
G01*
X123731500Y-93505000D01*
G75*
G02*
X123969000Y-93742500I0J-237500D01*
G01*
X123969000Y-94217500D01*
G75*
G02*
X123731500Y-94455000I-237500J0D01*
G01*
X123156500Y-94455000D01*
G75*
G02*
X122919000Y-94217500I0J237500D01*
G01*
G37*
G36*
G01*
X124669000Y-94217500D02*
X124669000Y-93742500D01*
G75*
G02*
X124906500Y-93505000I237500J0D01*
G01*
X125481500Y-93505000D01*
G75*
G02*
X125719000Y-93742500I0J-237500D01*
G01*
X125719000Y-94217500D01*
G75*
G02*
X125481500Y-94455000I-237500J0D01*
G01*
X124906500Y-94455000D01*
G75*
G02*
X124669000Y-94217500I0J237500D01*
G01*
G37*
%TD*%
%TO.C,C7*%
G36*
G01*
X122919000Y-103361500D02*
X122919000Y-102886500D01*
G75*
G02*
X123156500Y-102649000I237500J0D01*
G01*
X123731500Y-102649000D01*
G75*
G02*
X123969000Y-102886500I0J-237500D01*
G01*
X123969000Y-103361500D01*
G75*
G02*
X123731500Y-103599000I-237500J0D01*
G01*
X123156500Y-103599000D01*
G75*
G02*
X122919000Y-103361500I0J237500D01*
G01*
G37*
G36*
G01*
X124669000Y-103361500D02*
X124669000Y-102886500D01*
G75*
G02*
X124906500Y-102649000I237500J0D01*
G01*
X125481500Y-102649000D01*
G75*
G02*
X125719000Y-102886500I0J-237500D01*
G01*
X125719000Y-103361500D01*
G75*
G02*
X125481500Y-103599000I-237500J0D01*
G01*
X124906500Y-103599000D01*
G75*
G02*
X124669000Y-103361500I0J237500D01*
G01*
G37*
%TD*%
%TO.C,C8*%
G36*
G01*
X122919000Y-101329500D02*
X122919000Y-100854500D01*
G75*
G02*
X123156500Y-100617000I237500J0D01*
G01*
X123731500Y-100617000D01*
G75*
G02*
X123969000Y-100854500I0J-237500D01*
G01*
X123969000Y-101329500D01*
G75*
G02*
X123731500Y-101567000I-237500J0D01*
G01*
X123156500Y-101567000D01*
G75*
G02*
X122919000Y-101329500I0J237500D01*
G01*
G37*
G36*
G01*
X124669000Y-101329500D02*
X124669000Y-100854500D01*
G75*
G02*
X124906500Y-100617000I237500J0D01*
G01*
X125481500Y-100617000D01*
G75*
G02*
X125719000Y-100854500I0J-237500D01*
G01*
X125719000Y-101329500D01*
G75*
G02*
X125481500Y-101567000I-237500J0D01*
G01*
X124906500Y-101567000D01*
G75*
G02*
X124669000Y-101329500I0J237500D01*
G01*
G37*
%TD*%
D10*
%TO.C,J5*%
X118698000Y-91786000D03*
X118698000Y-92286000D03*
X118698000Y-92786000D03*
X118698000Y-93286000D03*
X118698000Y-93786000D03*
X118698000Y-94286000D03*
X118698000Y-94786000D03*
X118698000Y-95286000D03*
X118698000Y-95786000D03*
X118698000Y-96286000D03*
X118698000Y-96786000D03*
X118698000Y-97286000D03*
X118698000Y-97786000D03*
X118698000Y-98286000D03*
X118698000Y-98786000D03*
X118698000Y-99286000D03*
X118698000Y-99786000D03*
X118698000Y-100286000D03*
X118698000Y-100786000D03*
X118698000Y-101286000D03*
X118698000Y-101786000D03*
X118698000Y-102286000D03*
X118698000Y-102786000D03*
X118698000Y-103286000D03*
D11*
X116998000Y-90116000D03*
X116998000Y-104956000D03*
%TD*%
%TO.C,J6*%
X102870000Y-107456000D03*
X102870000Y-87616000D03*
D10*
X104570000Y-105786000D03*
X104570000Y-105286000D03*
X104570000Y-104786000D03*
X104570000Y-104286000D03*
X104570000Y-103786000D03*
X104570000Y-103286000D03*
X104570000Y-102786000D03*
X104570000Y-102286000D03*
X104570000Y-101786000D03*
X104570000Y-101286000D03*
X104570000Y-100786000D03*
X104570000Y-100286000D03*
X104570000Y-99786000D03*
X104570000Y-99286000D03*
X104570000Y-98786000D03*
X104570000Y-98286000D03*
X104570000Y-97786000D03*
X104570000Y-97286000D03*
X104570000Y-96786000D03*
X104570000Y-96286000D03*
X104570000Y-95786000D03*
X104570000Y-95286000D03*
X104570000Y-94786000D03*
X104570000Y-94286000D03*
X104570000Y-93786000D03*
X104570000Y-93286000D03*
X104570000Y-92786000D03*
X104570000Y-92286000D03*
X104570000Y-91786000D03*
X104570000Y-91286000D03*
X104570000Y-90786000D03*
X104570000Y-90286000D03*
X104570000Y-89786000D03*
X104570000Y-89286000D03*
%TD*%
M02*
