%TF.GenerationSoftware,KiCad,Pcbnew,(5.1.6)-1*%
%TF.CreationDate,2020-05-23T23:32:43+08:00*%
%TF.ProjectId,ePap,65506170-2e6b-4696-9361-645f70636258,rev?*%
%TF.SameCoordinates,Original*%
%TF.FileFunction,Legend,Bot*%
%TF.FilePolarity,Positive*%
%FSLAX46Y46*%
G04 Gerber Fmt 4.6, Leading zero omitted, Abs format (unit mm)*
G04 Created by KiCad (PCBNEW (5.1.6)-1) date 2020-05-23 23:32:43*
%MOMM*%
%LPD*%
G01*
G04 APERTURE LIST*
%ADD10C,0.150000*%
%ADD11C,0.120000*%
G04 APERTURE END LIST*
D10*
X121483761Y-111291619D02*
X122102809Y-111291619D01*
X121769476Y-110910666D01*
X121912333Y-110910666D01*
X122007571Y-110863047D01*
X122055190Y-110815428D01*
X122102809Y-110720190D01*
X122102809Y-110482095D01*
X122055190Y-110386857D01*
X122007571Y-110339238D01*
X121912333Y-110291619D01*
X121626619Y-110291619D01*
X121531380Y-110339238D01*
X121483761Y-110386857D01*
X122388523Y-111291619D02*
X122721857Y-110291619D01*
X123055190Y-111291619D01*
X123293285Y-111291619D02*
X123912333Y-111291619D01*
X123579000Y-110910666D01*
X123721857Y-110910666D01*
X123817095Y-110863047D01*
X123864714Y-110815428D01*
X123912333Y-110720190D01*
X123912333Y-110482095D01*
X123864714Y-110386857D01*
X123817095Y-110339238D01*
X123721857Y-110291619D01*
X123436142Y-110291619D01*
X123340904Y-110339238D01*
X123293285Y-110386857D01*
X125102809Y-110291619D02*
X125102809Y-111291619D01*
X125483761Y-111291619D01*
X125579000Y-111244000D01*
X125626619Y-111196380D01*
X125674238Y-111101142D01*
X125674238Y-110958285D01*
X125626619Y-110863047D01*
X125579000Y-110815428D01*
X125483761Y-110767809D01*
X125102809Y-110767809D01*
X126055190Y-110339238D02*
X126198047Y-110291619D01*
X126436142Y-110291619D01*
X126531380Y-110339238D01*
X126579000Y-110386857D01*
X126626619Y-110482095D01*
X126626619Y-110577333D01*
X126579000Y-110672571D01*
X126531380Y-110720190D01*
X126436142Y-110767809D01*
X126245666Y-110815428D01*
X126150428Y-110863047D01*
X126102809Y-110910666D01*
X126055190Y-111005904D01*
X126055190Y-111101142D01*
X126102809Y-111196380D01*
X126150428Y-111244000D01*
X126245666Y-111291619D01*
X126483761Y-111291619D01*
X126626619Y-111244000D01*
X125610523Y-84986761D02*
X125467666Y-85034380D01*
X125229571Y-85034380D01*
X125134333Y-84986761D01*
X125086714Y-84939142D01*
X125039095Y-84843904D01*
X125039095Y-84748666D01*
X125086714Y-84653428D01*
X125134333Y-84605809D01*
X125229571Y-84558190D01*
X125420047Y-84510571D01*
X125515285Y-84462952D01*
X125562904Y-84415333D01*
X125610523Y-84320095D01*
X125610523Y-84224857D01*
X125562904Y-84129619D01*
X125515285Y-84082000D01*
X125420047Y-84034380D01*
X125181952Y-84034380D01*
X125039095Y-84082000D01*
X124610523Y-85034380D02*
X124610523Y-84034380D01*
X124229571Y-84034380D01*
X124134333Y-84082000D01*
X124086714Y-84129619D01*
X124039095Y-84224857D01*
X124039095Y-84367714D01*
X124086714Y-84462952D01*
X124134333Y-84510571D01*
X124229571Y-84558190D01*
X124610523Y-84558190D01*
X123610523Y-85034380D02*
X123610523Y-84034380D01*
X122372428Y-85034380D02*
X122372428Y-84034380D01*
X122039095Y-84748666D01*
X121705761Y-84034380D01*
X121705761Y-85034380D01*
X121086714Y-85034380D02*
X121181952Y-84986761D01*
X121229571Y-84939142D01*
X121277190Y-84843904D01*
X121277190Y-84558190D01*
X121229571Y-84462952D01*
X121181952Y-84415333D01*
X121086714Y-84367714D01*
X120943857Y-84367714D01*
X120848619Y-84415333D01*
X120801000Y-84462952D01*
X120753380Y-84558190D01*
X120753380Y-84843904D01*
X120801000Y-84939142D01*
X120848619Y-84986761D01*
X120943857Y-85034380D01*
X121086714Y-85034380D01*
X119896238Y-85034380D02*
X119896238Y-84034380D01*
X119896238Y-84986761D02*
X119991476Y-85034380D01*
X120181952Y-85034380D01*
X120277190Y-84986761D01*
X120324809Y-84939142D01*
X120372428Y-84843904D01*
X120372428Y-84558190D01*
X120324809Y-84462952D01*
X120277190Y-84415333D01*
X120181952Y-84367714D01*
X119991476Y-84367714D01*
X119896238Y-84415333D01*
X119039095Y-84986761D02*
X119134333Y-85034380D01*
X119324809Y-85034380D01*
X119420047Y-84986761D01*
X119467666Y-84891523D01*
X119467666Y-84510571D01*
X119420047Y-84415333D01*
X119324809Y-84367714D01*
X119134333Y-84367714D01*
X119039095Y-84415333D01*
X118991476Y-84510571D01*
X118991476Y-84605809D01*
X119467666Y-84701047D01*
X124420380Y-87566666D02*
X124420380Y-88185714D01*
X124801333Y-87852380D01*
X124801333Y-87995238D01*
X124848952Y-88090476D01*
X124896571Y-88138095D01*
X124991809Y-88185714D01*
X125229904Y-88185714D01*
X125325142Y-88138095D01*
X125372761Y-88090476D01*
X125420380Y-87995238D01*
X125420380Y-87709523D01*
X125372761Y-87614285D01*
X125325142Y-87566666D01*
X124372761Y-89328571D02*
X125658476Y-88471428D01*
X125420380Y-89709523D02*
X125420380Y-89900000D01*
X125372761Y-89995238D01*
X125325142Y-90042857D01*
X125182285Y-90138095D01*
X124991809Y-90185714D01*
X124610857Y-90185714D01*
X124515619Y-90138095D01*
X124468000Y-90090476D01*
X124420380Y-89995238D01*
X124420380Y-89804761D01*
X124468000Y-89709523D01*
X124515619Y-89661904D01*
X124610857Y-89614285D01*
X124848952Y-89614285D01*
X124944190Y-89661904D01*
X124991809Y-89709523D01*
X125039428Y-89804761D01*
X125039428Y-89995238D01*
X124991809Y-90090476D01*
X124944190Y-90138095D01*
X124848952Y-90185714D01*
X133389714Y-88090476D02*
X134056380Y-88090476D01*
X133008761Y-87852380D02*
X133723047Y-87614285D01*
X133723047Y-88233333D01*
X133008761Y-89328571D02*
X134294476Y-88471428D01*
X133484952Y-89804761D02*
X133437333Y-89709523D01*
X133389714Y-89661904D01*
X133294476Y-89614285D01*
X133246857Y-89614285D01*
X133151619Y-89661904D01*
X133104000Y-89709523D01*
X133056380Y-89804761D01*
X133056380Y-89995238D01*
X133104000Y-90090476D01*
X133151619Y-90138095D01*
X133246857Y-90185714D01*
X133294476Y-90185714D01*
X133389714Y-90138095D01*
X133437333Y-90090476D01*
X133484952Y-89995238D01*
X133484952Y-89804761D01*
X133532571Y-89709523D01*
X133580190Y-89661904D01*
X133675428Y-89614285D01*
X133865904Y-89614285D01*
X133961142Y-89661904D01*
X134008761Y-89709523D01*
X134056380Y-89804761D01*
X134056380Y-89995238D01*
X134008761Y-90090476D01*
X133961142Y-90138095D01*
X133865904Y-90185714D01*
X133675428Y-90185714D01*
X133580190Y-90138095D01*
X133532571Y-90090476D01*
X133484952Y-89995238D01*
D11*
%TO.C,C9*%
X119124000Y-93022267D02*
X119124000Y-92679733D01*
X120144000Y-93022267D02*
X120144000Y-92679733D01*
%TO.C,C10*%
X111762000Y-98888733D02*
X111762000Y-99231267D01*
X110742000Y-98888733D02*
X110742000Y-99231267D01*
%TO.C,C11*%
X113282000Y-104476733D02*
X113282000Y-104819267D01*
X114302000Y-104476733D02*
X114302000Y-104819267D01*
%TO.C,C12*%
X111762000Y-104476733D02*
X111762000Y-104819267D01*
X110742000Y-104476733D02*
X110742000Y-104819267D01*
%TO.C,D1*%
X107204000Y-96810000D02*
X107204000Y-100710000D01*
X109204000Y-96810000D02*
X109204000Y-100710000D01*
X107204000Y-96810000D02*
X109204000Y-96810000D01*
%TO.C,D2*%
X114792000Y-101310000D02*
X112792000Y-101310000D01*
X112792000Y-101310000D02*
X112792000Y-97410000D01*
X114792000Y-101310000D02*
X114792000Y-97410000D01*
%TO.C,D3*%
X107204000Y-102398000D02*
X109204000Y-102398000D01*
X109204000Y-102398000D02*
X109204000Y-106298000D01*
X107204000Y-102398000D02*
X107204000Y-106298000D01*
%TO.C,J1*%
X129278000Y-102242000D02*
X129278000Y-102352000D01*
X129278000Y-102352000D02*
X128678000Y-102352000D01*
X129278000Y-92812000D02*
X129278000Y-92702000D01*
X129278000Y-92702000D02*
X128678000Y-92702000D01*
X131868000Y-99477000D02*
X131468000Y-99277000D01*
X131468000Y-99277000D02*
X131868000Y-99077000D01*
X131868000Y-99077000D02*
X131868000Y-99477000D01*
%TO.C,J2*%
X132314000Y-88984000D02*
X126194000Y-88984000D01*
X126194000Y-88984000D02*
X126194000Y-87364000D01*
X126194000Y-87364000D02*
X132314000Y-87364000D01*
X132314000Y-87364000D02*
X132314000Y-88984000D01*
X131564000Y-87364000D02*
X131564000Y-83164000D01*
X131564000Y-83164000D02*
X130944000Y-83164000D01*
X130944000Y-83164000D02*
X130944000Y-87364000D01*
X131504000Y-87364000D02*
X131504000Y-83164000D01*
X131384000Y-87364000D02*
X131384000Y-83164000D01*
X131264000Y-87364000D02*
X131264000Y-83164000D01*
X131144000Y-87364000D02*
X131144000Y-83164000D01*
X131024000Y-87364000D02*
X131024000Y-83164000D01*
X131564000Y-89489000D02*
X131564000Y-88984000D01*
X130944000Y-89489000D02*
X130944000Y-88984000D01*
X130254000Y-88984000D02*
X130254000Y-87364000D01*
X129564000Y-87364000D02*
X129564000Y-83164000D01*
X129564000Y-83164000D02*
X128944000Y-83164000D01*
X128944000Y-83164000D02*
X128944000Y-87364000D01*
X129564000Y-89541886D02*
X129564000Y-88984000D01*
X128944000Y-89541886D02*
X128944000Y-88984000D01*
X128254000Y-88984000D02*
X128254000Y-87364000D01*
X127564000Y-87364000D02*
X127564000Y-83164000D01*
X127564000Y-83164000D02*
X126944000Y-83164000D01*
X126944000Y-83164000D02*
X126944000Y-87364000D01*
X127564000Y-89541886D02*
X127564000Y-88984000D01*
X126944000Y-89541886D02*
X126944000Y-88984000D01*
X131254000Y-91424000D02*
X132254000Y-91424000D01*
X132254000Y-91424000D02*
X132254000Y-90424000D01*
%TO.C,J3*%
X126956000Y-106088000D02*
X131076000Y-106088000D01*
X131076000Y-106088000D02*
X131076000Y-107708000D01*
X131076000Y-107708000D02*
X126956000Y-107708000D01*
X126956000Y-107708000D02*
X126956000Y-106088000D01*
X127706000Y-107708000D02*
X127706000Y-111908000D01*
X127706000Y-111908000D02*
X128326000Y-111908000D01*
X128326000Y-111908000D02*
X128326000Y-107708000D01*
X127766000Y-107708000D02*
X127766000Y-111908000D01*
X127886000Y-107708000D02*
X127886000Y-111908000D01*
X128006000Y-107708000D02*
X128006000Y-111908000D01*
X128126000Y-107708000D02*
X128126000Y-111908000D01*
X128246000Y-107708000D02*
X128246000Y-111908000D01*
X127706000Y-105583000D02*
X127706000Y-106088000D01*
X128326000Y-105583000D02*
X128326000Y-106088000D01*
X129016000Y-106088000D02*
X129016000Y-107708000D01*
X129706000Y-107708000D02*
X129706000Y-111908000D01*
X129706000Y-111908000D02*
X130326000Y-111908000D01*
X130326000Y-111908000D02*
X130326000Y-107708000D01*
X129706000Y-105530114D02*
X129706000Y-106088000D01*
X130326000Y-105530114D02*
X130326000Y-106088000D01*
X128016000Y-103648000D02*
X127016000Y-103648000D01*
X127016000Y-103648000D02*
X127016000Y-104648000D01*
%TO.C,L1*%
X117308000Y-92888000D02*
X112308000Y-92888000D01*
X117308000Y-96088000D02*
X112308000Y-96088000D01*
%TO.C,Q1*%
X110866000Y-95232000D02*
X109936000Y-95232000D01*
X107706000Y-95232000D02*
X108636000Y-95232000D01*
X107706000Y-95232000D02*
X107706000Y-93072000D01*
X110866000Y-95232000D02*
X110866000Y-93772000D01*
%TO.C,R1*%
X106986000Y-89669252D02*
X106986000Y-89146748D01*
X108406000Y-89669252D02*
X108406000Y-89146748D01*
%TO.C,R2*%
X111454000Y-89660252D02*
X111454000Y-89137748D01*
X110034000Y-89660252D02*
X110034000Y-89137748D01*
%TO.C,U1*%
X118486000Y-102470000D02*
X118486000Y-101210000D01*
X118486000Y-95650000D02*
X118486000Y-96910000D01*
X122246000Y-102470000D02*
X118486000Y-102470000D01*
X124496000Y-95650000D02*
X118486000Y-95650000D01*
%TO.C,C9*%
D10*
X118467142Y-92684333D02*
X118514761Y-92636714D01*
X118562380Y-92493857D01*
X118562380Y-92398619D01*
X118514761Y-92255761D01*
X118419523Y-92160523D01*
X118324285Y-92112904D01*
X118133809Y-92065285D01*
X117990952Y-92065285D01*
X117800476Y-92112904D01*
X117705238Y-92160523D01*
X117610000Y-92255761D01*
X117562380Y-92398619D01*
X117562380Y-92493857D01*
X117610000Y-92636714D01*
X117657619Y-92684333D01*
X118562380Y-93160523D02*
X118562380Y-93351000D01*
X118514761Y-93446238D01*
X118467142Y-93493857D01*
X118324285Y-93589095D01*
X118133809Y-93636714D01*
X117752857Y-93636714D01*
X117657619Y-93589095D01*
X117610000Y-93541476D01*
X117562380Y-93446238D01*
X117562380Y-93255761D01*
X117610000Y-93160523D01*
X117657619Y-93112904D01*
X117752857Y-93065285D01*
X117990952Y-93065285D01*
X118086190Y-93112904D01*
X118133809Y-93160523D01*
X118181428Y-93255761D01*
X118181428Y-93446238D01*
X118133809Y-93541476D01*
X118086190Y-93589095D01*
X117990952Y-93636714D01*
%TO.C,C10*%
X112879142Y-98417142D02*
X112926761Y-98369523D01*
X112974380Y-98226666D01*
X112974380Y-98131428D01*
X112926761Y-97988571D01*
X112831523Y-97893333D01*
X112736285Y-97845714D01*
X112545809Y-97798095D01*
X112402952Y-97798095D01*
X112212476Y-97845714D01*
X112117238Y-97893333D01*
X112022000Y-97988571D01*
X111974380Y-98131428D01*
X111974380Y-98226666D01*
X112022000Y-98369523D01*
X112069619Y-98417142D01*
X112974380Y-99369523D02*
X112974380Y-98798095D01*
X112974380Y-99083809D02*
X111974380Y-99083809D01*
X112117238Y-98988571D01*
X112212476Y-98893333D01*
X112260095Y-98798095D01*
X111974380Y-99988571D02*
X111974380Y-100083809D01*
X112022000Y-100179047D01*
X112069619Y-100226666D01*
X112164857Y-100274285D01*
X112355333Y-100321904D01*
X112593428Y-100321904D01*
X112783904Y-100274285D01*
X112879142Y-100226666D01*
X112926761Y-100179047D01*
X112974380Y-100083809D01*
X112974380Y-99988571D01*
X112926761Y-99893333D01*
X112879142Y-99845714D01*
X112783904Y-99798095D01*
X112593428Y-99750476D01*
X112355333Y-99750476D01*
X112164857Y-99798095D01*
X112069619Y-99845714D01*
X112022000Y-99893333D01*
X111974380Y-99988571D01*
%TO.C,C11*%
X114149142Y-107307142D02*
X114196761Y-107259523D01*
X114244380Y-107116666D01*
X114244380Y-107021428D01*
X114196761Y-106878571D01*
X114101523Y-106783333D01*
X114006285Y-106735714D01*
X113815809Y-106688095D01*
X113672952Y-106688095D01*
X113482476Y-106735714D01*
X113387238Y-106783333D01*
X113292000Y-106878571D01*
X113244380Y-107021428D01*
X113244380Y-107116666D01*
X113292000Y-107259523D01*
X113339619Y-107307142D01*
X114244380Y-108259523D02*
X114244380Y-107688095D01*
X114244380Y-107973809D02*
X113244380Y-107973809D01*
X113387238Y-107878571D01*
X113482476Y-107783333D01*
X113530095Y-107688095D01*
X114244380Y-109211904D02*
X114244380Y-108640476D01*
X114244380Y-108926190D02*
X113244380Y-108926190D01*
X113387238Y-108830952D01*
X113482476Y-108735714D01*
X113530095Y-108640476D01*
%TO.C,C12*%
X111609142Y-107307142D02*
X111656761Y-107259523D01*
X111704380Y-107116666D01*
X111704380Y-107021428D01*
X111656761Y-106878571D01*
X111561523Y-106783333D01*
X111466285Y-106735714D01*
X111275809Y-106688095D01*
X111132952Y-106688095D01*
X110942476Y-106735714D01*
X110847238Y-106783333D01*
X110752000Y-106878571D01*
X110704380Y-107021428D01*
X110704380Y-107116666D01*
X110752000Y-107259523D01*
X110799619Y-107307142D01*
X111704380Y-108259523D02*
X111704380Y-107688095D01*
X111704380Y-107973809D02*
X110704380Y-107973809D01*
X110847238Y-107878571D01*
X110942476Y-107783333D01*
X110990095Y-107688095D01*
X110799619Y-108640476D02*
X110752000Y-108688095D01*
X110704380Y-108783333D01*
X110704380Y-109021428D01*
X110752000Y-109116666D01*
X110799619Y-109164285D01*
X110894857Y-109211904D01*
X110990095Y-109211904D01*
X111132952Y-109164285D01*
X111704380Y-108592857D01*
X111704380Y-109211904D01*
%TO.C,D1*%
X110307380Y-98321904D02*
X109307380Y-98321904D01*
X109307380Y-98560000D01*
X109355000Y-98702857D01*
X109450238Y-98798095D01*
X109545476Y-98845714D01*
X109735952Y-98893333D01*
X109878809Y-98893333D01*
X110069285Y-98845714D01*
X110164523Y-98798095D01*
X110259761Y-98702857D01*
X110307380Y-98560000D01*
X110307380Y-98321904D01*
X110307380Y-99845714D02*
X110307380Y-99274285D01*
X110307380Y-99560000D02*
X109307380Y-99560000D01*
X109450238Y-99464761D01*
X109545476Y-99369523D01*
X109593095Y-99274285D01*
%TO.C,D2*%
X116244380Y-98321904D02*
X115244380Y-98321904D01*
X115244380Y-98560000D01*
X115292000Y-98702857D01*
X115387238Y-98798095D01*
X115482476Y-98845714D01*
X115672952Y-98893333D01*
X115815809Y-98893333D01*
X116006285Y-98845714D01*
X116101523Y-98798095D01*
X116196761Y-98702857D01*
X116244380Y-98560000D01*
X116244380Y-98321904D01*
X115339619Y-99274285D02*
X115292000Y-99321904D01*
X115244380Y-99417142D01*
X115244380Y-99655238D01*
X115292000Y-99750476D01*
X115339619Y-99798095D01*
X115434857Y-99845714D01*
X115530095Y-99845714D01*
X115672952Y-99798095D01*
X116244380Y-99226666D01*
X116244380Y-99845714D01*
%TO.C,D3*%
X110434380Y-103909904D02*
X109434380Y-103909904D01*
X109434380Y-104148000D01*
X109482000Y-104290857D01*
X109577238Y-104386095D01*
X109672476Y-104433714D01*
X109862952Y-104481333D01*
X110005809Y-104481333D01*
X110196285Y-104433714D01*
X110291523Y-104386095D01*
X110386761Y-104290857D01*
X110434380Y-104148000D01*
X110434380Y-103909904D01*
X109434380Y-104814666D02*
X109434380Y-105433714D01*
X109815333Y-105100380D01*
X109815333Y-105243238D01*
X109862952Y-105338476D01*
X109910571Y-105386095D01*
X110005809Y-105433714D01*
X110243904Y-105433714D01*
X110339142Y-105386095D01*
X110386761Y-105338476D01*
X110434380Y-105243238D01*
X110434380Y-104957523D01*
X110386761Y-104862285D01*
X110339142Y-104814666D01*
%TO.C,J1*%
X131301333Y-103075380D02*
X131301333Y-103789666D01*
X131348952Y-103932523D01*
X131444190Y-104027761D01*
X131587047Y-104075380D01*
X131682285Y-104075380D01*
X130301333Y-104075380D02*
X130872761Y-104075380D01*
X130587047Y-104075380D02*
X130587047Y-103075380D01*
X130682285Y-103218238D01*
X130777523Y-103313476D01*
X130872761Y-103361095D01*
%TO.C,J2*%
X132167380Y-83740666D02*
X132881666Y-83740666D01*
X133024523Y-83693047D01*
X133119761Y-83597809D01*
X133167380Y-83454952D01*
X133167380Y-83359714D01*
X132262619Y-84169238D02*
X132215000Y-84216857D01*
X132167380Y-84312095D01*
X132167380Y-84550190D01*
X132215000Y-84645428D01*
X132262619Y-84693047D01*
X132357857Y-84740666D01*
X132453095Y-84740666D01*
X132595952Y-84693047D01*
X133167380Y-84121619D01*
X133167380Y-84740666D01*
%TO.C,J3*%
X125468380Y-107414666D02*
X126182666Y-107414666D01*
X126325523Y-107367047D01*
X126420761Y-107271809D01*
X126468380Y-107128952D01*
X126468380Y-107033714D01*
X125468380Y-107795619D02*
X125468380Y-108414666D01*
X125849333Y-108081333D01*
X125849333Y-108224190D01*
X125896952Y-108319428D01*
X125944571Y-108367047D01*
X126039809Y-108414666D01*
X126277904Y-108414666D01*
X126373142Y-108367047D01*
X126420761Y-108319428D01*
X126468380Y-108224190D01*
X126468380Y-107938476D01*
X126420761Y-107843238D01*
X126373142Y-107795619D01*
%TO.C,L1*%
X114974666Y-92440380D02*
X115450857Y-92440380D01*
X115450857Y-91440380D01*
X114117523Y-92440380D02*
X114688952Y-92440380D01*
X114403238Y-92440380D02*
X114403238Y-91440380D01*
X114498476Y-91583238D01*
X114593714Y-91678476D01*
X114688952Y-91726095D01*
%TO.C,Q1*%
X112180619Y-92360761D02*
X112133000Y-92265523D01*
X112037761Y-92170285D01*
X111894904Y-92027428D01*
X111847285Y-91932190D01*
X111847285Y-91836952D01*
X112085380Y-91884571D02*
X112037761Y-91789333D01*
X111942523Y-91694095D01*
X111752047Y-91646476D01*
X111418714Y-91646476D01*
X111228238Y-91694095D01*
X111133000Y-91789333D01*
X111085380Y-91884571D01*
X111085380Y-92075047D01*
X111133000Y-92170285D01*
X111228238Y-92265523D01*
X111418714Y-92313142D01*
X111752047Y-92313142D01*
X111942523Y-92265523D01*
X112037761Y-92170285D01*
X112085380Y-92075047D01*
X112085380Y-91884571D01*
X112085380Y-93265523D02*
X112085380Y-92694095D01*
X112085380Y-92979809D02*
X111085380Y-92979809D01*
X111228238Y-92884571D01*
X111323476Y-92789333D01*
X111371095Y-92694095D01*
%TO.C,R1*%
X109798380Y-89241333D02*
X109322190Y-88908000D01*
X109798380Y-88669904D02*
X108798380Y-88669904D01*
X108798380Y-89050857D01*
X108846000Y-89146095D01*
X108893619Y-89193714D01*
X108988857Y-89241333D01*
X109131714Y-89241333D01*
X109226952Y-89193714D01*
X109274571Y-89146095D01*
X109322190Y-89050857D01*
X109322190Y-88669904D01*
X109798380Y-90193714D02*
X109798380Y-89622285D01*
X109798380Y-89908000D02*
X108798380Y-89908000D01*
X108941238Y-89812761D01*
X109036476Y-89717523D01*
X109084095Y-89622285D01*
%TO.C,R2*%
X112846380Y-89232333D02*
X112370190Y-88899000D01*
X112846380Y-88660904D02*
X111846380Y-88660904D01*
X111846380Y-89041857D01*
X111894000Y-89137095D01*
X111941619Y-89184714D01*
X112036857Y-89232333D01*
X112179714Y-89232333D01*
X112274952Y-89184714D01*
X112322571Y-89137095D01*
X112370190Y-89041857D01*
X112370190Y-88660904D01*
X111941619Y-89613285D02*
X111894000Y-89660904D01*
X111846380Y-89756142D01*
X111846380Y-89994238D01*
X111894000Y-90089476D01*
X111941619Y-90137095D01*
X112036857Y-90184714D01*
X112132095Y-90184714D01*
X112274952Y-90137095D01*
X112846380Y-89565666D01*
X112846380Y-90184714D01*
%TO.C,U1*%
X121157904Y-94012380D02*
X121157904Y-94821904D01*
X121110285Y-94917142D01*
X121062666Y-94964761D01*
X120967428Y-95012380D01*
X120776952Y-95012380D01*
X120681714Y-94964761D01*
X120634095Y-94917142D01*
X120586476Y-94821904D01*
X120586476Y-94012380D01*
X119586476Y-95012380D02*
X120157904Y-95012380D01*
X119872190Y-95012380D02*
X119872190Y-94012380D01*
X119967428Y-94155238D01*
X120062666Y-94250476D01*
X120157904Y-94298095D01*
%TD*%
M02*
