M48
; DRILL file {KiCad (5.1.6)-1} date 05/23/20 23:32:43
; FORMAT={-:-/ absolute / metric / decimal}
; #@! TF.CreationDate,2020-05-23T23:32:43+08:00
; #@! TF.GenerationSoftware,Kicad,Pcbnew,(5.1.6)-1
; #@! TF.FileFunction,Plated,1,2,PTH
FMAT,2
METRIC
T1C0.400
T2C0.800
T3C1.000
T4C1.200
T5C2.000
%
G90
G05
T1
X102.616Y-91.44
X102.616Y-97.536
X102.616Y-100.584
X102.616Y-103.632
X103.632Y-83.82
X103.632Y-111.252
X108.204Y-91.948
X109.728Y-86.868
X109.728Y-103.124
X109.728Y-103.759
X109.728Y-111.252
X110.236Y-92.456
X112.776Y-83.82
X112.776Y-89.916
X112.776Y-108.204
X115.824Y-86.868
X115.824Y-111.252
X118.872Y-83.82
X118.872Y-108.204
X120.396Y-102.997
X120.65Y-103.632
X120.678Y-99.286
X121.694Y-99.286
X121.92Y-86.868
X121.92Y-111.252
X124.968Y-83.82
X124.968Y-89.916
X128.016Y-86.868
X128.016Y-99.06
X128.016Y-111.252
X131.064Y-83.82
X131.064Y-108.204
T2
X127.254Y-90.424
X129.254Y-90.424
X131.254Y-90.424
X128.016Y-104.648
X130.016Y-104.648
T3
X136.398Y-88.646
X136.398Y-91.186
X136.398Y-93.726
X136.398Y-96.266
X136.398Y-98.806
X136.398Y-101.346
X136.398Y-103.886
X136.398Y-106.426
T4
X122.428Y-88.773
T5
X106.807Y-85.471
X106.807Y-109.601
X134.366Y-85.471
X134.493Y-109.601
T0
M30
