%TF.GenerationSoftware,KiCad,Pcbnew,(5.1.6)-1*%
%TF.CreationDate,2020-05-23T23:32:43+08:00*%
%TF.ProjectId,ePap,65506170-2e6b-4696-9361-645f70636258,rev?*%
%TF.SameCoordinates,Original*%
%TF.FileFunction,Copper,L1,Top*%
%TF.FilePolarity,Positive*%
%FSLAX46Y46*%
G04 Gerber Fmt 4.6, Leading zero omitted, Abs format (unit mm)*
G04 Created by KiCad (PCBNEW (5.1.6)-1) date 2020-05-23 23:32:43*
%MOMM*%
%LPD*%
G01*
G04 APERTURE LIST*
%TA.AperFunction,ComponentPad*%
%ADD10R,1.700000X1.700000*%
%TD*%
%TA.AperFunction,ComponentPad*%
%ADD11O,1.700000X1.700000*%
%TD*%
%TA.AperFunction,ComponentPad*%
%ADD12R,1.350000X1.350000*%
%TD*%
%TA.AperFunction,ComponentPad*%
%ADD13O,1.350000X1.350000*%
%TD*%
%TA.AperFunction,SMDPad,CuDef*%
%ADD14R,1.100000X0.300000*%
%TD*%
%TA.AperFunction,SMDPad,CuDef*%
%ADD15R,3.100000X2.300000*%
%TD*%
%TA.AperFunction,SMDPad,CuDef*%
%ADD16C,1.000000*%
%TD*%
%TA.AperFunction,ComponentPad*%
%ADD17C,2.500000*%
%TD*%
%TA.AperFunction,ViaPad*%
%ADD18C,0.800000*%
%TD*%
%TA.AperFunction,ViaPad*%
%ADD19C,3.000000*%
%TD*%
%TA.AperFunction,Conductor*%
%ADD20C,0.250000*%
%TD*%
%TA.AperFunction,Conductor*%
%ADD21C,0.300000*%
%TD*%
%TA.AperFunction,Conductor*%
%ADD22C,0.900000*%
%TD*%
%TA.AperFunction,Conductor*%
%ADD23C,1.200000*%
%TD*%
%TA.AperFunction,Conductor*%
%ADD24C,0.127000*%
%TD*%
%ADD25C,0.350000*%
G04 APERTURE END LIST*
D10*
%TO.P,J4,1*%
%TO.N,/VIN*%
X136398000Y-106426000D03*
D11*
%TO.P,J4,2*%
%TO.N,GND*%
X136398000Y-103886000D03*
%TO.P,J4,3*%
%TO.N,/MOSI*%
X136398000Y-101346000D03*
%TO.P,J4,4*%
%TO.N,/SCK*%
X136398000Y-98806000D03*
%TO.P,J4,5*%
%TO.N,/CS*%
X136398000Y-96266000D03*
%TO.P,J4,6*%
%TO.N,/D\u005CC*%
X136398000Y-93726000D03*
%TO.P,J4,7*%
%TO.N,/RST*%
X136398000Y-91186000D03*
%TO.P,J4,8*%
%TO.N,/BUSY*%
X136398000Y-88646000D03*
%TD*%
%TO.P,C1,2*%
%TO.N,GND*%
%TA.AperFunction,SMDPad,CuDef*%
G36*
G01*
X124669000Y-107425500D02*
X124669000Y-106950500D01*
G75*
G02*
X124906500Y-106713000I237500J0D01*
G01*
X125481500Y-106713000D01*
G75*
G02*
X125719000Y-106950500I0J-237500D01*
G01*
X125719000Y-107425500D01*
G75*
G02*
X125481500Y-107663000I-237500J0D01*
G01*
X124906500Y-107663000D01*
G75*
G02*
X124669000Y-107425500I0J237500D01*
G01*
G37*
%TD.AperFunction*%
%TO.P,C1,1*%
%TO.N,Net-(C1-Pad1)*%
%TA.AperFunction,SMDPad,CuDef*%
G36*
G01*
X122919000Y-107425500D02*
X122919000Y-106950500D01*
G75*
G02*
X123156500Y-106713000I237500J0D01*
G01*
X123731500Y-106713000D01*
G75*
G02*
X123969000Y-106950500I0J-237500D01*
G01*
X123969000Y-107425500D01*
G75*
G02*
X123731500Y-107663000I-237500J0D01*
G01*
X123156500Y-107663000D01*
G75*
G02*
X122919000Y-107425500I0J237500D01*
G01*
G37*
%TD.AperFunction*%
%TD*%
%TO.P,C2,2*%
%TO.N,GND*%
%TA.AperFunction,SMDPad,CuDef*%
G36*
G01*
X124669000Y-99297500D02*
X124669000Y-98822500D01*
G75*
G02*
X124906500Y-98585000I237500J0D01*
G01*
X125481500Y-98585000D01*
G75*
G02*
X125719000Y-98822500I0J-237500D01*
G01*
X125719000Y-99297500D01*
G75*
G02*
X125481500Y-99535000I-237500J0D01*
G01*
X124906500Y-99535000D01*
G75*
G02*
X124669000Y-99297500I0J237500D01*
G01*
G37*
%TD.AperFunction*%
%TO.P,C2,1*%
%TO.N,+3V3*%
%TA.AperFunction,SMDPad,CuDef*%
G36*
G01*
X122919000Y-99297500D02*
X122919000Y-98822500D01*
G75*
G02*
X123156500Y-98585000I237500J0D01*
G01*
X123731500Y-98585000D01*
G75*
G02*
X123969000Y-98822500I0J-237500D01*
G01*
X123969000Y-99297500D01*
G75*
G02*
X123731500Y-99535000I-237500J0D01*
G01*
X123156500Y-99535000D01*
G75*
G02*
X122919000Y-99297500I0J237500D01*
G01*
G37*
%TD.AperFunction*%
%TD*%
%TO.P,C3,2*%
%TO.N,GND*%
%TA.AperFunction,SMDPad,CuDef*%
G36*
G01*
X124669000Y-92185500D02*
X124669000Y-91710500D01*
G75*
G02*
X124906500Y-91473000I237500J0D01*
G01*
X125481500Y-91473000D01*
G75*
G02*
X125719000Y-91710500I0J-237500D01*
G01*
X125719000Y-92185500D01*
G75*
G02*
X125481500Y-92423000I-237500J0D01*
G01*
X124906500Y-92423000D01*
G75*
G02*
X124669000Y-92185500I0J237500D01*
G01*
G37*
%TD.AperFunction*%
%TO.P,C3,1*%
%TO.N,Net-(C3-Pad1)*%
%TA.AperFunction,SMDPad,CuDef*%
G36*
G01*
X122919000Y-92185500D02*
X122919000Y-91710500D01*
G75*
G02*
X123156500Y-91473000I237500J0D01*
G01*
X123731500Y-91473000D01*
G75*
G02*
X123969000Y-91710500I0J-237500D01*
G01*
X123969000Y-92185500D01*
G75*
G02*
X123731500Y-92423000I-237500J0D01*
G01*
X123156500Y-92423000D01*
G75*
G02*
X122919000Y-92185500I0J237500D01*
G01*
G37*
%TD.AperFunction*%
%TD*%
%TO.P,C4,1*%
%TO.N,Net-(C4-Pad1)*%
%TA.AperFunction,SMDPad,CuDef*%
G36*
G01*
X110501000Y-105393500D02*
X110501000Y-104918500D01*
G75*
G02*
X110738500Y-104681000I237500J0D01*
G01*
X111313500Y-104681000D01*
G75*
G02*
X111551000Y-104918500I0J-237500D01*
G01*
X111551000Y-105393500D01*
G75*
G02*
X111313500Y-105631000I-237500J0D01*
G01*
X110738500Y-105631000D01*
G75*
G02*
X110501000Y-105393500I0J237500D01*
G01*
G37*
%TD.AperFunction*%
%TO.P,C4,2*%
%TO.N,GND*%
%TA.AperFunction,SMDPad,CuDef*%
G36*
G01*
X112251000Y-105393500D02*
X112251000Y-104918500D01*
G75*
G02*
X112488500Y-104681000I237500J0D01*
G01*
X113063500Y-104681000D01*
G75*
G02*
X113301000Y-104918500I0J-237500D01*
G01*
X113301000Y-105393500D01*
G75*
G02*
X113063500Y-105631000I-237500J0D01*
G01*
X112488500Y-105631000D01*
G75*
G02*
X112251000Y-105393500I0J237500D01*
G01*
G37*
%TD.AperFunction*%
%TD*%
%TO.P,C5,2*%
%TO.N,GND*%
%TA.AperFunction,SMDPad,CuDef*%
G36*
G01*
X124669000Y-105393500D02*
X124669000Y-104918500D01*
G75*
G02*
X124906500Y-104681000I237500J0D01*
G01*
X125481500Y-104681000D01*
G75*
G02*
X125719000Y-104918500I0J-237500D01*
G01*
X125719000Y-105393500D01*
G75*
G02*
X125481500Y-105631000I-237500J0D01*
G01*
X124906500Y-105631000D01*
G75*
G02*
X124669000Y-105393500I0J237500D01*
G01*
G37*
%TD.AperFunction*%
%TO.P,C5,1*%
%TO.N,Net-(C5-Pad1)*%
%TA.AperFunction,SMDPad,CuDef*%
G36*
G01*
X122919000Y-105393500D02*
X122919000Y-104918500D01*
G75*
G02*
X123156500Y-104681000I237500J0D01*
G01*
X123731500Y-104681000D01*
G75*
G02*
X123969000Y-104918500I0J-237500D01*
G01*
X123969000Y-105393500D01*
G75*
G02*
X123731500Y-105631000I-237500J0D01*
G01*
X123156500Y-105631000D01*
G75*
G02*
X122919000Y-105393500I0J237500D01*
G01*
G37*
%TD.AperFunction*%
%TD*%
%TO.P,C6,1*%
%TO.N,Net-(C6-Pad1)*%
%TA.AperFunction,SMDPad,CuDef*%
G36*
G01*
X122919000Y-94217500D02*
X122919000Y-93742500D01*
G75*
G02*
X123156500Y-93505000I237500J0D01*
G01*
X123731500Y-93505000D01*
G75*
G02*
X123969000Y-93742500I0J-237500D01*
G01*
X123969000Y-94217500D01*
G75*
G02*
X123731500Y-94455000I-237500J0D01*
G01*
X123156500Y-94455000D01*
G75*
G02*
X122919000Y-94217500I0J237500D01*
G01*
G37*
%TD.AperFunction*%
%TO.P,C6,2*%
%TO.N,GND*%
%TA.AperFunction,SMDPad,CuDef*%
G36*
G01*
X124669000Y-94217500D02*
X124669000Y-93742500D01*
G75*
G02*
X124906500Y-93505000I237500J0D01*
G01*
X125481500Y-93505000D01*
G75*
G02*
X125719000Y-93742500I0J-237500D01*
G01*
X125719000Y-94217500D01*
G75*
G02*
X125481500Y-94455000I-237500J0D01*
G01*
X124906500Y-94455000D01*
G75*
G02*
X124669000Y-94217500I0J237500D01*
G01*
G37*
%TD.AperFunction*%
%TD*%
%TO.P,C7,1*%
%TO.N,Net-(C7-Pad1)*%
%TA.AperFunction,SMDPad,CuDef*%
G36*
G01*
X122919000Y-103361500D02*
X122919000Y-102886500D01*
G75*
G02*
X123156500Y-102649000I237500J0D01*
G01*
X123731500Y-102649000D01*
G75*
G02*
X123969000Y-102886500I0J-237500D01*
G01*
X123969000Y-103361500D01*
G75*
G02*
X123731500Y-103599000I-237500J0D01*
G01*
X123156500Y-103599000D01*
G75*
G02*
X122919000Y-103361500I0J237500D01*
G01*
G37*
%TD.AperFunction*%
%TO.P,C7,2*%
%TO.N,GND*%
%TA.AperFunction,SMDPad,CuDef*%
G36*
G01*
X124669000Y-103361500D02*
X124669000Y-102886500D01*
G75*
G02*
X124906500Y-102649000I237500J0D01*
G01*
X125481500Y-102649000D01*
G75*
G02*
X125719000Y-102886500I0J-237500D01*
G01*
X125719000Y-103361500D01*
G75*
G02*
X125481500Y-103599000I-237500J0D01*
G01*
X124906500Y-103599000D01*
G75*
G02*
X124669000Y-103361500I0J237500D01*
G01*
G37*
%TD.AperFunction*%
%TD*%
%TO.P,C8,1*%
%TO.N,Net-(C8-Pad1)*%
%TA.AperFunction,SMDPad,CuDef*%
G36*
G01*
X122919000Y-101329500D02*
X122919000Y-100854500D01*
G75*
G02*
X123156500Y-100617000I237500J0D01*
G01*
X123731500Y-100617000D01*
G75*
G02*
X123969000Y-100854500I0J-237500D01*
G01*
X123969000Y-101329500D01*
G75*
G02*
X123731500Y-101567000I-237500J0D01*
G01*
X123156500Y-101567000D01*
G75*
G02*
X122919000Y-101329500I0J237500D01*
G01*
G37*
%TD.AperFunction*%
%TO.P,C8,2*%
%TO.N,GND*%
%TA.AperFunction,SMDPad,CuDef*%
G36*
G01*
X124669000Y-101329500D02*
X124669000Y-100854500D01*
G75*
G02*
X124906500Y-100617000I237500J0D01*
G01*
X125481500Y-100617000D01*
G75*
G02*
X125719000Y-100854500I0J-237500D01*
G01*
X125719000Y-101329500D01*
G75*
G02*
X125481500Y-101567000I-237500J0D01*
G01*
X124906500Y-101567000D01*
G75*
G02*
X124669000Y-101329500I0J237500D01*
G01*
G37*
%TD.AperFunction*%
%TD*%
D12*
%TO.P,J2,1*%
%TO.N,GND*%
X131254000Y-90424000D03*
D13*
%TO.P,J2,2*%
%TO.N,/BS1*%
X129254000Y-90424000D03*
%TO.P,J2,3*%
%TO.N,+3V3*%
X127254000Y-90424000D03*
%TD*%
D12*
%TO.P,J3,1*%
%TO.N,+3V3*%
X128016000Y-104648000D03*
D13*
%TO.P,J3,2*%
%TO.N,/VIN*%
X130016000Y-104648000D03*
%TD*%
D14*
%TO.P,J5,1*%
%TO.N,Net-(J5-Pad1)*%
X118698000Y-91786000D03*
%TO.P,J5,2*%
%TO.N,/GDR*%
X118698000Y-92286000D03*
%TO.P,J5,3*%
%TO.N,/RESE*%
X118698000Y-92786000D03*
%TO.P,J5,4*%
%TO.N,Net-(C3-Pad1)*%
X118698000Y-93286000D03*
%TO.P,J5,5*%
%TO.N,Net-(C6-Pad1)*%
X118698000Y-93786000D03*
%TO.P,J5,6*%
%TO.N,Net-(J5-Pad6)*%
X118698000Y-94286000D03*
%TO.P,J5,7*%
%TO.N,Net-(J5-Pad7)*%
X118698000Y-94786000D03*
%TO.P,J5,8*%
%TO.N,/BS1*%
X118698000Y-95286000D03*
%TO.P,J5,9*%
%TO.N,/BUSY*%
X118698000Y-95786000D03*
%TO.P,J5,10*%
%TO.N,/RST*%
X118698000Y-96286000D03*
%TO.P,J5,11*%
%TO.N,/D\u005CC*%
X118698000Y-96786000D03*
%TO.P,J5,12*%
%TO.N,/CS*%
X118698000Y-97286000D03*
%TO.P,J5,13*%
%TO.N,/SCK*%
X118698000Y-97786000D03*
%TO.P,J5,14*%
%TO.N,/MOSI*%
X118698000Y-98286000D03*
%TO.P,J5,15*%
%TO.N,+3V3*%
X118698000Y-98786000D03*
%TO.P,J5,16*%
X118698000Y-99286000D03*
%TO.P,J5,17*%
%TO.N,GND*%
X118698000Y-99786000D03*
%TO.P,J5,18*%
%TO.N,Net-(C8-Pad1)*%
X118698000Y-100286000D03*
%TO.P,J5,19*%
%TO.N,Net-(C7-Pad1)*%
X118698000Y-100786000D03*
%TO.P,J5,20*%
%TO.N,Net-(C5-Pad1)*%
X118698000Y-101286000D03*
%TO.P,J5,21*%
%TO.N,/PREVGH*%
X118698000Y-101786000D03*
%TO.P,J5,22*%
%TO.N,Net-(C1-Pad1)*%
X118698000Y-102286000D03*
%TO.P,J5,23*%
%TO.N,/PREVGL*%
X118698000Y-102786000D03*
%TO.P,J5,24*%
%TO.N,Net-(C4-Pad1)*%
X118698000Y-103286000D03*
D15*
%TO.P,J5,MP*%
%TO.N,N/C*%
X116998000Y-90116000D03*
X116998000Y-104956000D03*
%TD*%
%TO.P,J6,MP*%
%TO.N,N/C*%
X102870000Y-107456000D03*
X102870000Y-87616000D03*
D14*
%TO.P,J6,34*%
%TO.N,Net-(J6-Pad34)*%
X104570000Y-105786000D03*
%TO.P,J6,33*%
%TO.N,Net-(J6-Pad33)*%
X104570000Y-105286000D03*
%TO.P,J6,32*%
%TO.N,Net-(J6-Pad32)*%
X104570000Y-104786000D03*
%TO.P,J6,31*%
%TO.N,Net-(J6-Pad31)*%
X104570000Y-104286000D03*
%TO.P,J6,30*%
%TO.N,Net-(J6-Pad30)*%
X104570000Y-103786000D03*
%TO.P,J6,29*%
%TO.N,Net-(C4-Pad1)*%
X104570000Y-103286000D03*
%TO.P,J6,28*%
%TO.N,/PREVGL*%
X104570000Y-102786000D03*
%TO.P,J6,27*%
%TO.N,Net-(C1-Pad1)*%
X104570000Y-102286000D03*
%TO.P,J6,26*%
%TO.N,/PREVGH*%
X104570000Y-101786000D03*
%TO.P,J6,25*%
%TO.N,Net-(C5-Pad1)*%
X104570000Y-101286000D03*
%TO.P,J6,24*%
%TO.N,Net-(C7-Pad1)*%
X104570000Y-100786000D03*
%TO.P,J6,23*%
%TO.N,Net-(C8-Pad1)*%
X104570000Y-100286000D03*
%TO.P,J6,22*%
%TO.N,GND*%
X104570000Y-99786000D03*
%TO.P,J6,21*%
%TO.N,+3V3*%
X104570000Y-99286000D03*
%TO.P,J6,20*%
X104570000Y-98786000D03*
%TO.P,J6,19*%
%TO.N,/MOSI*%
X104570000Y-98286000D03*
%TO.P,J6,18*%
%TO.N,/SCK*%
X104570000Y-97786000D03*
%TO.P,J6,17*%
%TO.N,/CS*%
X104570000Y-97286000D03*
%TO.P,J6,16*%
%TO.N,/D\u005CC*%
X104570000Y-96786000D03*
%TO.P,J6,15*%
%TO.N,/RST*%
X104570000Y-96286000D03*
%TO.P,J6,14*%
%TO.N,/BUSY*%
X104570000Y-95786000D03*
%TO.P,J6,13*%
%TO.N,/BS1*%
X104570000Y-95286000D03*
%TO.P,J6,12*%
%TO.N,Net-(J5-Pad7)*%
X104570000Y-94786000D03*
%TO.P,J6,11*%
%TO.N,Net-(J5-Pad6)*%
X104570000Y-94286000D03*
%TO.P,J6,10*%
%TO.N,Net-(C6-Pad1)*%
X104570000Y-93786000D03*
%TO.P,J6,9*%
%TO.N,Net-(C3-Pad1)*%
X104570000Y-93286000D03*
%TO.P,J6,8*%
%TO.N,/RESE*%
X104570000Y-92786000D03*
%TO.P,J6,7*%
%TO.N,/GDR*%
X104570000Y-92286000D03*
%TO.P,J6,6*%
%TO.N,Net-(J6-Pad6)*%
X104570000Y-91786000D03*
%TO.P,J6,5*%
%TO.N,Net-(J6-Pad5)*%
X104570000Y-91286000D03*
%TO.P,J6,4*%
%TO.N,Net-(J6-Pad4)*%
X104570000Y-90786000D03*
%TO.P,J6,3*%
%TO.N,Net-(J6-Pad3)*%
X104570000Y-90286000D03*
%TO.P,J6,2*%
%TO.N,Net-(J6-Pad2)*%
X104570000Y-89786000D03*
%TO.P,J6,1*%
%TO.N,Net-(J6-Pad1)*%
X104570000Y-89286000D03*
%TD*%
D16*
%TO.P,TP1,1*%
%TO.N,Net-(J5-Pad6)*%
X101981000Y-92964000D03*
%TD*%
%TO.P,TP2,1*%
%TO.N,Net-(J5-Pad7)*%
X101981000Y-96012000D03*
%TD*%
D17*
%TO.P,TP3,1*%
%TO.N,GND*%
X122428000Y-88773000D03*
%TD*%
D18*
%TO.N,GND*%
X124968000Y-89916000D03*
X115824000Y-86868000D03*
X121920000Y-86868000D03*
X128016000Y-86868000D03*
X112776000Y-83820000D03*
X118872000Y-83820000D03*
X124968000Y-83820000D03*
X131064000Y-83820000D03*
X112776000Y-89916000D03*
X102616000Y-97536000D03*
X102616000Y-100584000D03*
X102616000Y-103632000D03*
X102616000Y-91440000D03*
X128016000Y-99060000D03*
X128016000Y-111252000D03*
X121920000Y-111252000D03*
X115824000Y-111252000D03*
X109728000Y-111252000D03*
X103632000Y-83820000D03*
X103632000Y-111252000D03*
X112776000Y-108204000D03*
X118872000Y-108204000D03*
X131064000Y-108204000D03*
D19*
X106807000Y-85471000D03*
X134366000Y-85471000D03*
X106807000Y-109601000D03*
X134493000Y-109601000D03*
D18*
X109728000Y-86868000D03*
%TO.N,+3V3*%
X120678000Y-99286000D03*
X121694000Y-99286000D03*
%TO.N,/PREVGH*%
X120396000Y-102997000D03*
X120650000Y-103632000D03*
%TO.N,/PREVGL*%
X109728000Y-103759000D03*
X109728000Y-103124000D03*
%TO.N,/GDR*%
X108204000Y-91948000D03*
%TO.N,/RESE*%
X110236000Y-92456000D03*
%TD*%
D20*
%TO.N,GND*%
X125194000Y-91948000D02*
X125194000Y-93980000D01*
%TO.N,Net-(C1-Pad1)*%
X118698000Y-102286000D02*
X104570000Y-102286000D01*
X119483002Y-102286000D02*
X118698000Y-102286000D01*
X119573001Y-102375999D02*
X119483002Y-102286000D01*
X119573001Y-104841001D02*
X119573001Y-102375999D01*
X121920000Y-107188000D02*
X119573001Y-104841001D01*
X123444000Y-107188000D02*
X121920000Y-107188000D01*
D21*
%TO.N,+3V3*%
X122710000Y-99286000D02*
X122936000Y-99060000D01*
X122710000Y-99286000D02*
X121694000Y-99286000D01*
X104570000Y-98786000D02*
X118698000Y-98786000D01*
X118698000Y-99286000D02*
X118698000Y-98786000D01*
X104570000Y-99286000D02*
X104570000Y-98786000D01*
D20*
X118698000Y-99286000D02*
X120678000Y-99286000D01*
D21*
X120678000Y-99286000D02*
X121694000Y-99286000D01*
D20*
%TO.N,Net-(C3-Pad1)*%
X104970000Y-93286000D02*
X118698000Y-93286000D01*
X104570000Y-93286000D02*
X104970000Y-93286000D01*
X122106000Y-93286000D02*
X118698000Y-93286000D01*
X123444000Y-91948000D02*
X122106000Y-93286000D01*
%TO.N,Net-(C4-Pad1)*%
X104570000Y-103286000D02*
X104994000Y-103286000D01*
X119034000Y-103286000D02*
X118698000Y-103286000D01*
X104570000Y-103286000D02*
X107096000Y-103286000D01*
X107096000Y-103286000D02*
X108344010Y-104534010D01*
X113122000Y-103286000D02*
X118698000Y-103286000D01*
X111873990Y-104534010D02*
X113122000Y-103286000D01*
D22*
X110998000Y-105156000D02*
X110998000Y-104902000D01*
D20*
X111252000Y-104674020D02*
X111111990Y-104534010D01*
X111252000Y-105156000D02*
X111252000Y-104674020D01*
X108344010Y-104534010D02*
X111111990Y-104534010D01*
X111111990Y-104534010D02*
X111873990Y-104534010D01*
%TO.N,Net-(C5-Pad1)*%
X119533000Y-101286000D02*
X118698000Y-101286000D01*
X122275000Y-103673000D02*
X119888000Y-101286000D01*
X104570000Y-101286000D02*
X118698000Y-101286000D01*
X122275000Y-103987000D02*
X123444000Y-105156000D01*
X122275000Y-103673000D02*
X122275000Y-103987000D01*
X119888000Y-101286000D02*
X119533000Y-101286000D01*
%TO.N,Net-(C6-Pad1)*%
X104962000Y-93786000D02*
X118698000Y-93786000D01*
X104570000Y-93786000D02*
X104962000Y-93786000D01*
X123250000Y-93786000D02*
X123444000Y-93980000D01*
X118698000Y-93786000D02*
X123250000Y-93786000D01*
%TO.N,Net-(C7-Pad1)*%
X123444000Y-103124000D02*
X122936000Y-103124000D01*
X120598000Y-100786000D02*
X118698000Y-100786000D01*
X122936000Y-103124000D02*
X120598000Y-100786000D01*
X118698000Y-100786000D02*
X104570000Y-100786000D01*
%TO.N,Net-(C8-Pad1)*%
X122638000Y-100286000D02*
X118698000Y-100286000D01*
X123444000Y-101092000D02*
X122638000Y-100286000D01*
X104570000Y-100286000D02*
X118698000Y-100286000D01*
D21*
%TO.N,/PREVGH*%
X104970000Y-101786000D02*
X118698000Y-101786000D01*
D20*
X104570000Y-101786000D02*
X104970000Y-101786000D01*
X118698000Y-101786000D02*
X118698000Y-101774000D01*
X118698000Y-101774000D02*
X118710999Y-101761001D01*
X120904000Y-103632000D02*
X120904000Y-103632000D01*
D21*
X118698000Y-101786000D02*
X119654767Y-101786000D01*
X120396000Y-102527233D02*
X120396000Y-102997000D01*
X119654767Y-101786000D02*
X120396000Y-102527233D01*
D20*
%TO.N,/PREVGL*%
X104570000Y-102786000D02*
X104570000Y-102761001D01*
X104570000Y-102786000D02*
X104986000Y-102786000D01*
X109728000Y-102956000D02*
X109558000Y-102786000D01*
X104986000Y-102786000D02*
X109558000Y-102786000D01*
D21*
X109558000Y-102786000D02*
X118698000Y-102786000D01*
D22*
X109728000Y-103124000D02*
X109728000Y-103759000D01*
D23*
%TO.N,/VIN*%
X131794000Y-106426000D02*
X130016000Y-104648000D01*
X136398000Y-106426000D02*
X131794000Y-106426000D01*
D20*
%TO.N,/MOSI*%
X104890000Y-98286000D02*
X118698000Y-98286000D01*
X104570000Y-98286000D02*
X104890000Y-98286000D01*
X122428000Y-98044000D02*
X122186000Y-98286000D01*
X122186000Y-98286000D02*
X118698000Y-98286000D01*
X131185000Y-98044000D02*
X122428000Y-98044000D01*
X136398000Y-101346000D02*
X134487000Y-101346000D01*
X134487000Y-101346000D02*
X131185000Y-98044000D01*
%TO.N,/SCK*%
X118698000Y-97786000D02*
X104570000Y-97786000D01*
X121670000Y-97786000D02*
X118698000Y-97786000D01*
X121862009Y-97593991D02*
X121670000Y-97786000D01*
X131572000Y-97593991D02*
X121862009Y-97593991D01*
X136398000Y-98806000D02*
X132784009Y-98806000D01*
X132784009Y-98806000D02*
X131572000Y-97593991D01*
%TO.N,/CS*%
X119483002Y-97286000D02*
X118698000Y-97286000D01*
X104570000Y-97286000D02*
X119483002Y-97286000D01*
X121296018Y-97143982D02*
X121154000Y-97286000D01*
X121154000Y-97286000D02*
X119483002Y-97286000D01*
X131941982Y-97143982D02*
X134631018Y-97143982D01*
X131941982Y-97143982D02*
X132080000Y-97143982D01*
X121296018Y-97143982D02*
X131941982Y-97143982D01*
X135509000Y-96266000D02*
X136398000Y-96266000D01*
X134631018Y-97143982D02*
X135509000Y-96266000D01*
%TO.N,/D\u005CC*%
X104914000Y-96786000D02*
X118698000Y-96786000D01*
X104570000Y-96786000D02*
X104914000Y-96786000D01*
X120396000Y-96786000D02*
X120488028Y-96693972D01*
X118698000Y-96786000D02*
X120396000Y-96786000D01*
X120488028Y-96693972D02*
X131271028Y-96693972D01*
X135509000Y-93726000D02*
X136398000Y-93726000D01*
X131271028Y-96693972D02*
X132541028Y-96693972D01*
X132541028Y-96693972D02*
X135509000Y-93726000D01*
%TO.N,/RST*%
X118698000Y-96286000D02*
X104570000Y-96286000D01*
X119866982Y-96243963D02*
X119824945Y-96286000D01*
X118698000Y-96286000D02*
X119824945Y-96286000D01*
X119874935Y-96236010D02*
X119824945Y-96286000D01*
X136398000Y-91186000D02*
X135763000Y-91186000D01*
X135763000Y-91186000D02*
X130712990Y-96236010D01*
X130712990Y-96236010D02*
X129950990Y-96236010D01*
X129950990Y-96236010D02*
X119874935Y-96236010D01*
%TO.N,/BUSY*%
X104930000Y-95786000D02*
X118698000Y-95786000D01*
X104570000Y-95786000D02*
X104930000Y-95786000D01*
X119519500Y-95786000D02*
X119544500Y-95761000D01*
X136398000Y-88646000D02*
X129307990Y-95736010D01*
X119569490Y-95736010D02*
X119519500Y-95786000D01*
X129307990Y-95736010D02*
X119569490Y-95736010D01*
X118773000Y-95786000D02*
X119519500Y-95786000D01*
X118698000Y-95786000D02*
X118773000Y-95786000D01*
%TO.N,/BS1*%
X118698000Y-95286000D02*
X104570000Y-95286000D01*
X119670000Y-95286000D02*
X119598000Y-95286000D01*
X119598000Y-95286000D02*
X118698000Y-95286000D01*
X119598000Y-95286000D02*
X128202000Y-95286000D01*
X129254000Y-94234000D02*
X128202000Y-95286000D01*
X129254000Y-92837000D02*
X129254000Y-94234000D01*
X129254000Y-92837000D02*
X129254000Y-90424000D01*
%TO.N,/GDR*%
X107866000Y-92286000D02*
X108204000Y-91948000D01*
X104570000Y-92286000D02*
X107866000Y-92286000D01*
X108421001Y-91730999D02*
X108204000Y-91948000D01*
X116670000Y-92286000D02*
X118698000Y-92286000D01*
X108204000Y-91948000D02*
X108712000Y-91440000D01*
X111252000Y-91948000D02*
X116332000Y-91948000D01*
X110744000Y-91440000D02*
X111252000Y-91948000D01*
X108712000Y-91440000D02*
X110744000Y-91440000D01*
X116332000Y-91948000D02*
X116670000Y-92286000D01*
%TO.N,/RESE*%
X104570000Y-92786000D02*
X104978000Y-92786000D01*
X110236000Y-92608000D02*
X110058000Y-92786000D01*
X104978000Y-92786000D02*
X110058000Y-92786000D01*
X110236000Y-92456000D02*
X110236000Y-92608000D01*
X110058000Y-92786000D02*
X118698000Y-92786000D01*
%TO.N,Net-(J5-Pad6)*%
X104850000Y-94286000D02*
X118698000Y-94286000D01*
X104570000Y-94286000D02*
X104850000Y-94286000D01*
X103303000Y-94286000D02*
X101981000Y-92964000D01*
X103303000Y-94286000D02*
X104570000Y-94286000D01*
%TO.N,Net-(J5-Pad7)*%
X104946000Y-94786000D02*
X118698000Y-94786000D01*
X104570000Y-94786000D02*
X104946000Y-94786000D01*
X103207000Y-94786000D02*
X101981000Y-96012000D01*
X103969000Y-94786000D02*
X104570000Y-94786000D01*
X103207000Y-94786000D02*
X103969000Y-94786000D01*
%TD*%
D24*
%TO.N,GND*%
G36*
X135681509Y-83316962D02*
G01*
X136091775Y-83440828D01*
X136470169Y-83642023D01*
X136802279Y-83912886D01*
X137075447Y-84243090D01*
X137279279Y-84620069D01*
X137406007Y-85029462D01*
X137452501Y-85471816D01*
X137452501Y-88140966D01*
X137432625Y-88092981D01*
X137304856Y-87901762D01*
X137142238Y-87739144D01*
X136951019Y-87611375D01*
X136738547Y-87523366D01*
X136512989Y-87478500D01*
X136283011Y-87478500D01*
X136057453Y-87523366D01*
X135844981Y-87611375D01*
X135653762Y-87739144D01*
X135491144Y-87901762D01*
X135363375Y-88092981D01*
X135275366Y-88305453D01*
X135230500Y-88531011D01*
X135230500Y-88760989D01*
X135275366Y-88986547D01*
X135321145Y-89097066D01*
X129124701Y-95293510D01*
X128820279Y-95293510D01*
X129551525Y-94562265D01*
X129568409Y-94548409D01*
X129623705Y-94481029D01*
X129664795Y-94404157D01*
X129690097Y-94320745D01*
X129696500Y-94255737D01*
X129698641Y-94234000D01*
X129696500Y-94212263D01*
X129696500Y-91314985D01*
X129724125Y-91303542D01*
X129886682Y-91194925D01*
X129982607Y-91099000D01*
X130259964Y-91099000D01*
X130266094Y-91161241D01*
X130284249Y-91221090D01*
X130313731Y-91276247D01*
X130353407Y-91324593D01*
X130401753Y-91364269D01*
X130456910Y-91393751D01*
X130516759Y-91411906D01*
X130579000Y-91418036D01*
X130984125Y-91416500D01*
X131063500Y-91337125D01*
X131063500Y-90614500D01*
X131444500Y-90614500D01*
X131444500Y-91337125D01*
X131523875Y-91416500D01*
X131929000Y-91418036D01*
X131991241Y-91411906D01*
X132051090Y-91393751D01*
X132106247Y-91364269D01*
X132154593Y-91324593D01*
X132194269Y-91276247D01*
X132223751Y-91221090D01*
X132241906Y-91161241D01*
X132248036Y-91099000D01*
X132246500Y-90693875D01*
X132167125Y-90614500D01*
X131444500Y-90614500D01*
X131063500Y-90614500D01*
X130340875Y-90614500D01*
X130261500Y-90693875D01*
X130259964Y-91099000D01*
X129982607Y-91099000D01*
X130024925Y-91056682D01*
X130133542Y-90894125D01*
X130208359Y-90713501D01*
X130246500Y-90521753D01*
X130246500Y-90326247D01*
X130208359Y-90134499D01*
X130133542Y-89953875D01*
X130024925Y-89791318D01*
X129982607Y-89749000D01*
X130259964Y-89749000D01*
X130261500Y-90154125D01*
X130340875Y-90233500D01*
X131063500Y-90233500D01*
X131063500Y-89510875D01*
X131444500Y-89510875D01*
X131444500Y-90233500D01*
X132167125Y-90233500D01*
X132246500Y-90154125D01*
X132248036Y-89749000D01*
X132241906Y-89686759D01*
X132223751Y-89626910D01*
X132194269Y-89571753D01*
X132154593Y-89523407D01*
X132106247Y-89483731D01*
X132051090Y-89454249D01*
X131991241Y-89436094D01*
X131929000Y-89429964D01*
X131523875Y-89431500D01*
X131444500Y-89510875D01*
X131063500Y-89510875D01*
X130984125Y-89431500D01*
X130579000Y-89429964D01*
X130516759Y-89436094D01*
X130456910Y-89454249D01*
X130401753Y-89483731D01*
X130353407Y-89523407D01*
X130313731Y-89571753D01*
X130284249Y-89626910D01*
X130266094Y-89686759D01*
X130259964Y-89749000D01*
X129982607Y-89749000D01*
X129886682Y-89653075D01*
X129724125Y-89544458D01*
X129543501Y-89469641D01*
X129351753Y-89431500D01*
X129156247Y-89431500D01*
X128964499Y-89469641D01*
X128783875Y-89544458D01*
X128621318Y-89653075D01*
X128483075Y-89791318D01*
X128374458Y-89953875D01*
X128299641Y-90134499D01*
X128261500Y-90326247D01*
X128261500Y-90521753D01*
X128299641Y-90713501D01*
X128374458Y-90894125D01*
X128483075Y-91056682D01*
X128621318Y-91194925D01*
X128783875Y-91303542D01*
X128811501Y-91314985D01*
X128811500Y-92815263D01*
X128811500Y-92815264D01*
X128811501Y-94050709D01*
X128018711Y-94843500D01*
X119567036Y-94843500D01*
X119567036Y-94636000D01*
X119560906Y-94573759D01*
X119549452Y-94536000D01*
X119560906Y-94498241D01*
X119567036Y-94436000D01*
X119567036Y-94228500D01*
X122601047Y-94228500D01*
X122610658Y-94326075D01*
X122642328Y-94430477D01*
X122693757Y-94526695D01*
X122762970Y-94611030D01*
X122847305Y-94680243D01*
X122943523Y-94731672D01*
X123047925Y-94763342D01*
X123156500Y-94774036D01*
X123731500Y-94774036D01*
X123840075Y-94763342D01*
X123944477Y-94731672D01*
X124040695Y-94680243D01*
X124125030Y-94611030D01*
X124194243Y-94526695D01*
X124232564Y-94455000D01*
X124349964Y-94455000D01*
X124356094Y-94517241D01*
X124374249Y-94577090D01*
X124403731Y-94632247D01*
X124443407Y-94680593D01*
X124491753Y-94720269D01*
X124546910Y-94749751D01*
X124606759Y-94767906D01*
X124669000Y-94774036D01*
X124924125Y-94772500D01*
X125003500Y-94693125D01*
X125003500Y-94170500D01*
X125384500Y-94170500D01*
X125384500Y-94693125D01*
X125463875Y-94772500D01*
X125719000Y-94774036D01*
X125781241Y-94767906D01*
X125841090Y-94749751D01*
X125896247Y-94720269D01*
X125944593Y-94680593D01*
X125984269Y-94632247D01*
X126013751Y-94577090D01*
X126031906Y-94517241D01*
X126038036Y-94455000D01*
X126036500Y-94249875D01*
X125957125Y-94170500D01*
X125384500Y-94170500D01*
X125003500Y-94170500D01*
X124430875Y-94170500D01*
X124351500Y-94249875D01*
X124349964Y-94455000D01*
X124232564Y-94455000D01*
X124245672Y-94430477D01*
X124277342Y-94326075D01*
X124288036Y-94217500D01*
X124288036Y-93742500D01*
X124277342Y-93633925D01*
X124245672Y-93529523D01*
X124232565Y-93505000D01*
X124349964Y-93505000D01*
X124351500Y-93710125D01*
X124430875Y-93789500D01*
X125003500Y-93789500D01*
X125003500Y-93266875D01*
X125384500Y-93266875D01*
X125384500Y-93789500D01*
X125957125Y-93789500D01*
X126036500Y-93710125D01*
X126038036Y-93505000D01*
X126031906Y-93442759D01*
X126013751Y-93382910D01*
X125984269Y-93327753D01*
X125944593Y-93279407D01*
X125896247Y-93239731D01*
X125841090Y-93210249D01*
X125781241Y-93192094D01*
X125719000Y-93185964D01*
X125463875Y-93187500D01*
X125384500Y-93266875D01*
X125003500Y-93266875D01*
X124924125Y-93187500D01*
X124669000Y-93185964D01*
X124606759Y-93192094D01*
X124546910Y-93210249D01*
X124491753Y-93239731D01*
X124443407Y-93279407D01*
X124403731Y-93327753D01*
X124374249Y-93382910D01*
X124356094Y-93442759D01*
X124349964Y-93505000D01*
X124232565Y-93505000D01*
X124194243Y-93433305D01*
X124125030Y-93348970D01*
X124040695Y-93279757D01*
X123944477Y-93228328D01*
X123840075Y-93196658D01*
X123731500Y-93185964D01*
X123156500Y-93185964D01*
X123047925Y-93196658D01*
X122943523Y-93228328D01*
X122847305Y-93279757D01*
X122769635Y-93343500D01*
X122674289Y-93343500D01*
X123275754Y-92742036D01*
X123731500Y-92742036D01*
X123840075Y-92731342D01*
X123944477Y-92699672D01*
X124040695Y-92648243D01*
X124125030Y-92579030D01*
X124194243Y-92494695D01*
X124232564Y-92423000D01*
X124349964Y-92423000D01*
X124356094Y-92485241D01*
X124374249Y-92545090D01*
X124403731Y-92600247D01*
X124443407Y-92648593D01*
X124491753Y-92688269D01*
X124546910Y-92717751D01*
X124606759Y-92735906D01*
X124669000Y-92742036D01*
X124924125Y-92740500D01*
X125003500Y-92661125D01*
X125003500Y-92138500D01*
X125384500Y-92138500D01*
X125384500Y-92661125D01*
X125463875Y-92740500D01*
X125719000Y-92742036D01*
X125781241Y-92735906D01*
X125841090Y-92717751D01*
X125896247Y-92688269D01*
X125944593Y-92648593D01*
X125984269Y-92600247D01*
X126013751Y-92545090D01*
X126031906Y-92485241D01*
X126038036Y-92423000D01*
X126036500Y-92217875D01*
X125957125Y-92138500D01*
X125384500Y-92138500D01*
X125003500Y-92138500D01*
X124430875Y-92138500D01*
X124351500Y-92217875D01*
X124349964Y-92423000D01*
X124232564Y-92423000D01*
X124245672Y-92398477D01*
X124277342Y-92294075D01*
X124288036Y-92185500D01*
X124288036Y-91710500D01*
X124277342Y-91601925D01*
X124245672Y-91497523D01*
X124232565Y-91473000D01*
X124349964Y-91473000D01*
X124351500Y-91678125D01*
X124430875Y-91757500D01*
X125003500Y-91757500D01*
X125003500Y-91234875D01*
X125384500Y-91234875D01*
X125384500Y-91757500D01*
X125957125Y-91757500D01*
X126036500Y-91678125D01*
X126038036Y-91473000D01*
X126031906Y-91410759D01*
X126013751Y-91350910D01*
X125984269Y-91295753D01*
X125944593Y-91247407D01*
X125896247Y-91207731D01*
X125841090Y-91178249D01*
X125781241Y-91160094D01*
X125719000Y-91153964D01*
X125463875Y-91155500D01*
X125384500Y-91234875D01*
X125003500Y-91234875D01*
X124924125Y-91155500D01*
X124669000Y-91153964D01*
X124606759Y-91160094D01*
X124546910Y-91178249D01*
X124491753Y-91207731D01*
X124443407Y-91247407D01*
X124403731Y-91295753D01*
X124374249Y-91350910D01*
X124356094Y-91410759D01*
X124349964Y-91473000D01*
X124232565Y-91473000D01*
X124194243Y-91401305D01*
X124125030Y-91316970D01*
X124040695Y-91247757D01*
X123944477Y-91196328D01*
X123840075Y-91164658D01*
X123731500Y-91153964D01*
X123156500Y-91153964D01*
X123047925Y-91164658D01*
X122943523Y-91196328D01*
X122847305Y-91247757D01*
X122762970Y-91316970D01*
X122693757Y-91401305D01*
X122642328Y-91497523D01*
X122610658Y-91601925D01*
X122599964Y-91710500D01*
X122599964Y-92166246D01*
X121922711Y-92843500D01*
X119567036Y-92843500D01*
X119567036Y-92636000D01*
X119560906Y-92573759D01*
X119549452Y-92536000D01*
X119560906Y-92498241D01*
X119567036Y-92436000D01*
X119567036Y-92136000D01*
X119560906Y-92073759D01*
X119549452Y-92036000D01*
X119560906Y-91998241D01*
X119567036Y-91936000D01*
X119567036Y-91636000D01*
X119560906Y-91573759D01*
X119542751Y-91513910D01*
X119513269Y-91458753D01*
X119473593Y-91410407D01*
X119425247Y-91370731D01*
X119370090Y-91341249D01*
X119310241Y-91323094D01*
X119248000Y-91316964D01*
X118862017Y-91316964D01*
X118867036Y-91266000D01*
X118867036Y-89956717D01*
X121513691Y-89956717D01*
X121663103Y-90149888D01*
X121946418Y-90272656D01*
X122248240Y-90337793D01*
X122556970Y-90342795D01*
X122647831Y-90326247D01*
X126261500Y-90326247D01*
X126261500Y-90521753D01*
X126299641Y-90713501D01*
X126374458Y-90894125D01*
X126483075Y-91056682D01*
X126621318Y-91194925D01*
X126783875Y-91303542D01*
X126964499Y-91378359D01*
X127156247Y-91416500D01*
X127351753Y-91416500D01*
X127543501Y-91378359D01*
X127724125Y-91303542D01*
X127886682Y-91194925D01*
X128024925Y-91056682D01*
X128133542Y-90894125D01*
X128208359Y-90713501D01*
X128246500Y-90521753D01*
X128246500Y-90326247D01*
X128208359Y-90134499D01*
X128133542Y-89953875D01*
X128024925Y-89791318D01*
X127886682Y-89653075D01*
X127724125Y-89544458D01*
X127543501Y-89469641D01*
X127351753Y-89431500D01*
X127156247Y-89431500D01*
X126964499Y-89469641D01*
X126783875Y-89544458D01*
X126621318Y-89653075D01*
X126483075Y-89791318D01*
X126374458Y-89953875D01*
X126299641Y-90134499D01*
X126261500Y-90326247D01*
X122647831Y-90326247D01*
X122860743Y-90287471D01*
X123147886Y-90173946D01*
X123192897Y-90149888D01*
X123342309Y-89956717D01*
X122428000Y-89042408D01*
X121513691Y-89956717D01*
X118867036Y-89956717D01*
X118867036Y-88966000D01*
X118860906Y-88903759D01*
X118860364Y-88901970D01*
X120858205Y-88901970D01*
X120913529Y-89205743D01*
X121027054Y-89492886D01*
X121051112Y-89537897D01*
X121244283Y-89687309D01*
X122158592Y-88773000D01*
X122697408Y-88773000D01*
X123611717Y-89687309D01*
X123804888Y-89537897D01*
X123927656Y-89254582D01*
X123992793Y-88952760D01*
X123997795Y-88644030D01*
X123942471Y-88340257D01*
X123828946Y-88053114D01*
X123804888Y-88008103D01*
X123611717Y-87858691D01*
X122697408Y-88773000D01*
X122158592Y-88773000D01*
X121244283Y-87858691D01*
X121051112Y-88008103D01*
X120928344Y-88291418D01*
X120863207Y-88593240D01*
X120858205Y-88901970D01*
X118860364Y-88901970D01*
X118842751Y-88843910D01*
X118813269Y-88788753D01*
X118773593Y-88740407D01*
X118725247Y-88700731D01*
X118670090Y-88671249D01*
X118610241Y-88653094D01*
X118548000Y-88646964D01*
X115448000Y-88646964D01*
X115385759Y-88653094D01*
X115325910Y-88671249D01*
X115270753Y-88700731D01*
X115222407Y-88740407D01*
X115182731Y-88788753D01*
X115153249Y-88843910D01*
X115135094Y-88903759D01*
X115128964Y-88966000D01*
X115128964Y-91266000D01*
X115135094Y-91328241D01*
X115153249Y-91388090D01*
X115182731Y-91443247D01*
X115222407Y-91491593D01*
X115239353Y-91505500D01*
X111435289Y-91505500D01*
X111072270Y-91142481D01*
X111058409Y-91125591D01*
X110991029Y-91070295D01*
X110914157Y-91029205D01*
X110830745Y-91003903D01*
X110765737Y-90997500D01*
X110765734Y-90997500D01*
X110744000Y-90995359D01*
X110722266Y-90997500D01*
X108733733Y-90997500D01*
X108711999Y-90995359D01*
X108690265Y-90997500D01*
X108690263Y-90997500D01*
X108625255Y-91003903D01*
X108541843Y-91029205D01*
X108464971Y-91070295D01*
X108397591Y-91125591D01*
X108383730Y-91142481D01*
X108292220Y-91233991D01*
X108274668Y-91230500D01*
X108133332Y-91230500D01*
X107994713Y-91258073D01*
X107864136Y-91312159D01*
X107746620Y-91390681D01*
X107646681Y-91490620D01*
X107568159Y-91608136D01*
X107514073Y-91738713D01*
X107493230Y-91843500D01*
X105439036Y-91843500D01*
X105439036Y-91636000D01*
X105432906Y-91573759D01*
X105421452Y-91536000D01*
X105432906Y-91498241D01*
X105439036Y-91436000D01*
X105439036Y-91136000D01*
X105432906Y-91073759D01*
X105421452Y-91036000D01*
X105432906Y-90998241D01*
X105439036Y-90936000D01*
X105439036Y-90636000D01*
X105432906Y-90573759D01*
X105421452Y-90536000D01*
X105432906Y-90498241D01*
X105439036Y-90436000D01*
X105439036Y-90136000D01*
X105432906Y-90073759D01*
X105421452Y-90036000D01*
X105432906Y-89998241D01*
X105439036Y-89936000D01*
X105439036Y-89636000D01*
X105432906Y-89573759D01*
X105421452Y-89536000D01*
X105432906Y-89498241D01*
X105439036Y-89436000D01*
X105439036Y-89136000D01*
X105432906Y-89073759D01*
X105414751Y-89013910D01*
X105385269Y-88958753D01*
X105345593Y-88910407D01*
X105297247Y-88870731D01*
X105242090Y-88841249D01*
X105182241Y-88823094D01*
X105120000Y-88816964D01*
X104734017Y-88816964D01*
X104739036Y-88766000D01*
X104739036Y-87589283D01*
X121513691Y-87589283D01*
X122428000Y-88503592D01*
X123342309Y-87589283D01*
X123192897Y-87396112D01*
X122909582Y-87273344D01*
X122607760Y-87208207D01*
X122299030Y-87203205D01*
X121995257Y-87258529D01*
X121708114Y-87372054D01*
X121663103Y-87396112D01*
X121513691Y-87589283D01*
X104739036Y-87589283D01*
X104739036Y-86466000D01*
X104732906Y-86403759D01*
X104714751Y-86343910D01*
X104685269Y-86288753D01*
X104645593Y-86240407D01*
X104597247Y-86200731D01*
X104542090Y-86171249D01*
X104482241Y-86153094D01*
X104420000Y-86146964D01*
X101320000Y-86146964D01*
X101257759Y-86153094D01*
X101197910Y-86171249D01*
X101142753Y-86200731D01*
X101094407Y-86240407D01*
X101054731Y-86288753D01*
X101025249Y-86343910D01*
X101007094Y-86403759D01*
X101000964Y-86466000D01*
X101000964Y-88766000D01*
X101007094Y-88828241D01*
X101025249Y-88888090D01*
X101054731Y-88943247D01*
X101094407Y-88991593D01*
X101142753Y-89031269D01*
X101197910Y-89060751D01*
X101257759Y-89078906D01*
X101320000Y-89085036D01*
X103705983Y-89085036D01*
X103700964Y-89136000D01*
X103700964Y-89436000D01*
X103707094Y-89498241D01*
X103718548Y-89536000D01*
X103707094Y-89573759D01*
X103700964Y-89636000D01*
X103700964Y-89936000D01*
X103707094Y-89998241D01*
X103718548Y-90036000D01*
X103707094Y-90073759D01*
X103700964Y-90136000D01*
X103700964Y-90436000D01*
X103707094Y-90498241D01*
X103718548Y-90536000D01*
X103707094Y-90573759D01*
X103700964Y-90636000D01*
X103700964Y-90936000D01*
X103707094Y-90998241D01*
X103718548Y-91036000D01*
X103707094Y-91073759D01*
X103700964Y-91136000D01*
X103700964Y-91436000D01*
X103707094Y-91498241D01*
X103718548Y-91536000D01*
X103707094Y-91573759D01*
X103700964Y-91636000D01*
X103700964Y-91936000D01*
X103707094Y-91998241D01*
X103718548Y-92036000D01*
X103707094Y-92073759D01*
X103700964Y-92136000D01*
X103700964Y-92436000D01*
X103707094Y-92498241D01*
X103718548Y-92536000D01*
X103707094Y-92573759D01*
X103700964Y-92636000D01*
X103700964Y-92936000D01*
X103707094Y-92998241D01*
X103718548Y-93036000D01*
X103707094Y-93073759D01*
X103700964Y-93136000D01*
X103700964Y-93436000D01*
X103707094Y-93498241D01*
X103718548Y-93536000D01*
X103707094Y-93573759D01*
X103700964Y-93636000D01*
X103700964Y-93843500D01*
X103486289Y-93843500D01*
X102780052Y-93137263D01*
X102798500Y-93044517D01*
X102798500Y-92883483D01*
X102767084Y-92725544D01*
X102705460Y-92576768D01*
X102615994Y-92442874D01*
X102502126Y-92329006D01*
X102368232Y-92239540D01*
X102219456Y-92177916D01*
X102061517Y-92146500D01*
X101900483Y-92146500D01*
X101742544Y-92177916D01*
X101593768Y-92239540D01*
X101459874Y-92329006D01*
X101346006Y-92442874D01*
X101256540Y-92576768D01*
X101194916Y-92725544D01*
X101163500Y-92883483D01*
X101163500Y-93044517D01*
X101194916Y-93202456D01*
X101256540Y-93351232D01*
X101346006Y-93485126D01*
X101459874Y-93598994D01*
X101593768Y-93688460D01*
X101742544Y-93750084D01*
X101900483Y-93781500D01*
X102061517Y-93781500D01*
X102154263Y-93763052D01*
X102879164Y-94487953D01*
X102878735Y-94488475D01*
X102154262Y-95212948D01*
X102061517Y-95194500D01*
X101900483Y-95194500D01*
X101742544Y-95225916D01*
X101593768Y-95287540D01*
X101459874Y-95377006D01*
X101346006Y-95490874D01*
X101256540Y-95624768D01*
X101194916Y-95773544D01*
X101163500Y-95931483D01*
X101163500Y-96092517D01*
X101194916Y-96250456D01*
X101256540Y-96399232D01*
X101346006Y-96533126D01*
X101459874Y-96646994D01*
X101593768Y-96736460D01*
X101742544Y-96798084D01*
X101900483Y-96829500D01*
X102061517Y-96829500D01*
X102219456Y-96798084D01*
X102368232Y-96736460D01*
X102502126Y-96646994D01*
X102615994Y-96533126D01*
X102705460Y-96399232D01*
X102767084Y-96250456D01*
X102798500Y-96092517D01*
X102798500Y-95931483D01*
X102780052Y-95838738D01*
X103390290Y-95228500D01*
X103700964Y-95228500D01*
X103700964Y-95436000D01*
X103707094Y-95498241D01*
X103718548Y-95536000D01*
X103707094Y-95573759D01*
X103700964Y-95636000D01*
X103700964Y-95936000D01*
X103707094Y-95998241D01*
X103718548Y-96036000D01*
X103707094Y-96073759D01*
X103700964Y-96136000D01*
X103700964Y-96436000D01*
X103707094Y-96498241D01*
X103718548Y-96536000D01*
X103707094Y-96573759D01*
X103700964Y-96636000D01*
X103700964Y-96936000D01*
X103707094Y-96998241D01*
X103718548Y-97036000D01*
X103707094Y-97073759D01*
X103700964Y-97136000D01*
X103700964Y-97436000D01*
X103707094Y-97498241D01*
X103718548Y-97536000D01*
X103707094Y-97573759D01*
X103700964Y-97636000D01*
X103700964Y-97936000D01*
X103707094Y-97998241D01*
X103718548Y-98036000D01*
X103707094Y-98073759D01*
X103700964Y-98136000D01*
X103700964Y-98436000D01*
X103707094Y-98498241D01*
X103718548Y-98536000D01*
X103707094Y-98573759D01*
X103700964Y-98636000D01*
X103700964Y-98936000D01*
X103707094Y-98998241D01*
X103718548Y-99036000D01*
X103707094Y-99073759D01*
X103700964Y-99136000D01*
X103700964Y-99436000D01*
X103707094Y-99498241D01*
X103718585Y-99536122D01*
X103707811Y-99570259D01*
X103702500Y-99620125D01*
X103781875Y-99699500D01*
X103840597Y-99699500D01*
X103842753Y-99701269D01*
X103897910Y-99730751D01*
X103957759Y-99748906D01*
X104020000Y-99755036D01*
X104562629Y-99755036D01*
X104570000Y-99755762D01*
X104577371Y-99755036D01*
X105120000Y-99755036D01*
X105182241Y-99748906D01*
X105242090Y-99730751D01*
X105297247Y-99701269D01*
X105299403Y-99699500D01*
X105358125Y-99699500D01*
X105437500Y-99620125D01*
X105432189Y-99570259D01*
X105421415Y-99536122D01*
X105432906Y-99498241D01*
X105439036Y-99436000D01*
X105439036Y-99253500D01*
X117828964Y-99253500D01*
X117828964Y-99436000D01*
X117835094Y-99498241D01*
X117846585Y-99536122D01*
X117835811Y-99570259D01*
X117830500Y-99620125D01*
X117909875Y-99699500D01*
X117968597Y-99699500D01*
X117970753Y-99701269D01*
X118025910Y-99730751D01*
X118085759Y-99748906D01*
X118148000Y-99755036D01*
X118690629Y-99755036D01*
X118698000Y-99755762D01*
X118705371Y-99755036D01*
X119248000Y-99755036D01*
X119310241Y-99748906D01*
X119370090Y-99730751D01*
X119374301Y-99728500D01*
X120110738Y-99728500D01*
X120120681Y-99743380D01*
X120220620Y-99843319D01*
X120220891Y-99843500D01*
X119374301Y-99843500D01*
X119370090Y-99841249D01*
X119310241Y-99823094D01*
X119248000Y-99816964D01*
X118148000Y-99816964D01*
X118085759Y-99823094D01*
X118025910Y-99841249D01*
X118021699Y-99843500D01*
X105246301Y-99843500D01*
X105242090Y-99841249D01*
X105182241Y-99823094D01*
X105120000Y-99816964D01*
X104020000Y-99816964D01*
X103957759Y-99823094D01*
X103897910Y-99841249D01*
X103842753Y-99870731D01*
X103840597Y-99872500D01*
X103781875Y-99872500D01*
X103702500Y-99951875D01*
X103707811Y-100001741D01*
X103718585Y-100035878D01*
X103707094Y-100073759D01*
X103700964Y-100136000D01*
X103700964Y-100436000D01*
X103707094Y-100498241D01*
X103718548Y-100536000D01*
X103707094Y-100573759D01*
X103700964Y-100636000D01*
X103700964Y-100936000D01*
X103707094Y-100998241D01*
X103718548Y-101036000D01*
X103707094Y-101073759D01*
X103700964Y-101136000D01*
X103700964Y-101436000D01*
X103707094Y-101498241D01*
X103718548Y-101536000D01*
X103707094Y-101573759D01*
X103700964Y-101636000D01*
X103700964Y-101936000D01*
X103707094Y-101998241D01*
X103718548Y-102036000D01*
X103707094Y-102073759D01*
X103700964Y-102136000D01*
X103700964Y-102436000D01*
X103707094Y-102498241D01*
X103718548Y-102536000D01*
X103707094Y-102573759D01*
X103700964Y-102636000D01*
X103700964Y-102936000D01*
X103707094Y-102998241D01*
X103718548Y-103036000D01*
X103707094Y-103073759D01*
X103700964Y-103136000D01*
X103700964Y-103436000D01*
X103707094Y-103498241D01*
X103718548Y-103536000D01*
X103707094Y-103573759D01*
X103700964Y-103636000D01*
X103700964Y-103936000D01*
X103707094Y-103998241D01*
X103718548Y-104036000D01*
X103707094Y-104073759D01*
X103700964Y-104136000D01*
X103700964Y-104436000D01*
X103707094Y-104498241D01*
X103718548Y-104536000D01*
X103707094Y-104573759D01*
X103700964Y-104636000D01*
X103700964Y-104936000D01*
X103707094Y-104998241D01*
X103718548Y-105036000D01*
X103707094Y-105073759D01*
X103700964Y-105136000D01*
X103700964Y-105436000D01*
X103707094Y-105498241D01*
X103718548Y-105536000D01*
X103707094Y-105573759D01*
X103700964Y-105636000D01*
X103700964Y-105936000D01*
X103705983Y-105986964D01*
X101320000Y-105986964D01*
X101257759Y-105993094D01*
X101197910Y-106011249D01*
X101142753Y-106040731D01*
X101094407Y-106080407D01*
X101054731Y-106128753D01*
X101025249Y-106183910D01*
X101007094Y-106243759D01*
X101000964Y-106306000D01*
X101000964Y-108606000D01*
X101007094Y-108668241D01*
X101025249Y-108728090D01*
X101054731Y-108783247D01*
X101094407Y-108831593D01*
X101142753Y-108871269D01*
X101197910Y-108900751D01*
X101257759Y-108918906D01*
X101320000Y-108925036D01*
X104420000Y-108925036D01*
X104482241Y-108918906D01*
X104542090Y-108900751D01*
X104597247Y-108871269D01*
X104645593Y-108831593D01*
X104685269Y-108783247D01*
X104714751Y-108728090D01*
X104732906Y-108668241D01*
X104739036Y-108606000D01*
X104739036Y-106306000D01*
X104734017Y-106255036D01*
X105120000Y-106255036D01*
X105182241Y-106248906D01*
X105242090Y-106230751D01*
X105297247Y-106201269D01*
X105345593Y-106161593D01*
X105385269Y-106113247D01*
X105414751Y-106058090D01*
X105432906Y-105998241D01*
X105439036Y-105936000D01*
X105439036Y-105636000D01*
X105432906Y-105573759D01*
X105421452Y-105536000D01*
X105432906Y-105498241D01*
X105439036Y-105436000D01*
X105439036Y-105136000D01*
X105432906Y-105073759D01*
X105421452Y-105036000D01*
X105432906Y-104998241D01*
X105439036Y-104936000D01*
X105439036Y-104636000D01*
X105432906Y-104573759D01*
X105421452Y-104536000D01*
X105432906Y-104498241D01*
X105439036Y-104436000D01*
X105439036Y-104136000D01*
X105432906Y-104073759D01*
X105421452Y-104036000D01*
X105432906Y-103998241D01*
X105439036Y-103936000D01*
X105439036Y-103728500D01*
X106912711Y-103728500D01*
X108015744Y-104831534D01*
X108029601Y-104848419D01*
X108046485Y-104862275D01*
X108096981Y-104903715D01*
X108173853Y-104944805D01*
X108257265Y-104970107D01*
X108344010Y-104978651D01*
X108365747Y-104976510D01*
X110181964Y-104976510D01*
X110181964Y-105393500D01*
X110192658Y-105502075D01*
X110224328Y-105606477D01*
X110275757Y-105702695D01*
X110344970Y-105787030D01*
X110429305Y-105856243D01*
X110525523Y-105907672D01*
X110629925Y-105939342D01*
X110738500Y-105950036D01*
X111313500Y-105950036D01*
X111422075Y-105939342D01*
X111526477Y-105907672D01*
X111622695Y-105856243D01*
X111707030Y-105787030D01*
X111776243Y-105702695D01*
X111814564Y-105631000D01*
X111931964Y-105631000D01*
X111938094Y-105693241D01*
X111956249Y-105753090D01*
X111985731Y-105808247D01*
X112025407Y-105856593D01*
X112073753Y-105896269D01*
X112128910Y-105925751D01*
X112188759Y-105943906D01*
X112251000Y-105950036D01*
X112506125Y-105948500D01*
X112585500Y-105869125D01*
X112585500Y-105346500D01*
X112966500Y-105346500D01*
X112966500Y-105869125D01*
X113045875Y-105948500D01*
X113301000Y-105950036D01*
X113363241Y-105943906D01*
X113423090Y-105925751D01*
X113478247Y-105896269D01*
X113526593Y-105856593D01*
X113566269Y-105808247D01*
X113595751Y-105753090D01*
X113613906Y-105693241D01*
X113620036Y-105631000D01*
X113618500Y-105425875D01*
X113539125Y-105346500D01*
X112966500Y-105346500D01*
X112585500Y-105346500D01*
X112012875Y-105346500D01*
X111933500Y-105425875D01*
X111931964Y-105631000D01*
X111814564Y-105631000D01*
X111827672Y-105606477D01*
X111859342Y-105502075D01*
X111870036Y-105393500D01*
X111870036Y-104978262D01*
X111873990Y-104978651D01*
X111895724Y-104976510D01*
X111895727Y-104976510D01*
X111960735Y-104970107D01*
X112004275Y-104956900D01*
X112012875Y-104965500D01*
X112585500Y-104965500D01*
X112585500Y-104448289D01*
X112590914Y-104442875D01*
X112966500Y-104442875D01*
X112966500Y-104965500D01*
X113539125Y-104965500D01*
X113618500Y-104886125D01*
X113620036Y-104681000D01*
X113613906Y-104618759D01*
X113595751Y-104558910D01*
X113566269Y-104503753D01*
X113526593Y-104455407D01*
X113478247Y-104415731D01*
X113423090Y-104386249D01*
X113363241Y-104368094D01*
X113301000Y-104361964D01*
X113045875Y-104363500D01*
X112966500Y-104442875D01*
X112590914Y-104442875D01*
X113305290Y-103728500D01*
X115139723Y-103728500D01*
X115135094Y-103743759D01*
X115128964Y-103806000D01*
X115128964Y-106106000D01*
X115135094Y-106168241D01*
X115153249Y-106228090D01*
X115182731Y-106283247D01*
X115222407Y-106331593D01*
X115270753Y-106371269D01*
X115325910Y-106400751D01*
X115385759Y-106418906D01*
X115448000Y-106425036D01*
X118548000Y-106425036D01*
X118610241Y-106418906D01*
X118670090Y-106400751D01*
X118725247Y-106371269D01*
X118773593Y-106331593D01*
X118813269Y-106283247D01*
X118842751Y-106228090D01*
X118860906Y-106168241D01*
X118867036Y-106106000D01*
X118867036Y-103806000D01*
X118862017Y-103755036D01*
X119130501Y-103755036D01*
X119130501Y-104819266D01*
X119128360Y-104841001D01*
X119130501Y-104862735D01*
X119130501Y-104862737D01*
X119136904Y-104927745D01*
X119156966Y-104993881D01*
X119162206Y-105011157D01*
X119203296Y-105088030D01*
X119223991Y-105113247D01*
X119258592Y-105155410D01*
X119275482Y-105169271D01*
X121591735Y-107485525D01*
X121605591Y-107502409D01*
X121622475Y-107516265D01*
X121672970Y-107557705D01*
X121749843Y-107598795D01*
X121833255Y-107624097D01*
X121898263Y-107630500D01*
X121898266Y-107630500D01*
X121920000Y-107632641D01*
X121941734Y-107630500D01*
X122639908Y-107630500D01*
X122642328Y-107638477D01*
X122693757Y-107734695D01*
X122762970Y-107819030D01*
X122847305Y-107888243D01*
X122943523Y-107939672D01*
X123047925Y-107971342D01*
X123156500Y-107982036D01*
X123731500Y-107982036D01*
X123840075Y-107971342D01*
X123944477Y-107939672D01*
X124040695Y-107888243D01*
X124125030Y-107819030D01*
X124194243Y-107734695D01*
X124232564Y-107663000D01*
X124349964Y-107663000D01*
X124356094Y-107725241D01*
X124374249Y-107785090D01*
X124403731Y-107840247D01*
X124443407Y-107888593D01*
X124491753Y-107928269D01*
X124546910Y-107957751D01*
X124606759Y-107975906D01*
X124669000Y-107982036D01*
X124924125Y-107980500D01*
X125003500Y-107901125D01*
X125003500Y-107378500D01*
X125384500Y-107378500D01*
X125384500Y-107901125D01*
X125463875Y-107980500D01*
X125719000Y-107982036D01*
X125781241Y-107975906D01*
X125841090Y-107957751D01*
X125896247Y-107928269D01*
X125944593Y-107888593D01*
X125984269Y-107840247D01*
X126013751Y-107785090D01*
X126031906Y-107725241D01*
X126038036Y-107663000D01*
X126036500Y-107457875D01*
X125957125Y-107378500D01*
X125384500Y-107378500D01*
X125003500Y-107378500D01*
X124430875Y-107378500D01*
X124351500Y-107457875D01*
X124349964Y-107663000D01*
X124232564Y-107663000D01*
X124245672Y-107638477D01*
X124277342Y-107534075D01*
X124288036Y-107425500D01*
X124288036Y-106950500D01*
X124277342Y-106841925D01*
X124245672Y-106737523D01*
X124232565Y-106713000D01*
X124349964Y-106713000D01*
X124351500Y-106918125D01*
X124430875Y-106997500D01*
X125003500Y-106997500D01*
X125003500Y-106474875D01*
X125384500Y-106474875D01*
X125384500Y-106997500D01*
X125957125Y-106997500D01*
X126036500Y-106918125D01*
X126038036Y-106713000D01*
X126031906Y-106650759D01*
X126013751Y-106590910D01*
X125984269Y-106535753D01*
X125944593Y-106487407D01*
X125896247Y-106447731D01*
X125841090Y-106418249D01*
X125781241Y-106400094D01*
X125719000Y-106393964D01*
X125463875Y-106395500D01*
X125384500Y-106474875D01*
X125003500Y-106474875D01*
X124924125Y-106395500D01*
X124669000Y-106393964D01*
X124606759Y-106400094D01*
X124546910Y-106418249D01*
X124491753Y-106447731D01*
X124443407Y-106487407D01*
X124403731Y-106535753D01*
X124374249Y-106590910D01*
X124356094Y-106650759D01*
X124349964Y-106713000D01*
X124232565Y-106713000D01*
X124194243Y-106641305D01*
X124125030Y-106556970D01*
X124040695Y-106487757D01*
X123944477Y-106436328D01*
X123840075Y-106404658D01*
X123731500Y-106393964D01*
X123156500Y-106393964D01*
X123047925Y-106404658D01*
X122943523Y-106436328D01*
X122847305Y-106487757D01*
X122762970Y-106556970D01*
X122693757Y-106641305D01*
X122642328Y-106737523D01*
X122639908Y-106745500D01*
X122103290Y-106745500D01*
X120015501Y-104657712D01*
X120015501Y-103973872D01*
X120092681Y-104089380D01*
X120192620Y-104189319D01*
X120310136Y-104267841D01*
X120440713Y-104321927D01*
X120579332Y-104349500D01*
X120720668Y-104349500D01*
X120859287Y-104321927D01*
X120989864Y-104267841D01*
X121107380Y-104189319D01*
X121207319Y-104089380D01*
X121285841Y-103971864D01*
X121339927Y-103841287D01*
X121367500Y-103702668D01*
X121367500Y-103561332D01*
X121339927Y-103422713D01*
X121298211Y-103322001D01*
X121832500Y-103856290D01*
X121832500Y-103965266D01*
X121830359Y-103987000D01*
X121832500Y-104008734D01*
X121832500Y-104008737D01*
X121838903Y-104073745D01*
X121846235Y-104097914D01*
X121864205Y-104157156D01*
X121905295Y-104234029D01*
X121933044Y-104267841D01*
X121960592Y-104301409D01*
X121977476Y-104315265D01*
X122599964Y-104937754D01*
X122599964Y-105393500D01*
X122610658Y-105502075D01*
X122642328Y-105606477D01*
X122693757Y-105702695D01*
X122762970Y-105787030D01*
X122847305Y-105856243D01*
X122943523Y-105907672D01*
X123047925Y-105939342D01*
X123156500Y-105950036D01*
X123731500Y-105950036D01*
X123840075Y-105939342D01*
X123944477Y-105907672D01*
X124040695Y-105856243D01*
X124125030Y-105787030D01*
X124194243Y-105702695D01*
X124232564Y-105631000D01*
X124349964Y-105631000D01*
X124356094Y-105693241D01*
X124374249Y-105753090D01*
X124403731Y-105808247D01*
X124443407Y-105856593D01*
X124491753Y-105896269D01*
X124546910Y-105925751D01*
X124606759Y-105943906D01*
X124669000Y-105950036D01*
X124924125Y-105948500D01*
X125003500Y-105869125D01*
X125003500Y-105346500D01*
X125384500Y-105346500D01*
X125384500Y-105869125D01*
X125463875Y-105948500D01*
X125719000Y-105950036D01*
X125781241Y-105943906D01*
X125841090Y-105925751D01*
X125896247Y-105896269D01*
X125944593Y-105856593D01*
X125984269Y-105808247D01*
X126013751Y-105753090D01*
X126031906Y-105693241D01*
X126038036Y-105631000D01*
X126036500Y-105425875D01*
X125957125Y-105346500D01*
X125384500Y-105346500D01*
X125003500Y-105346500D01*
X124430875Y-105346500D01*
X124351500Y-105425875D01*
X124349964Y-105631000D01*
X124232564Y-105631000D01*
X124245672Y-105606477D01*
X124277342Y-105502075D01*
X124288036Y-105393500D01*
X124288036Y-104918500D01*
X124277342Y-104809925D01*
X124245672Y-104705523D01*
X124232565Y-104681000D01*
X124349964Y-104681000D01*
X124351500Y-104886125D01*
X124430875Y-104965500D01*
X125003500Y-104965500D01*
X125003500Y-104442875D01*
X125384500Y-104442875D01*
X125384500Y-104965500D01*
X125957125Y-104965500D01*
X126036500Y-104886125D01*
X126038036Y-104681000D01*
X126031906Y-104618759D01*
X126013751Y-104558910D01*
X125984269Y-104503753D01*
X125944593Y-104455407D01*
X125896247Y-104415731D01*
X125841090Y-104386249D01*
X125781241Y-104368094D01*
X125719000Y-104361964D01*
X125463875Y-104363500D01*
X125384500Y-104442875D01*
X125003500Y-104442875D01*
X124924125Y-104363500D01*
X124669000Y-104361964D01*
X124606759Y-104368094D01*
X124546910Y-104386249D01*
X124491753Y-104415731D01*
X124443407Y-104455407D01*
X124403731Y-104503753D01*
X124374249Y-104558910D01*
X124356094Y-104618759D01*
X124349964Y-104681000D01*
X124232565Y-104681000D01*
X124194243Y-104609305D01*
X124125030Y-104524970D01*
X124040695Y-104455757D01*
X123944477Y-104404328D01*
X123840075Y-104372658D01*
X123731500Y-104361964D01*
X123275754Y-104361964D01*
X122886790Y-103973000D01*
X127021964Y-103973000D01*
X127021964Y-105323000D01*
X127028094Y-105385241D01*
X127046249Y-105445090D01*
X127075731Y-105500247D01*
X127115407Y-105548593D01*
X127163753Y-105588269D01*
X127218910Y-105617751D01*
X127278759Y-105635906D01*
X127341000Y-105642036D01*
X128691000Y-105642036D01*
X128753241Y-105635906D01*
X128813090Y-105617751D01*
X128868247Y-105588269D01*
X128916593Y-105548593D01*
X128956269Y-105500247D01*
X128985751Y-105445090D01*
X129003906Y-105385241D01*
X129010036Y-105323000D01*
X129010036Y-103973000D01*
X129003906Y-103910759D01*
X128985751Y-103850910D01*
X128956269Y-103795753D01*
X128916593Y-103747407D01*
X128868247Y-103707731D01*
X128813090Y-103678249D01*
X128753241Y-103660094D01*
X128691000Y-103653964D01*
X127341000Y-103653964D01*
X127278759Y-103660094D01*
X127218910Y-103678249D01*
X127163753Y-103707731D01*
X127115407Y-103747407D01*
X127075731Y-103795753D01*
X127046249Y-103850910D01*
X127028094Y-103910759D01*
X127021964Y-103973000D01*
X122886790Y-103973000D01*
X122717500Y-103803711D01*
X122717500Y-103699625D01*
X122762970Y-103755030D01*
X122847305Y-103824243D01*
X122943523Y-103875672D01*
X123047925Y-103907342D01*
X123156500Y-103918036D01*
X123731500Y-103918036D01*
X123840075Y-103907342D01*
X123944477Y-103875672D01*
X124040695Y-103824243D01*
X124125030Y-103755030D01*
X124194243Y-103670695D01*
X124232564Y-103599000D01*
X124349964Y-103599000D01*
X124356094Y-103661241D01*
X124374249Y-103721090D01*
X124403731Y-103776247D01*
X124443407Y-103824593D01*
X124491753Y-103864269D01*
X124546910Y-103893751D01*
X124606759Y-103911906D01*
X124669000Y-103918036D01*
X124924125Y-103916500D01*
X125003500Y-103837125D01*
X125003500Y-103314500D01*
X125384500Y-103314500D01*
X125384500Y-103837125D01*
X125463875Y-103916500D01*
X125719000Y-103918036D01*
X125781241Y-103911906D01*
X125841090Y-103893751D01*
X125896247Y-103864269D01*
X125944593Y-103824593D01*
X125984269Y-103776247D01*
X126013751Y-103721090D01*
X126031906Y-103661241D01*
X126038036Y-103599000D01*
X126037427Y-103517656D01*
X135290129Y-103517656D01*
X135326680Y-103695500D01*
X136207500Y-103695500D01*
X136207500Y-102813512D01*
X136029654Y-102778119D01*
X135820595Y-102871267D01*
X135633725Y-103003411D01*
X135476226Y-103169472D01*
X135354150Y-103363069D01*
X135290129Y-103517656D01*
X126037427Y-103517656D01*
X126036500Y-103393875D01*
X125957125Y-103314500D01*
X125384500Y-103314500D01*
X125003500Y-103314500D01*
X124430875Y-103314500D01*
X124351500Y-103393875D01*
X124349964Y-103599000D01*
X124232564Y-103599000D01*
X124245672Y-103574477D01*
X124277342Y-103470075D01*
X124288036Y-103361500D01*
X124288036Y-102886500D01*
X124277342Y-102777925D01*
X124245672Y-102673523D01*
X124232565Y-102649000D01*
X124349964Y-102649000D01*
X124351500Y-102854125D01*
X124430875Y-102933500D01*
X125003500Y-102933500D01*
X125003500Y-102410875D01*
X125384500Y-102410875D01*
X125384500Y-102933500D01*
X125957125Y-102933500D01*
X126036500Y-102854125D01*
X126038036Y-102649000D01*
X126031906Y-102586759D01*
X126013751Y-102526910D01*
X125984269Y-102471753D01*
X125944593Y-102423407D01*
X125896247Y-102383731D01*
X125841090Y-102354249D01*
X125781241Y-102336094D01*
X125719000Y-102329964D01*
X125463875Y-102331500D01*
X125384500Y-102410875D01*
X125003500Y-102410875D01*
X124924125Y-102331500D01*
X124669000Y-102329964D01*
X124606759Y-102336094D01*
X124546910Y-102354249D01*
X124491753Y-102383731D01*
X124443407Y-102423407D01*
X124403731Y-102471753D01*
X124374249Y-102526910D01*
X124356094Y-102586759D01*
X124349964Y-102649000D01*
X124232565Y-102649000D01*
X124194243Y-102577305D01*
X124125030Y-102492970D01*
X124040695Y-102423757D01*
X123944477Y-102372328D01*
X123840075Y-102340658D01*
X123731500Y-102329964D01*
X123156500Y-102329964D01*
X123047925Y-102340658D01*
X122943523Y-102372328D01*
X122856586Y-102418797D01*
X121166289Y-100728500D01*
X122454711Y-100728500D01*
X122599964Y-100873753D01*
X122599964Y-101329500D01*
X122610658Y-101438075D01*
X122642328Y-101542477D01*
X122693757Y-101638695D01*
X122762970Y-101723030D01*
X122847305Y-101792243D01*
X122943523Y-101843672D01*
X123047925Y-101875342D01*
X123156500Y-101886036D01*
X123731500Y-101886036D01*
X123840075Y-101875342D01*
X123944477Y-101843672D01*
X124040695Y-101792243D01*
X124125030Y-101723030D01*
X124194243Y-101638695D01*
X124232564Y-101567000D01*
X124349964Y-101567000D01*
X124356094Y-101629241D01*
X124374249Y-101689090D01*
X124403731Y-101744247D01*
X124443407Y-101792593D01*
X124491753Y-101832269D01*
X124546910Y-101861751D01*
X124606759Y-101879906D01*
X124669000Y-101886036D01*
X124924125Y-101884500D01*
X125003500Y-101805125D01*
X125003500Y-101282500D01*
X125384500Y-101282500D01*
X125384500Y-101805125D01*
X125463875Y-101884500D01*
X125719000Y-101886036D01*
X125781241Y-101879906D01*
X125841090Y-101861751D01*
X125896247Y-101832269D01*
X125944593Y-101792593D01*
X125984269Y-101744247D01*
X126013751Y-101689090D01*
X126031906Y-101629241D01*
X126038036Y-101567000D01*
X126036500Y-101361875D01*
X125957125Y-101282500D01*
X125384500Y-101282500D01*
X125003500Y-101282500D01*
X124430875Y-101282500D01*
X124351500Y-101361875D01*
X124349964Y-101567000D01*
X124232564Y-101567000D01*
X124245672Y-101542477D01*
X124277342Y-101438075D01*
X124288036Y-101329500D01*
X124288036Y-100854500D01*
X124277342Y-100745925D01*
X124245672Y-100641523D01*
X124232565Y-100617000D01*
X124349964Y-100617000D01*
X124351500Y-100822125D01*
X124430875Y-100901500D01*
X125003500Y-100901500D01*
X125003500Y-100378875D01*
X125384500Y-100378875D01*
X125384500Y-100901500D01*
X125957125Y-100901500D01*
X126036500Y-100822125D01*
X126038036Y-100617000D01*
X126031906Y-100554759D01*
X126013751Y-100494910D01*
X125984269Y-100439753D01*
X125944593Y-100391407D01*
X125896247Y-100351731D01*
X125841090Y-100322249D01*
X125781241Y-100304094D01*
X125719000Y-100297964D01*
X125463875Y-100299500D01*
X125384500Y-100378875D01*
X125003500Y-100378875D01*
X124924125Y-100299500D01*
X124669000Y-100297964D01*
X124606759Y-100304094D01*
X124546910Y-100322249D01*
X124491753Y-100351731D01*
X124443407Y-100391407D01*
X124403731Y-100439753D01*
X124374249Y-100494910D01*
X124356094Y-100554759D01*
X124349964Y-100617000D01*
X124232565Y-100617000D01*
X124194243Y-100545305D01*
X124125030Y-100460970D01*
X124040695Y-100391757D01*
X123944477Y-100340328D01*
X123840075Y-100308658D01*
X123731500Y-100297964D01*
X123275753Y-100297964D01*
X122966269Y-99988480D01*
X122952409Y-99971591D01*
X122885029Y-99916295D01*
X122808157Y-99875205D01*
X122724745Y-99849903D01*
X122659737Y-99843500D01*
X122659734Y-99843500D01*
X122638000Y-99841359D01*
X122616266Y-99843500D01*
X122151109Y-99843500D01*
X122151380Y-99843319D01*
X122241199Y-99753500D01*
X122687035Y-99753500D01*
X122710000Y-99755762D01*
X122732965Y-99753500D01*
X122732967Y-99753500D01*
X122801646Y-99746736D01*
X122822966Y-99740268D01*
X122847305Y-99760243D01*
X122943523Y-99811672D01*
X123047925Y-99843342D01*
X123156500Y-99854036D01*
X123731500Y-99854036D01*
X123840075Y-99843342D01*
X123944477Y-99811672D01*
X124040695Y-99760243D01*
X124125030Y-99691030D01*
X124194243Y-99606695D01*
X124232564Y-99535000D01*
X124349964Y-99535000D01*
X124356094Y-99597241D01*
X124374249Y-99657090D01*
X124403731Y-99712247D01*
X124443407Y-99760593D01*
X124491753Y-99800269D01*
X124546910Y-99829751D01*
X124606759Y-99847906D01*
X124669000Y-99854036D01*
X124924125Y-99852500D01*
X125003500Y-99773125D01*
X125003500Y-99250500D01*
X125384500Y-99250500D01*
X125384500Y-99773125D01*
X125463875Y-99852500D01*
X125719000Y-99854036D01*
X125781241Y-99847906D01*
X125841090Y-99829751D01*
X125896247Y-99800269D01*
X125944593Y-99760593D01*
X125984269Y-99712247D01*
X126013751Y-99657090D01*
X126031906Y-99597241D01*
X126038036Y-99535000D01*
X126036500Y-99329875D01*
X125957125Y-99250500D01*
X125384500Y-99250500D01*
X125003500Y-99250500D01*
X124430875Y-99250500D01*
X124351500Y-99329875D01*
X124349964Y-99535000D01*
X124232564Y-99535000D01*
X124245672Y-99510477D01*
X124277342Y-99406075D01*
X124288036Y-99297500D01*
X124288036Y-98822500D01*
X124277342Y-98713925D01*
X124245672Y-98609523D01*
X124194243Y-98513305D01*
X124172244Y-98486500D01*
X124367093Y-98486500D01*
X124356094Y-98522759D01*
X124349964Y-98585000D01*
X124351500Y-98790125D01*
X124430875Y-98869500D01*
X125003500Y-98869500D01*
X125003500Y-98849500D01*
X125384500Y-98849500D01*
X125384500Y-98869500D01*
X125957125Y-98869500D01*
X126036500Y-98790125D01*
X126038036Y-98585000D01*
X126031906Y-98522759D01*
X126020907Y-98486500D01*
X131001711Y-98486500D01*
X134158735Y-101643525D01*
X134172591Y-101660409D01*
X134239971Y-101715705D01*
X134316843Y-101756795D01*
X134400255Y-101782097D01*
X134465263Y-101788500D01*
X134465265Y-101788500D01*
X134486999Y-101790641D01*
X134508733Y-101788500D01*
X135317596Y-101788500D01*
X135363375Y-101899019D01*
X135491144Y-102090238D01*
X135653762Y-102252856D01*
X135844981Y-102380625D01*
X136057453Y-102468634D01*
X136283011Y-102513500D01*
X136512989Y-102513500D01*
X136738547Y-102468634D01*
X136951019Y-102380625D01*
X137142238Y-102252856D01*
X137304856Y-102090238D01*
X137432625Y-101899019D01*
X137452500Y-101851036D01*
X137452500Y-103388785D01*
X137441850Y-103363069D01*
X137319774Y-103169472D01*
X137162275Y-103003411D01*
X136975405Y-102871267D01*
X136766346Y-102778119D01*
X136588500Y-102813512D01*
X136588500Y-103695500D01*
X136608500Y-103695500D01*
X136608500Y-104076500D01*
X136588500Y-104076500D01*
X136588500Y-104958488D01*
X136766346Y-104993881D01*
X136975405Y-104900733D01*
X137162275Y-104768589D01*
X137319774Y-104602528D01*
X137441850Y-104408931D01*
X137452500Y-104383215D01*
X137452500Y-105333097D01*
X137425247Y-105310731D01*
X137370090Y-105281249D01*
X137310241Y-105263094D01*
X137248000Y-105256964D01*
X135548000Y-105256964D01*
X135485759Y-105263094D01*
X135425910Y-105281249D01*
X135370753Y-105310731D01*
X135322407Y-105350407D01*
X135282731Y-105398753D01*
X135253249Y-105453910D01*
X135236689Y-105508500D01*
X132174041Y-105508500D01*
X130932401Y-104266861D01*
X130927217Y-104254344D01*
X135290129Y-104254344D01*
X135354150Y-104408931D01*
X135476226Y-104602528D01*
X135633725Y-104768589D01*
X135820595Y-104900733D01*
X136029654Y-104993881D01*
X136207500Y-104958488D01*
X136207500Y-104076500D01*
X135326680Y-104076500D01*
X135290129Y-104254344D01*
X130927217Y-104254344D01*
X130895542Y-104177875D01*
X130786925Y-104015318D01*
X130648682Y-103877075D01*
X130486125Y-103768458D01*
X130305501Y-103693641D01*
X130113753Y-103655500D01*
X129918247Y-103655500D01*
X129726499Y-103693641D01*
X129545875Y-103768458D01*
X129383318Y-103877075D01*
X129245075Y-104015318D01*
X129136458Y-104177875D01*
X129061641Y-104358499D01*
X129023500Y-104550247D01*
X129023500Y-104745753D01*
X129061641Y-104937501D01*
X129136458Y-105118125D01*
X129245075Y-105280682D01*
X129383318Y-105418925D01*
X129545875Y-105527542D01*
X129634861Y-105564401D01*
X131113363Y-107042904D01*
X131142091Y-107077909D01*
X131281798Y-107192564D01*
X131441189Y-107277761D01*
X131614139Y-107330224D01*
X131748931Y-107343500D01*
X131748938Y-107343500D01*
X131794000Y-107347938D01*
X131839062Y-107343500D01*
X135236689Y-107343500D01*
X135253249Y-107398090D01*
X135282731Y-107453247D01*
X135322407Y-107501593D01*
X135370753Y-107541269D01*
X135425910Y-107570751D01*
X135485759Y-107588906D01*
X135548000Y-107595036D01*
X137248000Y-107595036D01*
X137310241Y-107588906D01*
X137370090Y-107570751D01*
X137425247Y-107541269D01*
X137452500Y-107518903D01*
X137452500Y-109584253D01*
X137409038Y-110027508D01*
X137285172Y-110437775D01*
X137083974Y-110816173D01*
X136813117Y-111148276D01*
X136482910Y-111421447D01*
X136105929Y-111625280D01*
X135696539Y-111752007D01*
X135254190Y-111798500D01*
X103013747Y-111798500D01*
X102570492Y-111755038D01*
X102160225Y-111631172D01*
X101781827Y-111429974D01*
X101449724Y-111159117D01*
X101176553Y-110828910D01*
X100972720Y-110451929D01*
X100845993Y-110042539D01*
X100799500Y-109600190D01*
X100799500Y-85487747D01*
X100842962Y-85044491D01*
X100966828Y-84634225D01*
X101168023Y-84255831D01*
X101438886Y-83923721D01*
X101769090Y-83650553D01*
X102146069Y-83446721D01*
X102555462Y-83319993D01*
X102997810Y-83273500D01*
X135238253Y-83273500D01*
X135681509Y-83316962D01*
G37*
X135681509Y-83316962D02*
X136091775Y-83440828D01*
X136470169Y-83642023D01*
X136802279Y-83912886D01*
X137075447Y-84243090D01*
X137279279Y-84620069D01*
X137406007Y-85029462D01*
X137452501Y-85471816D01*
X137452501Y-88140966D01*
X137432625Y-88092981D01*
X137304856Y-87901762D01*
X137142238Y-87739144D01*
X136951019Y-87611375D01*
X136738547Y-87523366D01*
X136512989Y-87478500D01*
X136283011Y-87478500D01*
X136057453Y-87523366D01*
X135844981Y-87611375D01*
X135653762Y-87739144D01*
X135491144Y-87901762D01*
X135363375Y-88092981D01*
X135275366Y-88305453D01*
X135230500Y-88531011D01*
X135230500Y-88760989D01*
X135275366Y-88986547D01*
X135321145Y-89097066D01*
X129124701Y-95293510D01*
X128820279Y-95293510D01*
X129551525Y-94562265D01*
X129568409Y-94548409D01*
X129623705Y-94481029D01*
X129664795Y-94404157D01*
X129690097Y-94320745D01*
X129696500Y-94255737D01*
X129698641Y-94234000D01*
X129696500Y-94212263D01*
X129696500Y-91314985D01*
X129724125Y-91303542D01*
X129886682Y-91194925D01*
X129982607Y-91099000D01*
X130259964Y-91099000D01*
X130266094Y-91161241D01*
X130284249Y-91221090D01*
X130313731Y-91276247D01*
X130353407Y-91324593D01*
X130401753Y-91364269D01*
X130456910Y-91393751D01*
X130516759Y-91411906D01*
X130579000Y-91418036D01*
X130984125Y-91416500D01*
X131063500Y-91337125D01*
X131063500Y-90614500D01*
X131444500Y-90614500D01*
X131444500Y-91337125D01*
X131523875Y-91416500D01*
X131929000Y-91418036D01*
X131991241Y-91411906D01*
X132051090Y-91393751D01*
X132106247Y-91364269D01*
X132154593Y-91324593D01*
X132194269Y-91276247D01*
X132223751Y-91221090D01*
X132241906Y-91161241D01*
X132248036Y-91099000D01*
X132246500Y-90693875D01*
X132167125Y-90614500D01*
X131444500Y-90614500D01*
X131063500Y-90614500D01*
X130340875Y-90614500D01*
X130261500Y-90693875D01*
X130259964Y-91099000D01*
X129982607Y-91099000D01*
X130024925Y-91056682D01*
X130133542Y-90894125D01*
X130208359Y-90713501D01*
X130246500Y-90521753D01*
X130246500Y-90326247D01*
X130208359Y-90134499D01*
X130133542Y-89953875D01*
X130024925Y-89791318D01*
X129982607Y-89749000D01*
X130259964Y-89749000D01*
X130261500Y-90154125D01*
X130340875Y-90233500D01*
X131063500Y-90233500D01*
X131063500Y-89510875D01*
X131444500Y-89510875D01*
X131444500Y-90233500D01*
X132167125Y-90233500D01*
X132246500Y-90154125D01*
X132248036Y-89749000D01*
X132241906Y-89686759D01*
X132223751Y-89626910D01*
X132194269Y-89571753D01*
X132154593Y-89523407D01*
X132106247Y-89483731D01*
X132051090Y-89454249D01*
X131991241Y-89436094D01*
X131929000Y-89429964D01*
X131523875Y-89431500D01*
X131444500Y-89510875D01*
X131063500Y-89510875D01*
X130984125Y-89431500D01*
X130579000Y-89429964D01*
X130516759Y-89436094D01*
X130456910Y-89454249D01*
X130401753Y-89483731D01*
X130353407Y-89523407D01*
X130313731Y-89571753D01*
X130284249Y-89626910D01*
X130266094Y-89686759D01*
X130259964Y-89749000D01*
X129982607Y-89749000D01*
X129886682Y-89653075D01*
X129724125Y-89544458D01*
X129543501Y-89469641D01*
X129351753Y-89431500D01*
X129156247Y-89431500D01*
X128964499Y-89469641D01*
X128783875Y-89544458D01*
X128621318Y-89653075D01*
X128483075Y-89791318D01*
X128374458Y-89953875D01*
X128299641Y-90134499D01*
X128261500Y-90326247D01*
X128261500Y-90521753D01*
X128299641Y-90713501D01*
X128374458Y-90894125D01*
X128483075Y-91056682D01*
X128621318Y-91194925D01*
X128783875Y-91303542D01*
X128811501Y-91314985D01*
X128811500Y-92815263D01*
X128811500Y-92815264D01*
X128811501Y-94050709D01*
X128018711Y-94843500D01*
X119567036Y-94843500D01*
X119567036Y-94636000D01*
X119560906Y-94573759D01*
X119549452Y-94536000D01*
X119560906Y-94498241D01*
X119567036Y-94436000D01*
X119567036Y-94228500D01*
X122601047Y-94228500D01*
X122610658Y-94326075D01*
X122642328Y-94430477D01*
X122693757Y-94526695D01*
X122762970Y-94611030D01*
X122847305Y-94680243D01*
X122943523Y-94731672D01*
X123047925Y-94763342D01*
X123156500Y-94774036D01*
X123731500Y-94774036D01*
X123840075Y-94763342D01*
X123944477Y-94731672D01*
X124040695Y-94680243D01*
X124125030Y-94611030D01*
X124194243Y-94526695D01*
X124232564Y-94455000D01*
X124349964Y-94455000D01*
X124356094Y-94517241D01*
X124374249Y-94577090D01*
X124403731Y-94632247D01*
X124443407Y-94680593D01*
X124491753Y-94720269D01*
X124546910Y-94749751D01*
X124606759Y-94767906D01*
X124669000Y-94774036D01*
X124924125Y-94772500D01*
X125003500Y-94693125D01*
X125003500Y-94170500D01*
X125384500Y-94170500D01*
X125384500Y-94693125D01*
X125463875Y-94772500D01*
X125719000Y-94774036D01*
X125781241Y-94767906D01*
X125841090Y-94749751D01*
X125896247Y-94720269D01*
X125944593Y-94680593D01*
X125984269Y-94632247D01*
X126013751Y-94577090D01*
X126031906Y-94517241D01*
X126038036Y-94455000D01*
X126036500Y-94249875D01*
X125957125Y-94170500D01*
X125384500Y-94170500D01*
X125003500Y-94170500D01*
X124430875Y-94170500D01*
X124351500Y-94249875D01*
X124349964Y-94455000D01*
X124232564Y-94455000D01*
X124245672Y-94430477D01*
X124277342Y-94326075D01*
X124288036Y-94217500D01*
X124288036Y-93742500D01*
X124277342Y-93633925D01*
X124245672Y-93529523D01*
X124232565Y-93505000D01*
X124349964Y-93505000D01*
X124351500Y-93710125D01*
X124430875Y-93789500D01*
X125003500Y-93789500D01*
X125003500Y-93266875D01*
X125384500Y-93266875D01*
X125384500Y-93789500D01*
X125957125Y-93789500D01*
X126036500Y-93710125D01*
X126038036Y-93505000D01*
X126031906Y-93442759D01*
X126013751Y-93382910D01*
X125984269Y-93327753D01*
X125944593Y-93279407D01*
X125896247Y-93239731D01*
X125841090Y-93210249D01*
X125781241Y-93192094D01*
X125719000Y-93185964D01*
X125463875Y-93187500D01*
X125384500Y-93266875D01*
X125003500Y-93266875D01*
X124924125Y-93187500D01*
X124669000Y-93185964D01*
X124606759Y-93192094D01*
X124546910Y-93210249D01*
X124491753Y-93239731D01*
X124443407Y-93279407D01*
X124403731Y-93327753D01*
X124374249Y-93382910D01*
X124356094Y-93442759D01*
X124349964Y-93505000D01*
X124232565Y-93505000D01*
X124194243Y-93433305D01*
X124125030Y-93348970D01*
X124040695Y-93279757D01*
X123944477Y-93228328D01*
X123840075Y-93196658D01*
X123731500Y-93185964D01*
X123156500Y-93185964D01*
X123047925Y-93196658D01*
X122943523Y-93228328D01*
X122847305Y-93279757D01*
X122769635Y-93343500D01*
X122674289Y-93343500D01*
X123275754Y-92742036D01*
X123731500Y-92742036D01*
X123840075Y-92731342D01*
X123944477Y-92699672D01*
X124040695Y-92648243D01*
X124125030Y-92579030D01*
X124194243Y-92494695D01*
X124232564Y-92423000D01*
X124349964Y-92423000D01*
X124356094Y-92485241D01*
X124374249Y-92545090D01*
X124403731Y-92600247D01*
X124443407Y-92648593D01*
X124491753Y-92688269D01*
X124546910Y-92717751D01*
X124606759Y-92735906D01*
X124669000Y-92742036D01*
X124924125Y-92740500D01*
X125003500Y-92661125D01*
X125003500Y-92138500D01*
X125384500Y-92138500D01*
X125384500Y-92661125D01*
X125463875Y-92740500D01*
X125719000Y-92742036D01*
X125781241Y-92735906D01*
X125841090Y-92717751D01*
X125896247Y-92688269D01*
X125944593Y-92648593D01*
X125984269Y-92600247D01*
X126013751Y-92545090D01*
X126031906Y-92485241D01*
X126038036Y-92423000D01*
X126036500Y-92217875D01*
X125957125Y-92138500D01*
X125384500Y-92138500D01*
X125003500Y-92138500D01*
X124430875Y-92138500D01*
X124351500Y-92217875D01*
X124349964Y-92423000D01*
X124232564Y-92423000D01*
X124245672Y-92398477D01*
X124277342Y-92294075D01*
X124288036Y-92185500D01*
X124288036Y-91710500D01*
X124277342Y-91601925D01*
X124245672Y-91497523D01*
X124232565Y-91473000D01*
X124349964Y-91473000D01*
X124351500Y-91678125D01*
X124430875Y-91757500D01*
X125003500Y-91757500D01*
X125003500Y-91234875D01*
X125384500Y-91234875D01*
X125384500Y-91757500D01*
X125957125Y-91757500D01*
X126036500Y-91678125D01*
X126038036Y-91473000D01*
X126031906Y-91410759D01*
X126013751Y-91350910D01*
X125984269Y-91295753D01*
X125944593Y-91247407D01*
X125896247Y-91207731D01*
X125841090Y-91178249D01*
X125781241Y-91160094D01*
X125719000Y-91153964D01*
X125463875Y-91155500D01*
X125384500Y-91234875D01*
X125003500Y-91234875D01*
X124924125Y-91155500D01*
X124669000Y-91153964D01*
X124606759Y-91160094D01*
X124546910Y-91178249D01*
X124491753Y-91207731D01*
X124443407Y-91247407D01*
X124403731Y-91295753D01*
X124374249Y-91350910D01*
X124356094Y-91410759D01*
X124349964Y-91473000D01*
X124232565Y-91473000D01*
X124194243Y-91401305D01*
X124125030Y-91316970D01*
X124040695Y-91247757D01*
X123944477Y-91196328D01*
X123840075Y-91164658D01*
X123731500Y-91153964D01*
X123156500Y-91153964D01*
X123047925Y-91164658D01*
X122943523Y-91196328D01*
X122847305Y-91247757D01*
X122762970Y-91316970D01*
X122693757Y-91401305D01*
X122642328Y-91497523D01*
X122610658Y-91601925D01*
X122599964Y-91710500D01*
X122599964Y-92166246D01*
X121922711Y-92843500D01*
X119567036Y-92843500D01*
X119567036Y-92636000D01*
X119560906Y-92573759D01*
X119549452Y-92536000D01*
X119560906Y-92498241D01*
X119567036Y-92436000D01*
X119567036Y-92136000D01*
X119560906Y-92073759D01*
X119549452Y-92036000D01*
X119560906Y-91998241D01*
X119567036Y-91936000D01*
X119567036Y-91636000D01*
X119560906Y-91573759D01*
X119542751Y-91513910D01*
X119513269Y-91458753D01*
X119473593Y-91410407D01*
X119425247Y-91370731D01*
X119370090Y-91341249D01*
X119310241Y-91323094D01*
X119248000Y-91316964D01*
X118862017Y-91316964D01*
X118867036Y-91266000D01*
X118867036Y-89956717D01*
X121513691Y-89956717D01*
X121663103Y-90149888D01*
X121946418Y-90272656D01*
X122248240Y-90337793D01*
X122556970Y-90342795D01*
X122647831Y-90326247D01*
X126261500Y-90326247D01*
X126261500Y-90521753D01*
X126299641Y-90713501D01*
X126374458Y-90894125D01*
X126483075Y-91056682D01*
X126621318Y-91194925D01*
X126783875Y-91303542D01*
X126964499Y-91378359D01*
X127156247Y-91416500D01*
X127351753Y-91416500D01*
X127543501Y-91378359D01*
X127724125Y-91303542D01*
X127886682Y-91194925D01*
X128024925Y-91056682D01*
X128133542Y-90894125D01*
X128208359Y-90713501D01*
X128246500Y-90521753D01*
X128246500Y-90326247D01*
X128208359Y-90134499D01*
X128133542Y-89953875D01*
X128024925Y-89791318D01*
X127886682Y-89653075D01*
X127724125Y-89544458D01*
X127543501Y-89469641D01*
X127351753Y-89431500D01*
X127156247Y-89431500D01*
X126964499Y-89469641D01*
X126783875Y-89544458D01*
X126621318Y-89653075D01*
X126483075Y-89791318D01*
X126374458Y-89953875D01*
X126299641Y-90134499D01*
X126261500Y-90326247D01*
X122647831Y-90326247D01*
X122860743Y-90287471D01*
X123147886Y-90173946D01*
X123192897Y-90149888D01*
X123342309Y-89956717D01*
X122428000Y-89042408D01*
X121513691Y-89956717D01*
X118867036Y-89956717D01*
X118867036Y-88966000D01*
X118860906Y-88903759D01*
X118860364Y-88901970D01*
X120858205Y-88901970D01*
X120913529Y-89205743D01*
X121027054Y-89492886D01*
X121051112Y-89537897D01*
X121244283Y-89687309D01*
X122158592Y-88773000D01*
X122697408Y-88773000D01*
X123611717Y-89687309D01*
X123804888Y-89537897D01*
X123927656Y-89254582D01*
X123992793Y-88952760D01*
X123997795Y-88644030D01*
X123942471Y-88340257D01*
X123828946Y-88053114D01*
X123804888Y-88008103D01*
X123611717Y-87858691D01*
X122697408Y-88773000D01*
X122158592Y-88773000D01*
X121244283Y-87858691D01*
X121051112Y-88008103D01*
X120928344Y-88291418D01*
X120863207Y-88593240D01*
X120858205Y-88901970D01*
X118860364Y-88901970D01*
X118842751Y-88843910D01*
X118813269Y-88788753D01*
X118773593Y-88740407D01*
X118725247Y-88700731D01*
X118670090Y-88671249D01*
X118610241Y-88653094D01*
X118548000Y-88646964D01*
X115448000Y-88646964D01*
X115385759Y-88653094D01*
X115325910Y-88671249D01*
X115270753Y-88700731D01*
X115222407Y-88740407D01*
X115182731Y-88788753D01*
X115153249Y-88843910D01*
X115135094Y-88903759D01*
X115128964Y-88966000D01*
X115128964Y-91266000D01*
X115135094Y-91328241D01*
X115153249Y-91388090D01*
X115182731Y-91443247D01*
X115222407Y-91491593D01*
X115239353Y-91505500D01*
X111435289Y-91505500D01*
X111072270Y-91142481D01*
X111058409Y-91125591D01*
X110991029Y-91070295D01*
X110914157Y-91029205D01*
X110830745Y-91003903D01*
X110765737Y-90997500D01*
X110765734Y-90997500D01*
X110744000Y-90995359D01*
X110722266Y-90997500D01*
X108733733Y-90997500D01*
X108711999Y-90995359D01*
X108690265Y-90997500D01*
X108690263Y-90997500D01*
X108625255Y-91003903D01*
X108541843Y-91029205D01*
X108464971Y-91070295D01*
X108397591Y-91125591D01*
X108383730Y-91142481D01*
X108292220Y-91233991D01*
X108274668Y-91230500D01*
X108133332Y-91230500D01*
X107994713Y-91258073D01*
X107864136Y-91312159D01*
X107746620Y-91390681D01*
X107646681Y-91490620D01*
X107568159Y-91608136D01*
X107514073Y-91738713D01*
X107493230Y-91843500D01*
X105439036Y-91843500D01*
X105439036Y-91636000D01*
X105432906Y-91573759D01*
X105421452Y-91536000D01*
X105432906Y-91498241D01*
X105439036Y-91436000D01*
X105439036Y-91136000D01*
X105432906Y-91073759D01*
X105421452Y-91036000D01*
X105432906Y-90998241D01*
X105439036Y-90936000D01*
X105439036Y-90636000D01*
X105432906Y-90573759D01*
X105421452Y-90536000D01*
X105432906Y-90498241D01*
X105439036Y-90436000D01*
X105439036Y-90136000D01*
X105432906Y-90073759D01*
X105421452Y-90036000D01*
X105432906Y-89998241D01*
X105439036Y-89936000D01*
X105439036Y-89636000D01*
X105432906Y-89573759D01*
X105421452Y-89536000D01*
X105432906Y-89498241D01*
X105439036Y-89436000D01*
X105439036Y-89136000D01*
X105432906Y-89073759D01*
X105414751Y-89013910D01*
X105385269Y-88958753D01*
X105345593Y-88910407D01*
X105297247Y-88870731D01*
X105242090Y-88841249D01*
X105182241Y-88823094D01*
X105120000Y-88816964D01*
X104734017Y-88816964D01*
X104739036Y-88766000D01*
X104739036Y-87589283D01*
X121513691Y-87589283D01*
X122428000Y-88503592D01*
X123342309Y-87589283D01*
X123192897Y-87396112D01*
X122909582Y-87273344D01*
X122607760Y-87208207D01*
X122299030Y-87203205D01*
X121995257Y-87258529D01*
X121708114Y-87372054D01*
X121663103Y-87396112D01*
X121513691Y-87589283D01*
X104739036Y-87589283D01*
X104739036Y-86466000D01*
X104732906Y-86403759D01*
X104714751Y-86343910D01*
X104685269Y-86288753D01*
X104645593Y-86240407D01*
X104597247Y-86200731D01*
X104542090Y-86171249D01*
X104482241Y-86153094D01*
X104420000Y-86146964D01*
X101320000Y-86146964D01*
X101257759Y-86153094D01*
X101197910Y-86171249D01*
X101142753Y-86200731D01*
X101094407Y-86240407D01*
X101054731Y-86288753D01*
X101025249Y-86343910D01*
X101007094Y-86403759D01*
X101000964Y-86466000D01*
X101000964Y-88766000D01*
X101007094Y-88828241D01*
X101025249Y-88888090D01*
X101054731Y-88943247D01*
X101094407Y-88991593D01*
X101142753Y-89031269D01*
X101197910Y-89060751D01*
X101257759Y-89078906D01*
X101320000Y-89085036D01*
X103705983Y-89085036D01*
X103700964Y-89136000D01*
X103700964Y-89436000D01*
X103707094Y-89498241D01*
X103718548Y-89536000D01*
X103707094Y-89573759D01*
X103700964Y-89636000D01*
X103700964Y-89936000D01*
X103707094Y-89998241D01*
X103718548Y-90036000D01*
X103707094Y-90073759D01*
X103700964Y-90136000D01*
X103700964Y-90436000D01*
X103707094Y-90498241D01*
X103718548Y-90536000D01*
X103707094Y-90573759D01*
X103700964Y-90636000D01*
X103700964Y-90936000D01*
X103707094Y-90998241D01*
X103718548Y-91036000D01*
X103707094Y-91073759D01*
X103700964Y-91136000D01*
X103700964Y-91436000D01*
X103707094Y-91498241D01*
X103718548Y-91536000D01*
X103707094Y-91573759D01*
X103700964Y-91636000D01*
X103700964Y-91936000D01*
X103707094Y-91998241D01*
X103718548Y-92036000D01*
X103707094Y-92073759D01*
X103700964Y-92136000D01*
X103700964Y-92436000D01*
X103707094Y-92498241D01*
X103718548Y-92536000D01*
X103707094Y-92573759D01*
X103700964Y-92636000D01*
X103700964Y-92936000D01*
X103707094Y-92998241D01*
X103718548Y-93036000D01*
X103707094Y-93073759D01*
X103700964Y-93136000D01*
X103700964Y-93436000D01*
X103707094Y-93498241D01*
X103718548Y-93536000D01*
X103707094Y-93573759D01*
X103700964Y-93636000D01*
X103700964Y-93843500D01*
X103486289Y-93843500D01*
X102780052Y-93137263D01*
X102798500Y-93044517D01*
X102798500Y-92883483D01*
X102767084Y-92725544D01*
X102705460Y-92576768D01*
X102615994Y-92442874D01*
X102502126Y-92329006D01*
X102368232Y-92239540D01*
X102219456Y-92177916D01*
X102061517Y-92146500D01*
X101900483Y-92146500D01*
X101742544Y-92177916D01*
X101593768Y-92239540D01*
X101459874Y-92329006D01*
X101346006Y-92442874D01*
X101256540Y-92576768D01*
X101194916Y-92725544D01*
X101163500Y-92883483D01*
X101163500Y-93044517D01*
X101194916Y-93202456D01*
X101256540Y-93351232D01*
X101346006Y-93485126D01*
X101459874Y-93598994D01*
X101593768Y-93688460D01*
X101742544Y-93750084D01*
X101900483Y-93781500D01*
X102061517Y-93781500D01*
X102154263Y-93763052D01*
X102879164Y-94487953D01*
X102878735Y-94488475D01*
X102154262Y-95212948D01*
X102061517Y-95194500D01*
X101900483Y-95194500D01*
X101742544Y-95225916D01*
X101593768Y-95287540D01*
X101459874Y-95377006D01*
X101346006Y-95490874D01*
X101256540Y-95624768D01*
X101194916Y-95773544D01*
X101163500Y-95931483D01*
X101163500Y-96092517D01*
X101194916Y-96250456D01*
X101256540Y-96399232D01*
X101346006Y-96533126D01*
X101459874Y-96646994D01*
X101593768Y-96736460D01*
X101742544Y-96798084D01*
X101900483Y-96829500D01*
X102061517Y-96829500D01*
X102219456Y-96798084D01*
X102368232Y-96736460D01*
X102502126Y-96646994D01*
X102615994Y-96533126D01*
X102705460Y-96399232D01*
X102767084Y-96250456D01*
X102798500Y-96092517D01*
X102798500Y-95931483D01*
X102780052Y-95838738D01*
X103390290Y-95228500D01*
X103700964Y-95228500D01*
X103700964Y-95436000D01*
X103707094Y-95498241D01*
X103718548Y-95536000D01*
X103707094Y-95573759D01*
X103700964Y-95636000D01*
X103700964Y-95936000D01*
X103707094Y-95998241D01*
X103718548Y-96036000D01*
X103707094Y-96073759D01*
X103700964Y-96136000D01*
X103700964Y-96436000D01*
X103707094Y-96498241D01*
X103718548Y-96536000D01*
X103707094Y-96573759D01*
X103700964Y-96636000D01*
X103700964Y-96936000D01*
X103707094Y-96998241D01*
X103718548Y-97036000D01*
X103707094Y-97073759D01*
X103700964Y-97136000D01*
X103700964Y-97436000D01*
X103707094Y-97498241D01*
X103718548Y-97536000D01*
X103707094Y-97573759D01*
X103700964Y-97636000D01*
X103700964Y-97936000D01*
X103707094Y-97998241D01*
X103718548Y-98036000D01*
X103707094Y-98073759D01*
X103700964Y-98136000D01*
X103700964Y-98436000D01*
X103707094Y-98498241D01*
X103718548Y-98536000D01*
X103707094Y-98573759D01*
X103700964Y-98636000D01*
X103700964Y-98936000D01*
X103707094Y-98998241D01*
X103718548Y-99036000D01*
X103707094Y-99073759D01*
X103700964Y-99136000D01*
X103700964Y-99436000D01*
X103707094Y-99498241D01*
X103718585Y-99536122D01*
X103707811Y-99570259D01*
X103702500Y-99620125D01*
X103781875Y-99699500D01*
X103840597Y-99699500D01*
X103842753Y-99701269D01*
X103897910Y-99730751D01*
X103957759Y-99748906D01*
X104020000Y-99755036D01*
X104562629Y-99755036D01*
X104570000Y-99755762D01*
X104577371Y-99755036D01*
X105120000Y-99755036D01*
X105182241Y-99748906D01*
X105242090Y-99730751D01*
X105297247Y-99701269D01*
X105299403Y-99699500D01*
X105358125Y-99699500D01*
X105437500Y-99620125D01*
X105432189Y-99570259D01*
X105421415Y-99536122D01*
X105432906Y-99498241D01*
X105439036Y-99436000D01*
X105439036Y-99253500D01*
X117828964Y-99253500D01*
X117828964Y-99436000D01*
X117835094Y-99498241D01*
X117846585Y-99536122D01*
X117835811Y-99570259D01*
X117830500Y-99620125D01*
X117909875Y-99699500D01*
X117968597Y-99699500D01*
X117970753Y-99701269D01*
X118025910Y-99730751D01*
X118085759Y-99748906D01*
X118148000Y-99755036D01*
X118690629Y-99755036D01*
X118698000Y-99755762D01*
X118705371Y-99755036D01*
X119248000Y-99755036D01*
X119310241Y-99748906D01*
X119370090Y-99730751D01*
X119374301Y-99728500D01*
X120110738Y-99728500D01*
X120120681Y-99743380D01*
X120220620Y-99843319D01*
X120220891Y-99843500D01*
X119374301Y-99843500D01*
X119370090Y-99841249D01*
X119310241Y-99823094D01*
X119248000Y-99816964D01*
X118148000Y-99816964D01*
X118085759Y-99823094D01*
X118025910Y-99841249D01*
X118021699Y-99843500D01*
X105246301Y-99843500D01*
X105242090Y-99841249D01*
X105182241Y-99823094D01*
X105120000Y-99816964D01*
X104020000Y-99816964D01*
X103957759Y-99823094D01*
X103897910Y-99841249D01*
X103842753Y-99870731D01*
X103840597Y-99872500D01*
X103781875Y-99872500D01*
X103702500Y-99951875D01*
X103707811Y-100001741D01*
X103718585Y-100035878D01*
X103707094Y-100073759D01*
X103700964Y-100136000D01*
X103700964Y-100436000D01*
X103707094Y-100498241D01*
X103718548Y-100536000D01*
X103707094Y-100573759D01*
X103700964Y-100636000D01*
X103700964Y-100936000D01*
X103707094Y-100998241D01*
X103718548Y-101036000D01*
X103707094Y-101073759D01*
X103700964Y-101136000D01*
X103700964Y-101436000D01*
X103707094Y-101498241D01*
X103718548Y-101536000D01*
X103707094Y-101573759D01*
X103700964Y-101636000D01*
X103700964Y-101936000D01*
X103707094Y-101998241D01*
X103718548Y-102036000D01*
X103707094Y-102073759D01*
X103700964Y-102136000D01*
X103700964Y-102436000D01*
X103707094Y-102498241D01*
X103718548Y-102536000D01*
X103707094Y-102573759D01*
X103700964Y-102636000D01*
X103700964Y-102936000D01*
X103707094Y-102998241D01*
X103718548Y-103036000D01*
X103707094Y-103073759D01*
X103700964Y-103136000D01*
X103700964Y-103436000D01*
X103707094Y-103498241D01*
X103718548Y-103536000D01*
X103707094Y-103573759D01*
X103700964Y-103636000D01*
X103700964Y-103936000D01*
X103707094Y-103998241D01*
X103718548Y-104036000D01*
X103707094Y-104073759D01*
X103700964Y-104136000D01*
X103700964Y-104436000D01*
X103707094Y-104498241D01*
X103718548Y-104536000D01*
X103707094Y-104573759D01*
X103700964Y-104636000D01*
X103700964Y-104936000D01*
X103707094Y-104998241D01*
X103718548Y-105036000D01*
X103707094Y-105073759D01*
X103700964Y-105136000D01*
X103700964Y-105436000D01*
X103707094Y-105498241D01*
X103718548Y-105536000D01*
X103707094Y-105573759D01*
X103700964Y-105636000D01*
X103700964Y-105936000D01*
X103705983Y-105986964D01*
X101320000Y-105986964D01*
X101257759Y-105993094D01*
X101197910Y-106011249D01*
X101142753Y-106040731D01*
X101094407Y-106080407D01*
X101054731Y-106128753D01*
X101025249Y-106183910D01*
X101007094Y-106243759D01*
X101000964Y-106306000D01*
X101000964Y-108606000D01*
X101007094Y-108668241D01*
X101025249Y-108728090D01*
X101054731Y-108783247D01*
X101094407Y-108831593D01*
X101142753Y-108871269D01*
X101197910Y-108900751D01*
X101257759Y-108918906D01*
X101320000Y-108925036D01*
X104420000Y-108925036D01*
X104482241Y-108918906D01*
X104542090Y-108900751D01*
X104597247Y-108871269D01*
X104645593Y-108831593D01*
X104685269Y-108783247D01*
X104714751Y-108728090D01*
X104732906Y-108668241D01*
X104739036Y-108606000D01*
X104739036Y-106306000D01*
X104734017Y-106255036D01*
X105120000Y-106255036D01*
X105182241Y-106248906D01*
X105242090Y-106230751D01*
X105297247Y-106201269D01*
X105345593Y-106161593D01*
X105385269Y-106113247D01*
X105414751Y-106058090D01*
X105432906Y-105998241D01*
X105439036Y-105936000D01*
X105439036Y-105636000D01*
X105432906Y-105573759D01*
X105421452Y-105536000D01*
X105432906Y-105498241D01*
X105439036Y-105436000D01*
X105439036Y-105136000D01*
X105432906Y-105073759D01*
X105421452Y-105036000D01*
X105432906Y-104998241D01*
X105439036Y-104936000D01*
X105439036Y-104636000D01*
X105432906Y-104573759D01*
X105421452Y-104536000D01*
X105432906Y-104498241D01*
X105439036Y-104436000D01*
X105439036Y-104136000D01*
X105432906Y-104073759D01*
X105421452Y-104036000D01*
X105432906Y-103998241D01*
X105439036Y-103936000D01*
X105439036Y-103728500D01*
X106912711Y-103728500D01*
X108015744Y-104831534D01*
X108029601Y-104848419D01*
X108046485Y-104862275D01*
X108096981Y-104903715D01*
X108173853Y-104944805D01*
X108257265Y-104970107D01*
X108344010Y-104978651D01*
X108365747Y-104976510D01*
X110181964Y-104976510D01*
X110181964Y-105393500D01*
X110192658Y-105502075D01*
X110224328Y-105606477D01*
X110275757Y-105702695D01*
X110344970Y-105787030D01*
X110429305Y-105856243D01*
X110525523Y-105907672D01*
X110629925Y-105939342D01*
X110738500Y-105950036D01*
X111313500Y-105950036D01*
X111422075Y-105939342D01*
X111526477Y-105907672D01*
X111622695Y-105856243D01*
X111707030Y-105787030D01*
X111776243Y-105702695D01*
X111814564Y-105631000D01*
X111931964Y-105631000D01*
X111938094Y-105693241D01*
X111956249Y-105753090D01*
X111985731Y-105808247D01*
X112025407Y-105856593D01*
X112073753Y-105896269D01*
X112128910Y-105925751D01*
X112188759Y-105943906D01*
X112251000Y-105950036D01*
X112506125Y-105948500D01*
X112585500Y-105869125D01*
X112585500Y-105346500D01*
X112966500Y-105346500D01*
X112966500Y-105869125D01*
X113045875Y-105948500D01*
X113301000Y-105950036D01*
X113363241Y-105943906D01*
X113423090Y-105925751D01*
X113478247Y-105896269D01*
X113526593Y-105856593D01*
X113566269Y-105808247D01*
X113595751Y-105753090D01*
X113613906Y-105693241D01*
X113620036Y-105631000D01*
X113618500Y-105425875D01*
X113539125Y-105346500D01*
X112966500Y-105346500D01*
X112585500Y-105346500D01*
X112012875Y-105346500D01*
X111933500Y-105425875D01*
X111931964Y-105631000D01*
X111814564Y-105631000D01*
X111827672Y-105606477D01*
X111859342Y-105502075D01*
X111870036Y-105393500D01*
X111870036Y-104978262D01*
X111873990Y-104978651D01*
X111895724Y-104976510D01*
X111895727Y-104976510D01*
X111960735Y-104970107D01*
X112004275Y-104956900D01*
X112012875Y-104965500D01*
X112585500Y-104965500D01*
X112585500Y-104448289D01*
X112590914Y-104442875D01*
X112966500Y-104442875D01*
X112966500Y-104965500D01*
X113539125Y-104965500D01*
X113618500Y-104886125D01*
X113620036Y-104681000D01*
X113613906Y-104618759D01*
X113595751Y-104558910D01*
X113566269Y-104503753D01*
X113526593Y-104455407D01*
X113478247Y-104415731D01*
X113423090Y-104386249D01*
X113363241Y-104368094D01*
X113301000Y-104361964D01*
X113045875Y-104363500D01*
X112966500Y-104442875D01*
X112590914Y-104442875D01*
X113305290Y-103728500D01*
X115139723Y-103728500D01*
X115135094Y-103743759D01*
X115128964Y-103806000D01*
X115128964Y-106106000D01*
X115135094Y-106168241D01*
X115153249Y-106228090D01*
X115182731Y-106283247D01*
X115222407Y-106331593D01*
X115270753Y-106371269D01*
X115325910Y-106400751D01*
X115385759Y-106418906D01*
X115448000Y-106425036D01*
X118548000Y-106425036D01*
X118610241Y-106418906D01*
X118670090Y-106400751D01*
X118725247Y-106371269D01*
X118773593Y-106331593D01*
X118813269Y-106283247D01*
X118842751Y-106228090D01*
X118860906Y-106168241D01*
X118867036Y-106106000D01*
X118867036Y-103806000D01*
X118862017Y-103755036D01*
X119130501Y-103755036D01*
X119130501Y-104819266D01*
X119128360Y-104841001D01*
X119130501Y-104862735D01*
X119130501Y-104862737D01*
X119136904Y-104927745D01*
X119156966Y-104993881D01*
X119162206Y-105011157D01*
X119203296Y-105088030D01*
X119223991Y-105113247D01*
X119258592Y-105155410D01*
X119275482Y-105169271D01*
X121591735Y-107485525D01*
X121605591Y-107502409D01*
X121622475Y-107516265D01*
X121672970Y-107557705D01*
X121749843Y-107598795D01*
X121833255Y-107624097D01*
X121898263Y-107630500D01*
X121898266Y-107630500D01*
X121920000Y-107632641D01*
X121941734Y-107630500D01*
X122639908Y-107630500D01*
X122642328Y-107638477D01*
X122693757Y-107734695D01*
X122762970Y-107819030D01*
X122847305Y-107888243D01*
X122943523Y-107939672D01*
X123047925Y-107971342D01*
X123156500Y-107982036D01*
X123731500Y-107982036D01*
X123840075Y-107971342D01*
X123944477Y-107939672D01*
X124040695Y-107888243D01*
X124125030Y-107819030D01*
X124194243Y-107734695D01*
X124232564Y-107663000D01*
X124349964Y-107663000D01*
X124356094Y-107725241D01*
X124374249Y-107785090D01*
X124403731Y-107840247D01*
X124443407Y-107888593D01*
X124491753Y-107928269D01*
X124546910Y-107957751D01*
X124606759Y-107975906D01*
X124669000Y-107982036D01*
X124924125Y-107980500D01*
X125003500Y-107901125D01*
X125003500Y-107378500D01*
X125384500Y-107378500D01*
X125384500Y-107901125D01*
X125463875Y-107980500D01*
X125719000Y-107982036D01*
X125781241Y-107975906D01*
X125841090Y-107957751D01*
X125896247Y-107928269D01*
X125944593Y-107888593D01*
X125984269Y-107840247D01*
X126013751Y-107785090D01*
X126031906Y-107725241D01*
X126038036Y-107663000D01*
X126036500Y-107457875D01*
X125957125Y-107378500D01*
X125384500Y-107378500D01*
X125003500Y-107378500D01*
X124430875Y-107378500D01*
X124351500Y-107457875D01*
X124349964Y-107663000D01*
X124232564Y-107663000D01*
X124245672Y-107638477D01*
X124277342Y-107534075D01*
X124288036Y-107425500D01*
X124288036Y-106950500D01*
X124277342Y-106841925D01*
X124245672Y-106737523D01*
X124232565Y-106713000D01*
X124349964Y-106713000D01*
X124351500Y-106918125D01*
X124430875Y-106997500D01*
X125003500Y-106997500D01*
X125003500Y-106474875D01*
X125384500Y-106474875D01*
X125384500Y-106997500D01*
X125957125Y-106997500D01*
X126036500Y-106918125D01*
X126038036Y-106713000D01*
X126031906Y-106650759D01*
X126013751Y-106590910D01*
X125984269Y-106535753D01*
X125944593Y-106487407D01*
X125896247Y-106447731D01*
X125841090Y-106418249D01*
X125781241Y-106400094D01*
X125719000Y-106393964D01*
X125463875Y-106395500D01*
X125384500Y-106474875D01*
X125003500Y-106474875D01*
X124924125Y-106395500D01*
X124669000Y-106393964D01*
X124606759Y-106400094D01*
X124546910Y-106418249D01*
X124491753Y-106447731D01*
X124443407Y-106487407D01*
X124403731Y-106535753D01*
X124374249Y-106590910D01*
X124356094Y-106650759D01*
X124349964Y-106713000D01*
X124232565Y-106713000D01*
X124194243Y-106641305D01*
X124125030Y-106556970D01*
X124040695Y-106487757D01*
X123944477Y-106436328D01*
X123840075Y-106404658D01*
X123731500Y-106393964D01*
X123156500Y-106393964D01*
X123047925Y-106404658D01*
X122943523Y-106436328D01*
X122847305Y-106487757D01*
X122762970Y-106556970D01*
X122693757Y-106641305D01*
X122642328Y-106737523D01*
X122639908Y-106745500D01*
X122103290Y-106745500D01*
X120015501Y-104657712D01*
X120015501Y-103973872D01*
X120092681Y-104089380D01*
X120192620Y-104189319D01*
X120310136Y-104267841D01*
X120440713Y-104321927D01*
X120579332Y-104349500D01*
X120720668Y-104349500D01*
X120859287Y-104321927D01*
X120989864Y-104267841D01*
X121107380Y-104189319D01*
X121207319Y-104089380D01*
X121285841Y-103971864D01*
X121339927Y-103841287D01*
X121367500Y-103702668D01*
X121367500Y-103561332D01*
X121339927Y-103422713D01*
X121298211Y-103322001D01*
X121832500Y-103856290D01*
X121832500Y-103965266D01*
X121830359Y-103987000D01*
X121832500Y-104008734D01*
X121832500Y-104008737D01*
X121838903Y-104073745D01*
X121846235Y-104097914D01*
X121864205Y-104157156D01*
X121905295Y-104234029D01*
X121933044Y-104267841D01*
X121960592Y-104301409D01*
X121977476Y-104315265D01*
X122599964Y-104937754D01*
X122599964Y-105393500D01*
X122610658Y-105502075D01*
X122642328Y-105606477D01*
X122693757Y-105702695D01*
X122762970Y-105787030D01*
X122847305Y-105856243D01*
X122943523Y-105907672D01*
X123047925Y-105939342D01*
X123156500Y-105950036D01*
X123731500Y-105950036D01*
X123840075Y-105939342D01*
X123944477Y-105907672D01*
X124040695Y-105856243D01*
X124125030Y-105787030D01*
X124194243Y-105702695D01*
X124232564Y-105631000D01*
X124349964Y-105631000D01*
X124356094Y-105693241D01*
X124374249Y-105753090D01*
X124403731Y-105808247D01*
X124443407Y-105856593D01*
X124491753Y-105896269D01*
X124546910Y-105925751D01*
X124606759Y-105943906D01*
X124669000Y-105950036D01*
X124924125Y-105948500D01*
X125003500Y-105869125D01*
X125003500Y-105346500D01*
X125384500Y-105346500D01*
X125384500Y-105869125D01*
X125463875Y-105948500D01*
X125719000Y-105950036D01*
X125781241Y-105943906D01*
X125841090Y-105925751D01*
X125896247Y-105896269D01*
X125944593Y-105856593D01*
X125984269Y-105808247D01*
X126013751Y-105753090D01*
X126031906Y-105693241D01*
X126038036Y-105631000D01*
X126036500Y-105425875D01*
X125957125Y-105346500D01*
X125384500Y-105346500D01*
X125003500Y-105346500D01*
X124430875Y-105346500D01*
X124351500Y-105425875D01*
X124349964Y-105631000D01*
X124232564Y-105631000D01*
X124245672Y-105606477D01*
X124277342Y-105502075D01*
X124288036Y-105393500D01*
X124288036Y-104918500D01*
X124277342Y-104809925D01*
X124245672Y-104705523D01*
X124232565Y-104681000D01*
X124349964Y-104681000D01*
X124351500Y-104886125D01*
X124430875Y-104965500D01*
X125003500Y-104965500D01*
X125003500Y-104442875D01*
X125384500Y-104442875D01*
X125384500Y-104965500D01*
X125957125Y-104965500D01*
X126036500Y-104886125D01*
X126038036Y-104681000D01*
X126031906Y-104618759D01*
X126013751Y-104558910D01*
X125984269Y-104503753D01*
X125944593Y-104455407D01*
X125896247Y-104415731D01*
X125841090Y-104386249D01*
X125781241Y-104368094D01*
X125719000Y-104361964D01*
X125463875Y-104363500D01*
X125384500Y-104442875D01*
X125003500Y-104442875D01*
X124924125Y-104363500D01*
X124669000Y-104361964D01*
X124606759Y-104368094D01*
X124546910Y-104386249D01*
X124491753Y-104415731D01*
X124443407Y-104455407D01*
X124403731Y-104503753D01*
X124374249Y-104558910D01*
X124356094Y-104618759D01*
X124349964Y-104681000D01*
X124232565Y-104681000D01*
X124194243Y-104609305D01*
X124125030Y-104524970D01*
X124040695Y-104455757D01*
X123944477Y-104404328D01*
X123840075Y-104372658D01*
X123731500Y-104361964D01*
X123275754Y-104361964D01*
X122886790Y-103973000D01*
X127021964Y-103973000D01*
X127021964Y-105323000D01*
X127028094Y-105385241D01*
X127046249Y-105445090D01*
X127075731Y-105500247D01*
X127115407Y-105548593D01*
X127163753Y-105588269D01*
X127218910Y-105617751D01*
X127278759Y-105635906D01*
X127341000Y-105642036D01*
X128691000Y-105642036D01*
X128753241Y-105635906D01*
X128813090Y-105617751D01*
X128868247Y-105588269D01*
X128916593Y-105548593D01*
X128956269Y-105500247D01*
X128985751Y-105445090D01*
X129003906Y-105385241D01*
X129010036Y-105323000D01*
X129010036Y-103973000D01*
X129003906Y-103910759D01*
X128985751Y-103850910D01*
X128956269Y-103795753D01*
X128916593Y-103747407D01*
X128868247Y-103707731D01*
X128813090Y-103678249D01*
X128753241Y-103660094D01*
X128691000Y-103653964D01*
X127341000Y-103653964D01*
X127278759Y-103660094D01*
X127218910Y-103678249D01*
X127163753Y-103707731D01*
X127115407Y-103747407D01*
X127075731Y-103795753D01*
X127046249Y-103850910D01*
X127028094Y-103910759D01*
X127021964Y-103973000D01*
X122886790Y-103973000D01*
X122717500Y-103803711D01*
X122717500Y-103699625D01*
X122762970Y-103755030D01*
X122847305Y-103824243D01*
X122943523Y-103875672D01*
X123047925Y-103907342D01*
X123156500Y-103918036D01*
X123731500Y-103918036D01*
X123840075Y-103907342D01*
X123944477Y-103875672D01*
X124040695Y-103824243D01*
X124125030Y-103755030D01*
X124194243Y-103670695D01*
X124232564Y-103599000D01*
X124349964Y-103599000D01*
X124356094Y-103661241D01*
X124374249Y-103721090D01*
X124403731Y-103776247D01*
X124443407Y-103824593D01*
X124491753Y-103864269D01*
X124546910Y-103893751D01*
X124606759Y-103911906D01*
X124669000Y-103918036D01*
X124924125Y-103916500D01*
X125003500Y-103837125D01*
X125003500Y-103314500D01*
X125384500Y-103314500D01*
X125384500Y-103837125D01*
X125463875Y-103916500D01*
X125719000Y-103918036D01*
X125781241Y-103911906D01*
X125841090Y-103893751D01*
X125896247Y-103864269D01*
X125944593Y-103824593D01*
X125984269Y-103776247D01*
X126013751Y-103721090D01*
X126031906Y-103661241D01*
X126038036Y-103599000D01*
X126037427Y-103517656D01*
X135290129Y-103517656D01*
X135326680Y-103695500D01*
X136207500Y-103695500D01*
X136207500Y-102813512D01*
X136029654Y-102778119D01*
X135820595Y-102871267D01*
X135633725Y-103003411D01*
X135476226Y-103169472D01*
X135354150Y-103363069D01*
X135290129Y-103517656D01*
X126037427Y-103517656D01*
X126036500Y-103393875D01*
X125957125Y-103314500D01*
X125384500Y-103314500D01*
X125003500Y-103314500D01*
X124430875Y-103314500D01*
X124351500Y-103393875D01*
X124349964Y-103599000D01*
X124232564Y-103599000D01*
X124245672Y-103574477D01*
X124277342Y-103470075D01*
X124288036Y-103361500D01*
X124288036Y-102886500D01*
X124277342Y-102777925D01*
X124245672Y-102673523D01*
X124232565Y-102649000D01*
X124349964Y-102649000D01*
X124351500Y-102854125D01*
X124430875Y-102933500D01*
X125003500Y-102933500D01*
X125003500Y-102410875D01*
X125384500Y-102410875D01*
X125384500Y-102933500D01*
X125957125Y-102933500D01*
X126036500Y-102854125D01*
X126038036Y-102649000D01*
X126031906Y-102586759D01*
X126013751Y-102526910D01*
X125984269Y-102471753D01*
X125944593Y-102423407D01*
X125896247Y-102383731D01*
X125841090Y-102354249D01*
X125781241Y-102336094D01*
X125719000Y-102329964D01*
X125463875Y-102331500D01*
X125384500Y-102410875D01*
X125003500Y-102410875D01*
X124924125Y-102331500D01*
X124669000Y-102329964D01*
X124606759Y-102336094D01*
X124546910Y-102354249D01*
X124491753Y-102383731D01*
X124443407Y-102423407D01*
X124403731Y-102471753D01*
X124374249Y-102526910D01*
X124356094Y-102586759D01*
X124349964Y-102649000D01*
X124232565Y-102649000D01*
X124194243Y-102577305D01*
X124125030Y-102492970D01*
X124040695Y-102423757D01*
X123944477Y-102372328D01*
X123840075Y-102340658D01*
X123731500Y-102329964D01*
X123156500Y-102329964D01*
X123047925Y-102340658D01*
X122943523Y-102372328D01*
X122856586Y-102418797D01*
X121166289Y-100728500D01*
X122454711Y-100728500D01*
X122599964Y-100873753D01*
X122599964Y-101329500D01*
X122610658Y-101438075D01*
X122642328Y-101542477D01*
X122693757Y-101638695D01*
X122762970Y-101723030D01*
X122847305Y-101792243D01*
X122943523Y-101843672D01*
X123047925Y-101875342D01*
X123156500Y-101886036D01*
X123731500Y-101886036D01*
X123840075Y-101875342D01*
X123944477Y-101843672D01*
X124040695Y-101792243D01*
X124125030Y-101723030D01*
X124194243Y-101638695D01*
X124232564Y-101567000D01*
X124349964Y-101567000D01*
X124356094Y-101629241D01*
X124374249Y-101689090D01*
X124403731Y-101744247D01*
X124443407Y-101792593D01*
X124491753Y-101832269D01*
X124546910Y-101861751D01*
X124606759Y-101879906D01*
X124669000Y-101886036D01*
X124924125Y-101884500D01*
X125003500Y-101805125D01*
X125003500Y-101282500D01*
X125384500Y-101282500D01*
X125384500Y-101805125D01*
X125463875Y-101884500D01*
X125719000Y-101886036D01*
X125781241Y-101879906D01*
X125841090Y-101861751D01*
X125896247Y-101832269D01*
X125944593Y-101792593D01*
X125984269Y-101744247D01*
X126013751Y-101689090D01*
X126031906Y-101629241D01*
X126038036Y-101567000D01*
X126036500Y-101361875D01*
X125957125Y-101282500D01*
X125384500Y-101282500D01*
X125003500Y-101282500D01*
X124430875Y-101282500D01*
X124351500Y-101361875D01*
X124349964Y-101567000D01*
X124232564Y-101567000D01*
X124245672Y-101542477D01*
X124277342Y-101438075D01*
X124288036Y-101329500D01*
X124288036Y-100854500D01*
X124277342Y-100745925D01*
X124245672Y-100641523D01*
X124232565Y-100617000D01*
X124349964Y-100617000D01*
X124351500Y-100822125D01*
X124430875Y-100901500D01*
X125003500Y-100901500D01*
X125003500Y-100378875D01*
X125384500Y-100378875D01*
X125384500Y-100901500D01*
X125957125Y-100901500D01*
X126036500Y-100822125D01*
X126038036Y-100617000D01*
X126031906Y-100554759D01*
X126013751Y-100494910D01*
X125984269Y-100439753D01*
X125944593Y-100391407D01*
X125896247Y-100351731D01*
X125841090Y-100322249D01*
X125781241Y-100304094D01*
X125719000Y-100297964D01*
X125463875Y-100299500D01*
X125384500Y-100378875D01*
X125003500Y-100378875D01*
X124924125Y-100299500D01*
X124669000Y-100297964D01*
X124606759Y-100304094D01*
X124546910Y-100322249D01*
X124491753Y-100351731D01*
X124443407Y-100391407D01*
X124403731Y-100439753D01*
X124374249Y-100494910D01*
X124356094Y-100554759D01*
X124349964Y-100617000D01*
X124232565Y-100617000D01*
X124194243Y-100545305D01*
X124125030Y-100460970D01*
X124040695Y-100391757D01*
X123944477Y-100340328D01*
X123840075Y-100308658D01*
X123731500Y-100297964D01*
X123275753Y-100297964D01*
X122966269Y-99988480D01*
X122952409Y-99971591D01*
X122885029Y-99916295D01*
X122808157Y-99875205D01*
X122724745Y-99849903D01*
X122659737Y-99843500D01*
X122659734Y-99843500D01*
X122638000Y-99841359D01*
X122616266Y-99843500D01*
X122151109Y-99843500D01*
X122151380Y-99843319D01*
X122241199Y-99753500D01*
X122687035Y-99753500D01*
X122710000Y-99755762D01*
X122732965Y-99753500D01*
X122732967Y-99753500D01*
X122801646Y-99746736D01*
X122822966Y-99740268D01*
X122847305Y-99760243D01*
X122943523Y-99811672D01*
X123047925Y-99843342D01*
X123156500Y-99854036D01*
X123731500Y-99854036D01*
X123840075Y-99843342D01*
X123944477Y-99811672D01*
X124040695Y-99760243D01*
X124125030Y-99691030D01*
X124194243Y-99606695D01*
X124232564Y-99535000D01*
X124349964Y-99535000D01*
X124356094Y-99597241D01*
X124374249Y-99657090D01*
X124403731Y-99712247D01*
X124443407Y-99760593D01*
X124491753Y-99800269D01*
X124546910Y-99829751D01*
X124606759Y-99847906D01*
X124669000Y-99854036D01*
X124924125Y-99852500D01*
X125003500Y-99773125D01*
X125003500Y-99250500D01*
X125384500Y-99250500D01*
X125384500Y-99773125D01*
X125463875Y-99852500D01*
X125719000Y-99854036D01*
X125781241Y-99847906D01*
X125841090Y-99829751D01*
X125896247Y-99800269D01*
X125944593Y-99760593D01*
X125984269Y-99712247D01*
X126013751Y-99657090D01*
X126031906Y-99597241D01*
X126038036Y-99535000D01*
X126036500Y-99329875D01*
X125957125Y-99250500D01*
X125384500Y-99250500D01*
X125003500Y-99250500D01*
X124430875Y-99250500D01*
X124351500Y-99329875D01*
X124349964Y-99535000D01*
X124232564Y-99535000D01*
X124245672Y-99510477D01*
X124277342Y-99406075D01*
X124288036Y-99297500D01*
X124288036Y-98822500D01*
X124277342Y-98713925D01*
X124245672Y-98609523D01*
X124194243Y-98513305D01*
X124172244Y-98486500D01*
X124367093Y-98486500D01*
X124356094Y-98522759D01*
X124349964Y-98585000D01*
X124351500Y-98790125D01*
X124430875Y-98869500D01*
X125003500Y-98869500D01*
X125003500Y-98849500D01*
X125384500Y-98849500D01*
X125384500Y-98869500D01*
X125957125Y-98869500D01*
X126036500Y-98790125D01*
X126038036Y-98585000D01*
X126031906Y-98522759D01*
X126020907Y-98486500D01*
X131001711Y-98486500D01*
X134158735Y-101643525D01*
X134172591Y-101660409D01*
X134239971Y-101715705D01*
X134316843Y-101756795D01*
X134400255Y-101782097D01*
X134465263Y-101788500D01*
X134465265Y-101788500D01*
X134486999Y-101790641D01*
X134508733Y-101788500D01*
X135317596Y-101788500D01*
X135363375Y-101899019D01*
X135491144Y-102090238D01*
X135653762Y-102252856D01*
X135844981Y-102380625D01*
X136057453Y-102468634D01*
X136283011Y-102513500D01*
X136512989Y-102513500D01*
X136738547Y-102468634D01*
X136951019Y-102380625D01*
X137142238Y-102252856D01*
X137304856Y-102090238D01*
X137432625Y-101899019D01*
X137452500Y-101851036D01*
X137452500Y-103388785D01*
X137441850Y-103363069D01*
X137319774Y-103169472D01*
X137162275Y-103003411D01*
X136975405Y-102871267D01*
X136766346Y-102778119D01*
X136588500Y-102813512D01*
X136588500Y-103695500D01*
X136608500Y-103695500D01*
X136608500Y-104076500D01*
X136588500Y-104076500D01*
X136588500Y-104958488D01*
X136766346Y-104993881D01*
X136975405Y-104900733D01*
X137162275Y-104768589D01*
X137319774Y-104602528D01*
X137441850Y-104408931D01*
X137452500Y-104383215D01*
X137452500Y-105333097D01*
X137425247Y-105310731D01*
X137370090Y-105281249D01*
X137310241Y-105263094D01*
X137248000Y-105256964D01*
X135548000Y-105256964D01*
X135485759Y-105263094D01*
X135425910Y-105281249D01*
X135370753Y-105310731D01*
X135322407Y-105350407D01*
X135282731Y-105398753D01*
X135253249Y-105453910D01*
X135236689Y-105508500D01*
X132174041Y-105508500D01*
X130932401Y-104266861D01*
X130927217Y-104254344D01*
X135290129Y-104254344D01*
X135354150Y-104408931D01*
X135476226Y-104602528D01*
X135633725Y-104768589D01*
X135820595Y-104900733D01*
X136029654Y-104993881D01*
X136207500Y-104958488D01*
X136207500Y-104076500D01*
X135326680Y-104076500D01*
X135290129Y-104254344D01*
X130927217Y-104254344D01*
X130895542Y-104177875D01*
X130786925Y-104015318D01*
X130648682Y-103877075D01*
X130486125Y-103768458D01*
X130305501Y-103693641D01*
X130113753Y-103655500D01*
X129918247Y-103655500D01*
X129726499Y-103693641D01*
X129545875Y-103768458D01*
X129383318Y-103877075D01*
X129245075Y-104015318D01*
X129136458Y-104177875D01*
X129061641Y-104358499D01*
X129023500Y-104550247D01*
X129023500Y-104745753D01*
X129061641Y-104937501D01*
X129136458Y-105118125D01*
X129245075Y-105280682D01*
X129383318Y-105418925D01*
X129545875Y-105527542D01*
X129634861Y-105564401D01*
X131113363Y-107042904D01*
X131142091Y-107077909D01*
X131281798Y-107192564D01*
X131441189Y-107277761D01*
X131614139Y-107330224D01*
X131748931Y-107343500D01*
X131748938Y-107343500D01*
X131794000Y-107347938D01*
X131839062Y-107343500D01*
X135236689Y-107343500D01*
X135253249Y-107398090D01*
X135282731Y-107453247D01*
X135322407Y-107501593D01*
X135370753Y-107541269D01*
X135425910Y-107570751D01*
X135485759Y-107588906D01*
X135548000Y-107595036D01*
X137248000Y-107595036D01*
X137310241Y-107588906D01*
X137370090Y-107570751D01*
X137425247Y-107541269D01*
X137452500Y-107518903D01*
X137452500Y-109584253D01*
X137409038Y-110027508D01*
X137285172Y-110437775D01*
X137083974Y-110816173D01*
X136813117Y-111148276D01*
X136482910Y-111421447D01*
X136105929Y-111625280D01*
X135696539Y-111752007D01*
X135254190Y-111798500D01*
X103013747Y-111798500D01*
X102570492Y-111755038D01*
X102160225Y-111631172D01*
X101781827Y-111429974D01*
X101449724Y-111159117D01*
X101176553Y-110828910D01*
X100972720Y-110451929D01*
X100845993Y-110042539D01*
X100799500Y-109600190D01*
X100799500Y-85487747D01*
X100842962Y-85044491D01*
X100966828Y-84634225D01*
X101168023Y-84255831D01*
X101438886Y-83923721D01*
X101769090Y-83650553D01*
X102146069Y-83446721D01*
X102555462Y-83319993D01*
X102997810Y-83273500D01*
X135238253Y-83273500D01*
X135681509Y-83316962D01*
%TD*%
D25*
X124968000Y-89916000D03*
X115824000Y-86868000D03*
X121920000Y-86868000D03*
X128016000Y-86868000D03*
X112776000Y-83820000D03*
X118872000Y-83820000D03*
X124968000Y-83820000D03*
X131064000Y-83820000D03*
X112776000Y-89916000D03*
X102616000Y-97536000D03*
X102616000Y-100584000D03*
X102616000Y-103632000D03*
X102616000Y-91440000D03*
X128016000Y-99060000D03*
X128016000Y-111252000D03*
X121920000Y-111252000D03*
X115824000Y-111252000D03*
X109728000Y-111252000D03*
X103632000Y-83820000D03*
X103632000Y-111252000D03*
X112776000Y-108204000D03*
X118872000Y-108204000D03*
X131064000Y-108204000D03*
X106807000Y-85471000D03*
X134366000Y-85471000D03*
X106807000Y-109601000D03*
X134493000Y-109601000D03*
X109728000Y-86868000D03*
X120678000Y-99286000D03*
X121694000Y-99286000D03*
X120396000Y-102997000D03*
X120650000Y-103632000D03*
X109728000Y-103759000D03*
X109728000Y-103124000D03*
X108204000Y-91948000D03*
X110236000Y-92456000D03*
X136398000Y-106426000D03*
X136398000Y-103886000D03*
X136398000Y-101346000D03*
X136398000Y-98806000D03*
X136398000Y-96266000D03*
X136398000Y-93726000D03*
X136398000Y-91186000D03*
X136398000Y-88646000D03*
X131254000Y-90424000D03*
X129254000Y-90424000D03*
X127254000Y-90424000D03*
X128016000Y-104648000D03*
X130016000Y-104648000D03*
X122428000Y-88773000D03*
M02*
