%TF.GenerationSoftware,KiCad,Pcbnew,(5.1.6)-1*%
%TF.CreationDate,2020-05-23T23:32:43+08:00*%
%TF.ProjectId,ePap,65506170-2e6b-4696-9361-645f70636258,rev?*%
%TF.SameCoordinates,Original*%
%TF.FileFunction,Paste,Bot*%
%TF.FilePolarity,Positive*%
%FSLAX46Y46*%
G04 Gerber Fmt 4.6, Leading zero omitted, Abs format (unit mm)*
G04 Created by KiCad (PCBNEW (5.1.6)-1) date 2020-05-23 23:32:43*
%MOMM*%
%LPD*%
G01*
G04 APERTURE LIST*
%ADD10C,0.300000*%
%ADD11R,1.200000X0.900000*%
%ADD12R,1.100000X0.300000*%
%ADD13R,3.100000X2.300000*%
%ADD14R,1.800000X2.900000*%
%ADD15R,0.800000X0.900000*%
%ADD16R,2.000000X3.800000*%
%ADD17R,2.000000X1.500000*%
G04 APERTURE END LIST*
D10*
X105890142Y-89786000D02*
X105961571Y-90000285D01*
X105961571Y-90357428D01*
X105890142Y-90500285D01*
X105818714Y-90571714D01*
X105675857Y-90643142D01*
X105533000Y-90643142D01*
X105390142Y-90571714D01*
X105318714Y-90500285D01*
X105247285Y-90357428D01*
X105175857Y-90071714D01*
X105104428Y-89928857D01*
X105033000Y-89857428D01*
X104890142Y-89786000D01*
X104747285Y-89786000D01*
X104604428Y-89857428D01*
X104533000Y-89928857D01*
X104461571Y-90071714D01*
X104461571Y-90428857D01*
X104533000Y-90643142D01*
X105961571Y-91928857D02*
X104461571Y-91928857D01*
X105890142Y-91928857D02*
X105961571Y-91786000D01*
X105961571Y-91500285D01*
X105890142Y-91357428D01*
X105818714Y-91286000D01*
X105675857Y-91214571D01*
X105247285Y-91214571D01*
X105104428Y-91286000D01*
X105033000Y-91357428D01*
X104961571Y-91500285D01*
X104961571Y-91786000D01*
X105033000Y-91928857D01*
X104961571Y-92428857D02*
X104961571Y-93000285D01*
X104461571Y-92643142D02*
X105747285Y-92643142D01*
X105890142Y-92714571D01*
X105961571Y-92857428D01*
X105961571Y-93000285D01*
X105175857Y-93500285D02*
X105175857Y-94000285D01*
X105961571Y-94214571D02*
X105961571Y-93500285D01*
X104461571Y-93500285D01*
X104461571Y-94214571D01*
X105961571Y-95071714D02*
X105890142Y-94928857D01*
X105747285Y-94857428D01*
X104461571Y-94857428D01*
X105890142Y-96214571D02*
X105961571Y-96071714D01*
X105961571Y-95786000D01*
X105890142Y-95643142D01*
X105747285Y-95571714D01*
X105175857Y-95571714D01*
X105033000Y-95643142D01*
X104961571Y-95786000D01*
X104961571Y-96071714D01*
X105033000Y-96214571D01*
X105175857Y-96286000D01*
X105318714Y-96286000D01*
X105461571Y-95571714D01*
X105890142Y-97571714D02*
X105961571Y-97428857D01*
X105961571Y-97143142D01*
X105890142Y-97000285D01*
X105818714Y-96928857D01*
X105675857Y-96857428D01*
X105247285Y-96857428D01*
X105104428Y-96928857D01*
X105033000Y-97000285D01*
X104961571Y-97143142D01*
X104961571Y-97428857D01*
X105033000Y-97571714D01*
X104961571Y-98000285D02*
X104961571Y-98571714D01*
X104461571Y-98214571D02*
X105747285Y-98214571D01*
X105890142Y-98286000D01*
X105961571Y-98428857D01*
X105961571Y-98571714D01*
X105961571Y-99071714D02*
X104961571Y-99071714D01*
X105247285Y-99071714D02*
X105104428Y-99143142D01*
X105033000Y-99214571D01*
X104961571Y-99357428D01*
X104961571Y-99500285D01*
X105961571Y-100214571D02*
X105890142Y-100071714D01*
X105818714Y-100000285D01*
X105675857Y-99928857D01*
X105247285Y-99928857D01*
X105104428Y-100000285D01*
X105033000Y-100071714D01*
X104961571Y-100214571D01*
X104961571Y-100428857D01*
X105033000Y-100571714D01*
X105104428Y-100643142D01*
X105247285Y-100714571D01*
X105675857Y-100714571D01*
X105818714Y-100643142D01*
X105890142Y-100571714D01*
X105961571Y-100428857D01*
X105961571Y-100214571D01*
X104961571Y-101357428D02*
X105961571Y-101357428D01*
X105104428Y-101357428D02*
X105033000Y-101428857D01*
X104961571Y-101571714D01*
X104961571Y-101786000D01*
X105033000Y-101928857D01*
X105175857Y-102000285D01*
X105961571Y-102000285D01*
X105961571Y-102714571D02*
X104961571Y-102714571D01*
X104461571Y-102714571D02*
X104533000Y-102643142D01*
X104604428Y-102714571D01*
X104533000Y-102786000D01*
X104461571Y-102714571D01*
X104604428Y-102714571D01*
X105890142Y-104071714D02*
X105961571Y-103928857D01*
X105961571Y-103643142D01*
X105890142Y-103500285D01*
X105818714Y-103428857D01*
X105675857Y-103357428D01*
X105247285Y-103357428D01*
X105104428Y-103428857D01*
X105033000Y-103500285D01*
X104961571Y-103643142D01*
X104961571Y-103928857D01*
X105033000Y-104071714D01*
X105890142Y-104643142D02*
X105961571Y-104786000D01*
X105961571Y-105071714D01*
X105890142Y-105214571D01*
X105747285Y-105286000D01*
X105675857Y-105286000D01*
X105533000Y-105214571D01*
X105461571Y-105071714D01*
X105461571Y-104857428D01*
X105390142Y-104714571D01*
X105247285Y-104643142D01*
X105175857Y-104643142D01*
X105033000Y-104714571D01*
X104961571Y-104857428D01*
X104961571Y-105071714D01*
X105033000Y-105214571D01*
X101866000Y-86893142D02*
X101794571Y-86750285D01*
X101794571Y-86536000D01*
X101866000Y-86321714D01*
X102008857Y-86178857D01*
X102151714Y-86107428D01*
X102437428Y-86036000D01*
X102651714Y-86036000D01*
X102937428Y-86107428D01*
X103080285Y-86178857D01*
X103223142Y-86321714D01*
X103294571Y-86536000D01*
X103294571Y-86678857D01*
X103223142Y-86893142D01*
X103151714Y-86964571D01*
X102651714Y-86964571D01*
X102651714Y-86678857D01*
X103223142Y-88178857D02*
X103294571Y-88036000D01*
X103294571Y-87750285D01*
X103223142Y-87607428D01*
X103080285Y-87536000D01*
X102508857Y-87536000D01*
X102366000Y-87607428D01*
X102294571Y-87750285D01*
X102294571Y-88036000D01*
X102366000Y-88178857D01*
X102508857Y-88250285D01*
X102651714Y-88250285D01*
X102794571Y-87536000D01*
X102294571Y-88893142D02*
X103294571Y-88893142D01*
X102437428Y-88893142D02*
X102366000Y-88964571D01*
X102294571Y-89107428D01*
X102294571Y-89321714D01*
X102366000Y-89464571D01*
X102508857Y-89536000D01*
X103294571Y-89536000D01*
X103223142Y-90821714D02*
X103294571Y-90678857D01*
X103294571Y-90393142D01*
X103223142Y-90250285D01*
X103080285Y-90178857D01*
X102508857Y-90178857D01*
X102366000Y-90250285D01*
X102294571Y-90393142D01*
X102294571Y-90678857D01*
X102366000Y-90821714D01*
X102508857Y-90893142D01*
X102651714Y-90893142D01*
X102794571Y-90178857D01*
X103294571Y-91536000D02*
X102294571Y-91536000D01*
X102580285Y-91536000D02*
X102437428Y-91607428D01*
X102366000Y-91678857D01*
X102294571Y-91821714D01*
X102294571Y-91964571D01*
X103294571Y-92464571D02*
X102294571Y-92464571D01*
X101794571Y-92464571D02*
X101866000Y-92393142D01*
X101937428Y-92464571D01*
X101866000Y-92536000D01*
X101794571Y-92464571D01*
X101937428Y-92464571D01*
X103223142Y-93821714D02*
X103294571Y-93678857D01*
X103294571Y-93393142D01*
X103223142Y-93250285D01*
X103151714Y-93178857D01*
X103008857Y-93107428D01*
X102580285Y-93107428D01*
X102437428Y-93178857D01*
X102366000Y-93250285D01*
X102294571Y-93393142D01*
X102294571Y-93678857D01*
X102366000Y-93821714D01*
X103223142Y-96178857D02*
X103294571Y-96036000D01*
X103294571Y-95750285D01*
X103223142Y-95607428D01*
X103080285Y-95536000D01*
X102508857Y-95536000D01*
X102366000Y-95607428D01*
X102294571Y-95750285D01*
X102294571Y-96036000D01*
X102366000Y-96178857D01*
X102508857Y-96250285D01*
X102651714Y-96250285D01*
X102794571Y-95536000D01*
X102723142Y-96893142D02*
X102723142Y-98036000D01*
X103294571Y-98750285D02*
X101794571Y-98750285D01*
X102294571Y-99464571D02*
X103294571Y-99464571D01*
X102437428Y-99464571D02*
X102366000Y-99536000D01*
X102294571Y-99678857D01*
X102294571Y-99893142D01*
X102366000Y-100036000D01*
X102508857Y-100107428D01*
X103294571Y-100107428D01*
X103294571Y-100821714D02*
X101794571Y-100821714D01*
X102723142Y-100964571D02*
X103294571Y-101393142D01*
X102294571Y-101393142D02*
X102866000Y-100821714D01*
X103294571Y-103178857D02*
X101794571Y-103178857D01*
X101794571Y-103536000D01*
X101866000Y-103750285D01*
X102008857Y-103893142D01*
X102151714Y-103964571D01*
X102437428Y-104036000D01*
X102651714Y-104036000D01*
X102937428Y-103964571D01*
X103080285Y-103893142D01*
X103223142Y-103750285D01*
X103294571Y-103536000D01*
X103294571Y-103178857D01*
X103294571Y-104678857D02*
X102294571Y-104678857D01*
X102580285Y-104678857D02*
X102437428Y-104750285D01*
X102366000Y-104821714D01*
X102294571Y-104964571D01*
X102294571Y-105107428D01*
X103294571Y-105607428D02*
X102294571Y-105607428D01*
X101794571Y-105607428D02*
X101866000Y-105536000D01*
X101937428Y-105607428D01*
X101866000Y-105678857D01*
X101794571Y-105607428D01*
X101937428Y-105607428D01*
X102294571Y-106178857D02*
X103294571Y-106536000D01*
X102294571Y-106893142D01*
X103223142Y-108036000D02*
X103294571Y-107893142D01*
X103294571Y-107607428D01*
X103223142Y-107464571D01*
X103080285Y-107393142D01*
X102508857Y-107393142D01*
X102366000Y-107464571D01*
X102294571Y-107607428D01*
X102294571Y-107893142D01*
X102366000Y-108036000D01*
X102508857Y-108107428D01*
X102651714Y-108107428D01*
X102794571Y-107393142D01*
X103294571Y-108750285D02*
X102294571Y-108750285D01*
X102580285Y-108750285D02*
X102437428Y-108821714D01*
X102366000Y-108893142D01*
X102294571Y-109036000D01*
X102294571Y-109178857D01*
%TO.C,C9*%
G36*
G01*
X119871500Y-92501000D02*
X119396500Y-92501000D01*
G75*
G02*
X119159000Y-92263500I0J237500D01*
G01*
X119159000Y-91688500D01*
G75*
G02*
X119396500Y-91451000I237500J0D01*
G01*
X119871500Y-91451000D01*
G75*
G02*
X120109000Y-91688500I0J-237500D01*
G01*
X120109000Y-92263500D01*
G75*
G02*
X119871500Y-92501000I-237500J0D01*
G01*
G37*
G36*
G01*
X119871500Y-94251000D02*
X119396500Y-94251000D01*
G75*
G02*
X119159000Y-94013500I0J237500D01*
G01*
X119159000Y-93438500D01*
G75*
G02*
X119396500Y-93201000I237500J0D01*
G01*
X119871500Y-93201000D01*
G75*
G02*
X120109000Y-93438500I0J-237500D01*
G01*
X120109000Y-94013500D01*
G75*
G02*
X119871500Y-94251000I-237500J0D01*
G01*
G37*
%TD*%
%TO.C,C10*%
G36*
G01*
X111014500Y-99410000D02*
X111489500Y-99410000D01*
G75*
G02*
X111727000Y-99647500I0J-237500D01*
G01*
X111727000Y-100222500D01*
G75*
G02*
X111489500Y-100460000I-237500J0D01*
G01*
X111014500Y-100460000D01*
G75*
G02*
X110777000Y-100222500I0J237500D01*
G01*
X110777000Y-99647500D01*
G75*
G02*
X111014500Y-99410000I237500J0D01*
G01*
G37*
G36*
G01*
X111014500Y-97660000D02*
X111489500Y-97660000D01*
G75*
G02*
X111727000Y-97897500I0J-237500D01*
G01*
X111727000Y-98472500D01*
G75*
G02*
X111489500Y-98710000I-237500J0D01*
G01*
X111014500Y-98710000D01*
G75*
G02*
X110777000Y-98472500I0J237500D01*
G01*
X110777000Y-97897500D01*
G75*
G02*
X111014500Y-97660000I237500J0D01*
G01*
G37*
%TD*%
%TO.C,C11*%
G36*
G01*
X113554500Y-103248000D02*
X114029500Y-103248000D01*
G75*
G02*
X114267000Y-103485500I0J-237500D01*
G01*
X114267000Y-104060500D01*
G75*
G02*
X114029500Y-104298000I-237500J0D01*
G01*
X113554500Y-104298000D01*
G75*
G02*
X113317000Y-104060500I0J237500D01*
G01*
X113317000Y-103485500D01*
G75*
G02*
X113554500Y-103248000I237500J0D01*
G01*
G37*
G36*
G01*
X113554500Y-104998000D02*
X114029500Y-104998000D01*
G75*
G02*
X114267000Y-105235500I0J-237500D01*
G01*
X114267000Y-105810500D01*
G75*
G02*
X114029500Y-106048000I-237500J0D01*
G01*
X113554500Y-106048000D01*
G75*
G02*
X113317000Y-105810500I0J237500D01*
G01*
X113317000Y-105235500D01*
G75*
G02*
X113554500Y-104998000I237500J0D01*
G01*
G37*
%TD*%
%TO.C,C12*%
G36*
G01*
X111014500Y-104998000D02*
X111489500Y-104998000D01*
G75*
G02*
X111727000Y-105235500I0J-237500D01*
G01*
X111727000Y-105810500D01*
G75*
G02*
X111489500Y-106048000I-237500J0D01*
G01*
X111014500Y-106048000D01*
G75*
G02*
X110777000Y-105810500I0J237500D01*
G01*
X110777000Y-105235500D01*
G75*
G02*
X111014500Y-104998000I237500J0D01*
G01*
G37*
G36*
G01*
X111014500Y-103248000D02*
X111489500Y-103248000D01*
G75*
G02*
X111727000Y-103485500I0J-237500D01*
G01*
X111727000Y-104060500D01*
G75*
G02*
X111489500Y-104298000I-237500J0D01*
G01*
X111014500Y-104298000D01*
G75*
G02*
X110777000Y-104060500I0J237500D01*
G01*
X110777000Y-103485500D01*
G75*
G02*
X111014500Y-103248000I237500J0D01*
G01*
G37*
%TD*%
D11*
%TO.C,D1*%
X108204000Y-100710000D03*
X108204000Y-97410000D03*
%TD*%
%TO.C,D2*%
X113792000Y-100710000D03*
X113792000Y-97410000D03*
%TD*%
%TO.C,D3*%
X108204000Y-102998000D03*
X108204000Y-106298000D03*
%TD*%
D12*
%TO.C,J1*%
X132668000Y-99277000D03*
X132668000Y-98777000D03*
X132668000Y-98277000D03*
X132668000Y-97777000D03*
X132668000Y-97277000D03*
X132668000Y-96777000D03*
X132668000Y-96277000D03*
X132668000Y-95777000D03*
D13*
X130968000Y-100947000D03*
X130968000Y-94107000D03*
%TD*%
D14*
%TO.C,L1*%
X116408000Y-94488000D03*
X113208000Y-94488000D03*
%TD*%
D15*
%TO.C,Q1*%
X108336000Y-93472000D03*
X110236000Y-93472000D03*
X109286000Y-95472000D03*
%TD*%
%TO.C,R1*%
G36*
G01*
X108146001Y-88958000D02*
X107245999Y-88958000D01*
G75*
G02*
X106996000Y-88708001I0J249999D01*
G01*
X106996000Y-88057999D01*
G75*
G02*
X107245999Y-87808000I249999J0D01*
G01*
X108146001Y-87808000D01*
G75*
G02*
X108396000Y-88057999I0J-249999D01*
G01*
X108396000Y-88708001D01*
G75*
G02*
X108146001Y-88958000I-249999J0D01*
G01*
G37*
G36*
G01*
X108146001Y-91008000D02*
X107245999Y-91008000D01*
G75*
G02*
X106996000Y-90758001I0J249999D01*
G01*
X106996000Y-90107999D01*
G75*
G02*
X107245999Y-89858000I249999J0D01*
G01*
X108146001Y-89858000D01*
G75*
G02*
X108396000Y-90107999I0J-249999D01*
G01*
X108396000Y-90758001D01*
G75*
G02*
X108146001Y-91008000I-249999J0D01*
G01*
G37*
%TD*%
%TO.C,R2*%
G36*
G01*
X111194001Y-90999000D02*
X110293999Y-90999000D01*
G75*
G02*
X110044000Y-90749001I0J249999D01*
G01*
X110044000Y-90098999D01*
G75*
G02*
X110293999Y-89849000I249999J0D01*
G01*
X111194001Y-89849000D01*
G75*
G02*
X111444000Y-90098999I0J-249999D01*
G01*
X111444000Y-90749001D01*
G75*
G02*
X111194001Y-90999000I-249999J0D01*
G01*
G37*
G36*
G01*
X111194001Y-88949000D02*
X110293999Y-88949000D01*
G75*
G02*
X110044000Y-88699001I0J249999D01*
G01*
X110044000Y-88048999D01*
G75*
G02*
X110293999Y-87799000I249999J0D01*
G01*
X111194001Y-87799000D01*
G75*
G02*
X111444000Y-88048999I0J-249999D01*
G01*
X111444000Y-88699001D01*
G75*
G02*
X111194001Y-88949000I-249999J0D01*
G01*
G37*
%TD*%
D16*
%TO.C,U1*%
X117246000Y-99060000D03*
D17*
X123546000Y-99060000D03*
X123546000Y-101360000D03*
X123546000Y-96760000D03*
%TD*%
M02*
