%TF.GenerationSoftware,KiCad,Pcbnew,(5.1.6)-1*%
%TF.CreationDate,2020-05-23T23:32:43+08:00*%
%TF.ProjectId,ePap,65506170-2e6b-4696-9361-645f70636258,rev?*%
%TF.SameCoordinates,Original*%
%TF.FileFunction,Copper,L2,Bot*%
%TF.FilePolarity,Positive*%
%FSLAX46Y46*%
G04 Gerber Fmt 4.6, Leading zero omitted, Abs format (unit mm)*
G04 Created by KiCad (PCBNEW (5.1.6)-1) date 2020-05-23 23:32:43*
%MOMM*%
%LPD*%
G01*
G04 APERTURE LIST*
%TA.AperFunction,ComponentPad*%
%ADD10R,1.700000X1.700000*%
%TD*%
%TA.AperFunction,ComponentPad*%
%ADD11O,1.700000X1.700000*%
%TD*%
%TA.AperFunction,SMDPad,CuDef*%
%ADD12R,1.200000X0.900000*%
%TD*%
%TA.AperFunction,SMDPad,CuDef*%
%ADD13R,1.100000X0.300000*%
%TD*%
%TA.AperFunction,SMDPad,CuDef*%
%ADD14R,3.100000X2.300000*%
%TD*%
%TA.AperFunction,ComponentPad*%
%ADD15R,1.350000X1.350000*%
%TD*%
%TA.AperFunction,ComponentPad*%
%ADD16O,1.350000X1.350000*%
%TD*%
%TA.AperFunction,SMDPad,CuDef*%
%ADD17R,1.800000X2.900000*%
%TD*%
%TA.AperFunction,SMDPad,CuDef*%
%ADD18R,0.800000X0.900000*%
%TD*%
%TA.AperFunction,ComponentPad*%
%ADD19C,2.500000*%
%TD*%
%TA.AperFunction,SMDPad,CuDef*%
%ADD20R,2.000000X3.800000*%
%TD*%
%TA.AperFunction,SMDPad,CuDef*%
%ADD21R,2.000000X1.500000*%
%TD*%
%TA.AperFunction,ViaPad*%
%ADD22C,0.800000*%
%TD*%
%TA.AperFunction,ViaPad*%
%ADD23C,3.000000*%
%TD*%
%TA.AperFunction,Conductor*%
%ADD24C,0.250000*%
%TD*%
%TA.AperFunction,Conductor*%
%ADD25C,1.200000*%
%TD*%
%TA.AperFunction,Conductor*%
%ADD26C,0.300000*%
%TD*%
%TA.AperFunction,Conductor*%
%ADD27C,0.900000*%
%TD*%
%TA.AperFunction,Conductor*%
%ADD28C,0.800000*%
%TD*%
%TA.AperFunction,Conductor*%
%ADD29C,0.390000*%
%TD*%
%TA.AperFunction,Conductor*%
%ADD30C,0.127000*%
%TD*%
%ADD31C,0.350000*%
G04 APERTURE END LIST*
D10*
%TO.P,J4,1*%
%TO.N,/VIN*%
X136398000Y-106426000D03*
D11*
%TO.P,J4,2*%
%TO.N,GND*%
X136398000Y-103886000D03*
%TO.P,J4,3*%
%TO.N,/MOSI*%
X136398000Y-101346000D03*
%TO.P,J4,4*%
%TO.N,/SCK*%
X136398000Y-98806000D03*
%TO.P,J4,5*%
%TO.N,/CS*%
X136398000Y-96266000D03*
%TO.P,J4,6*%
%TO.N,/D\u005CC*%
X136398000Y-93726000D03*
%TO.P,J4,7*%
%TO.N,/RST*%
X136398000Y-91186000D03*
%TO.P,J4,8*%
%TO.N,/BUSY*%
X136398000Y-88646000D03*
%TD*%
%TO.P,C9,2*%
%TO.N,GND*%
%TA.AperFunction,SMDPad,CuDef*%
G36*
G01*
X119871500Y-92501000D02*
X119396500Y-92501000D01*
G75*
G02*
X119159000Y-92263500I0J237500D01*
G01*
X119159000Y-91688500D01*
G75*
G02*
X119396500Y-91451000I237500J0D01*
G01*
X119871500Y-91451000D01*
G75*
G02*
X120109000Y-91688500I0J-237500D01*
G01*
X120109000Y-92263500D01*
G75*
G02*
X119871500Y-92501000I-237500J0D01*
G01*
G37*
%TD.AperFunction*%
%TO.P,C9,1*%
%TO.N,+3V3*%
%TA.AperFunction,SMDPad,CuDef*%
G36*
G01*
X119871500Y-94251000D02*
X119396500Y-94251000D01*
G75*
G02*
X119159000Y-94013500I0J237500D01*
G01*
X119159000Y-93438500D01*
G75*
G02*
X119396500Y-93201000I237500J0D01*
G01*
X119871500Y-93201000D01*
G75*
G02*
X120109000Y-93438500I0J-237500D01*
G01*
X120109000Y-94013500D01*
G75*
G02*
X119871500Y-94251000I-237500J0D01*
G01*
G37*
%TD.AperFunction*%
%TD*%
%TO.P,C10,2*%
%TO.N,Net-(C10-Pad2)*%
%TA.AperFunction,SMDPad,CuDef*%
G36*
G01*
X111014500Y-99410000D02*
X111489500Y-99410000D01*
G75*
G02*
X111727000Y-99647500I0J-237500D01*
G01*
X111727000Y-100222500D01*
G75*
G02*
X111489500Y-100460000I-237500J0D01*
G01*
X111014500Y-100460000D01*
G75*
G02*
X110777000Y-100222500I0J237500D01*
G01*
X110777000Y-99647500D01*
G75*
G02*
X111014500Y-99410000I237500J0D01*
G01*
G37*
%TD.AperFunction*%
%TO.P,C10,1*%
%TO.N,Net-(C10-Pad1)*%
%TA.AperFunction,SMDPad,CuDef*%
G36*
G01*
X111014500Y-97660000D02*
X111489500Y-97660000D01*
G75*
G02*
X111727000Y-97897500I0J-237500D01*
G01*
X111727000Y-98472500D01*
G75*
G02*
X111489500Y-98710000I-237500J0D01*
G01*
X111014500Y-98710000D01*
G75*
G02*
X110777000Y-98472500I0J237500D01*
G01*
X110777000Y-97897500D01*
G75*
G02*
X111014500Y-97660000I237500J0D01*
G01*
G37*
%TD.AperFunction*%
%TD*%
%TO.P,C11,1*%
%TO.N,/PREVGH*%
%TA.AperFunction,SMDPad,CuDef*%
G36*
G01*
X113554500Y-103248000D02*
X114029500Y-103248000D01*
G75*
G02*
X114267000Y-103485500I0J-237500D01*
G01*
X114267000Y-104060500D01*
G75*
G02*
X114029500Y-104298000I-237500J0D01*
G01*
X113554500Y-104298000D01*
G75*
G02*
X113317000Y-104060500I0J237500D01*
G01*
X113317000Y-103485500D01*
G75*
G02*
X113554500Y-103248000I237500J0D01*
G01*
G37*
%TD.AperFunction*%
%TO.P,C11,2*%
%TO.N,GND*%
%TA.AperFunction,SMDPad,CuDef*%
G36*
G01*
X113554500Y-104998000D02*
X114029500Y-104998000D01*
G75*
G02*
X114267000Y-105235500I0J-237500D01*
G01*
X114267000Y-105810500D01*
G75*
G02*
X114029500Y-106048000I-237500J0D01*
G01*
X113554500Y-106048000D01*
G75*
G02*
X113317000Y-105810500I0J237500D01*
G01*
X113317000Y-105235500D01*
G75*
G02*
X113554500Y-104998000I237500J0D01*
G01*
G37*
%TD.AperFunction*%
%TD*%
%TO.P,C12,2*%
%TO.N,/PREVGL*%
%TA.AperFunction,SMDPad,CuDef*%
G36*
G01*
X111014500Y-104998000D02*
X111489500Y-104998000D01*
G75*
G02*
X111727000Y-105235500I0J-237500D01*
G01*
X111727000Y-105810500D01*
G75*
G02*
X111489500Y-106048000I-237500J0D01*
G01*
X111014500Y-106048000D01*
G75*
G02*
X110777000Y-105810500I0J237500D01*
G01*
X110777000Y-105235500D01*
G75*
G02*
X111014500Y-104998000I237500J0D01*
G01*
G37*
%TD.AperFunction*%
%TO.P,C12,1*%
%TO.N,GND*%
%TA.AperFunction,SMDPad,CuDef*%
G36*
G01*
X111014500Y-103248000D02*
X111489500Y-103248000D01*
G75*
G02*
X111727000Y-103485500I0J-237500D01*
G01*
X111727000Y-104060500D01*
G75*
G02*
X111489500Y-104298000I-237500J0D01*
G01*
X111014500Y-104298000D01*
G75*
G02*
X110777000Y-104060500I0J237500D01*
G01*
X110777000Y-103485500D01*
G75*
G02*
X111014500Y-103248000I237500J0D01*
G01*
G37*
%TD.AperFunction*%
%TD*%
D12*
%TO.P,D1,2*%
%TO.N,Net-(C10-Pad2)*%
X108204000Y-100710000D03*
%TO.P,D1,1*%
%TO.N,GND*%
X108204000Y-97410000D03*
%TD*%
%TO.P,D2,1*%
%TO.N,/PREVGH*%
X113792000Y-100710000D03*
%TO.P,D2,2*%
%TO.N,Net-(C10-Pad1)*%
X113792000Y-97410000D03*
%TD*%
%TO.P,D3,1*%
%TO.N,Net-(C10-Pad2)*%
X108204000Y-102998000D03*
%TO.P,D3,2*%
%TO.N,/PREVGL*%
X108204000Y-106298000D03*
%TD*%
D13*
%TO.P,J1,1*%
%TO.N,/VIN*%
X132668000Y-99277000D03*
%TO.P,J1,2*%
%TO.N,GND*%
X132668000Y-98777000D03*
%TO.P,J1,3*%
%TO.N,/MOSI*%
X132668000Y-98277000D03*
%TO.P,J1,4*%
%TO.N,/SCK*%
X132668000Y-97777000D03*
%TO.P,J1,5*%
%TO.N,/CS*%
X132668000Y-97277000D03*
%TO.P,J1,6*%
%TO.N,/D\u005CC*%
X132668000Y-96777000D03*
%TO.P,J1,7*%
%TO.N,/RST*%
X132668000Y-96277000D03*
%TO.P,J1,8*%
%TO.N,/BUSY*%
X132668000Y-95777000D03*
D14*
%TO.P,J1,MP*%
%TO.N,N/C*%
X130968000Y-100947000D03*
X130968000Y-94107000D03*
%TD*%
D15*
%TO.P,J2,1*%
%TO.N,GND*%
X131254000Y-90424000D03*
D16*
%TO.P,J2,2*%
%TO.N,/BS1*%
X129254000Y-90424000D03*
%TO.P,J2,3*%
%TO.N,+3V3*%
X127254000Y-90424000D03*
%TD*%
D15*
%TO.P,J3,1*%
%TO.N,+3V3*%
X128016000Y-104648000D03*
D16*
%TO.P,J3,2*%
%TO.N,/VIN*%
X130016000Y-104648000D03*
%TD*%
D17*
%TO.P,L1,1*%
%TO.N,+3V3*%
X116408000Y-94488000D03*
%TO.P,L1,2*%
%TO.N,Net-(C10-Pad1)*%
X113208000Y-94488000D03*
%TD*%
D18*
%TO.P,Q1,1*%
%TO.N,/GDR*%
X108336000Y-93472000D03*
%TO.P,Q1,2*%
%TO.N,/RESE*%
X110236000Y-93472000D03*
%TO.P,Q1,3*%
%TO.N,Net-(C10-Pad1)*%
X109286000Y-95472000D03*
%TD*%
%TO.P,R1,2*%
%TO.N,GND*%
%TA.AperFunction,SMDPad,CuDef*%
G36*
G01*
X108146001Y-88958000D02*
X107245999Y-88958000D01*
G75*
G02*
X106996000Y-88708001I0J249999D01*
G01*
X106996000Y-88057999D01*
G75*
G02*
X107245999Y-87808000I249999J0D01*
G01*
X108146001Y-87808000D01*
G75*
G02*
X108396000Y-88057999I0J-249999D01*
G01*
X108396000Y-88708001D01*
G75*
G02*
X108146001Y-88958000I-249999J0D01*
G01*
G37*
%TD.AperFunction*%
%TO.P,R1,1*%
%TO.N,/GDR*%
%TA.AperFunction,SMDPad,CuDef*%
G36*
G01*
X108146001Y-91008000D02*
X107245999Y-91008000D01*
G75*
G02*
X106996000Y-90758001I0J249999D01*
G01*
X106996000Y-90107999D01*
G75*
G02*
X107245999Y-89858000I249999J0D01*
G01*
X108146001Y-89858000D01*
G75*
G02*
X108396000Y-90107999I0J-249999D01*
G01*
X108396000Y-90758001D01*
G75*
G02*
X108146001Y-91008000I-249999J0D01*
G01*
G37*
%TD.AperFunction*%
%TD*%
%TO.P,R2,1*%
%TO.N,/RESE*%
%TA.AperFunction,SMDPad,CuDef*%
G36*
G01*
X111194001Y-90999000D02*
X110293999Y-90999000D01*
G75*
G02*
X110044000Y-90749001I0J249999D01*
G01*
X110044000Y-90098999D01*
G75*
G02*
X110293999Y-89849000I249999J0D01*
G01*
X111194001Y-89849000D01*
G75*
G02*
X111444000Y-90098999I0J-249999D01*
G01*
X111444000Y-90749001D01*
G75*
G02*
X111194001Y-90999000I-249999J0D01*
G01*
G37*
%TD.AperFunction*%
%TO.P,R2,2*%
%TO.N,GND*%
%TA.AperFunction,SMDPad,CuDef*%
G36*
G01*
X111194001Y-88949000D02*
X110293999Y-88949000D01*
G75*
G02*
X110044000Y-88699001I0J249999D01*
G01*
X110044000Y-88048999D01*
G75*
G02*
X110293999Y-87799000I249999J0D01*
G01*
X111194001Y-87799000D01*
G75*
G02*
X111444000Y-88048999I0J-249999D01*
G01*
X111444000Y-88699001D01*
G75*
G02*
X111194001Y-88949000I-249999J0D01*
G01*
G37*
%TD.AperFunction*%
%TD*%
D19*
%TO.P,TP3,1*%
%TO.N,GND*%
X122428000Y-88773000D03*
%TD*%
D20*
%TO.P,U1,4*%
%TO.N,+3V3*%
X117246000Y-99060000D03*
D21*
%TO.P,U1,2*%
X123546000Y-99060000D03*
%TO.P,U1,3*%
%TO.N,/VIN*%
X123546000Y-101360000D03*
%TO.P,U1,1*%
%TO.N,GND*%
X123546000Y-96760000D03*
%TD*%
D22*
%TO.N,GND*%
X124968000Y-89916000D03*
X115824000Y-86868000D03*
X121920000Y-86868000D03*
X128016000Y-86868000D03*
X112776000Y-83820000D03*
X118872000Y-83820000D03*
X124968000Y-83820000D03*
X131064000Y-83820000D03*
X112776000Y-89916000D03*
X102616000Y-97536000D03*
X102616000Y-100584000D03*
X102616000Y-103632000D03*
X102616000Y-91440000D03*
X128016000Y-99060000D03*
X128016000Y-111252000D03*
X121920000Y-111252000D03*
X115824000Y-111252000D03*
X109728000Y-111252000D03*
X103632000Y-83820000D03*
X103632000Y-111252000D03*
X112776000Y-108204000D03*
X118872000Y-108204000D03*
X131064000Y-108204000D03*
D23*
X106807000Y-85471000D03*
X134366000Y-85471000D03*
X106807000Y-109601000D03*
X134493000Y-109601000D03*
D22*
X109728000Y-86868000D03*
%TO.N,+3V3*%
X120678000Y-99286000D03*
X121694000Y-99286000D03*
%TO.N,/PREVGH*%
X120396000Y-102997000D03*
X120650000Y-103632000D03*
%TO.N,/PREVGL*%
X109728000Y-103759000D03*
X109728000Y-103124000D03*
%TO.N,/GDR*%
X108204000Y-91948000D03*
%TO.N,/RESE*%
X110236000Y-92456000D03*
%TD*%
D24*
%TO.N,GND*%
X111252000Y-103773000D02*
X111393000Y-103773000D01*
X113143000Y-105523000D02*
X113792000Y-105523000D01*
X111393000Y-103773000D02*
X113143000Y-105523000D01*
D25*
%TO.N,+3V3*%
X121920000Y-99060000D02*
X121694000Y-99286000D01*
X123546000Y-99060000D02*
X121920000Y-99060000D01*
X117246000Y-95326000D02*
X116408000Y-94488000D01*
X117246000Y-99060000D02*
X117246000Y-95326000D01*
X117472000Y-99286000D02*
X117246000Y-99060000D01*
X121694000Y-99286000D02*
X117472000Y-99286000D01*
X123546000Y-99060000D02*
X124968000Y-99060000D01*
X128016000Y-102108000D02*
X128016000Y-104648000D01*
X124968000Y-99060000D02*
X128016000Y-102108000D01*
D26*
X127254000Y-96774000D02*
X124968000Y-99060000D01*
X127254000Y-90424000D02*
X127254000Y-96774000D01*
D27*
X118846000Y-93726000D02*
X117246000Y-95326000D01*
X119634000Y-93726000D02*
X118846000Y-93726000D01*
%TO.N,Net-(C10-Pad2)*%
X108204000Y-100710000D02*
X108204000Y-102998000D01*
X110477000Y-100710000D02*
X111252000Y-99935000D01*
X108204000Y-100710000D02*
X110477000Y-100710000D01*
D24*
%TO.N,Net-(C10-Pad1)*%
X112224000Y-95472000D02*
X113208000Y-94488000D01*
D27*
X109286000Y-95472000D02*
X112224000Y-95472000D01*
X112027000Y-97410000D02*
X111252000Y-98185000D01*
X113792000Y-97410000D02*
X112027000Y-97410000D01*
X112027000Y-95669000D02*
X113208000Y-94488000D01*
X112027000Y-97410000D02*
X112027000Y-95669000D01*
D24*
%TO.N,/PREVGH*%
X113933000Y-103632000D02*
X113792000Y-103773000D01*
D27*
X113792000Y-100710000D02*
X113792000Y-103773000D01*
X119620000Y-103773000D02*
X120396000Y-102997000D01*
X113792000Y-103773000D02*
X119620000Y-103773000D01*
X120396000Y-103378000D02*
X120650000Y-103632000D01*
X120396000Y-102997000D02*
X120396000Y-103378000D01*
%TO.N,/PREVGL*%
X110477000Y-106298000D02*
X111252000Y-105523000D01*
X108204000Y-106298000D02*
X110477000Y-106298000D01*
X110926315Y-105523000D02*
X111252000Y-105523000D01*
D28*
X110777000Y-105523000D02*
X111252000Y-105523000D01*
X109728000Y-104474000D02*
X110777000Y-105523000D01*
X109728000Y-103124000D02*
X109728000Y-104474000D01*
D25*
%TO.N,/VIN*%
X123546000Y-101360000D02*
X123546000Y-106147000D01*
X123546000Y-106147000D02*
X124460000Y-107061000D01*
X124460000Y-107061000D02*
X129159000Y-107061000D01*
X130016000Y-106204000D02*
X130016000Y-104648000D01*
X129159000Y-107061000D02*
X130016000Y-106204000D01*
D24*
X134493000Y-101727000D02*
X134239000Y-101981000D01*
D29*
X134493000Y-100838000D02*
X134493000Y-101727000D01*
D27*
X134239000Y-101981000D02*
X134239000Y-101092000D01*
D29*
X133985000Y-100330000D02*
X134493000Y-100838000D01*
D24*
X133985000Y-101727000D02*
X134239000Y-101981000D01*
D29*
X133985000Y-100330000D02*
X133985000Y-101727000D01*
X133286500Y-99631500D02*
X133985000Y-100330000D01*
D27*
X133350000Y-104648000D02*
X134239000Y-103759000D01*
X130016000Y-104648000D02*
X133350000Y-104648000D01*
X134239000Y-103759000D02*
X134239000Y-101981000D01*
D29*
X132992000Y-99337000D02*
X133286500Y-99631500D01*
D24*
%TO.N,/MOSI*%
X132668000Y-98277000D02*
X133329000Y-98277000D01*
X133329000Y-98277000D02*
X133477000Y-98425000D01*
X133477000Y-98425000D02*
X136398000Y-101346000D01*
%TO.N,/SCK*%
X136385000Y-98819000D02*
X136398000Y-98806000D01*
X135014000Y-98819000D02*
X136385000Y-98819000D01*
X132668000Y-97777000D02*
X133972000Y-97777000D01*
X133972000Y-97777000D02*
X135014000Y-98819000D01*
%TO.N,/CS*%
X135387000Y-97277000D02*
X136398000Y-96266000D01*
X132668000Y-97277000D02*
X135387000Y-97277000D01*
%TO.N,/D\u005CC*%
X132668000Y-96777000D02*
X134109000Y-96777000D01*
X134109000Y-96777000D02*
X134747000Y-96139000D01*
X134747000Y-95377000D02*
X136398000Y-93726000D01*
X134747000Y-96139000D02*
X134747000Y-95377000D01*
%TO.N,/RST*%
X132668000Y-96277000D02*
X133720000Y-96277000D01*
X133720000Y-96277000D02*
X133985000Y-96012000D01*
X133985000Y-93599000D02*
X136398000Y-91186000D01*
X133985000Y-96012000D02*
X133985000Y-93599000D01*
%TO.N,/BUSY*%
X132668000Y-95777000D02*
X132950000Y-95777000D01*
X132950000Y-95777000D02*
X133350000Y-95377000D01*
X133350000Y-91694000D02*
X136398000Y-88646000D01*
X133350000Y-95377000D02*
X133350000Y-91694000D01*
%TO.N,/GDR*%
X108204000Y-93340000D02*
X108336000Y-93472000D01*
X108204000Y-90424000D02*
X108204000Y-91948000D01*
X108204000Y-91948000D02*
X108204000Y-93340000D01*
%TO.N,/RESE*%
X110236000Y-90932000D02*
X110744000Y-90424000D01*
X110236000Y-93472000D02*
X110236000Y-92456000D01*
X110236000Y-92456000D02*
X110236000Y-90932000D01*
%TD*%
D30*
%TO.N,GND*%
G36*
X135681509Y-83316962D02*
G01*
X136091775Y-83440828D01*
X136470169Y-83642023D01*
X136802279Y-83912886D01*
X137075447Y-84243090D01*
X137279279Y-84620069D01*
X137406007Y-85029462D01*
X137452501Y-85471816D01*
X137452501Y-88140966D01*
X137432625Y-88092981D01*
X137304856Y-87901762D01*
X137142238Y-87739144D01*
X136951019Y-87611375D01*
X136738547Y-87523366D01*
X136512989Y-87478500D01*
X136283011Y-87478500D01*
X136057453Y-87523366D01*
X135844981Y-87611375D01*
X135653762Y-87739144D01*
X135491144Y-87901762D01*
X135363375Y-88092981D01*
X135275366Y-88305453D01*
X135230500Y-88531011D01*
X135230500Y-88760989D01*
X135275366Y-88986547D01*
X135321144Y-89097066D01*
X133052476Y-91365735D01*
X133035592Y-91379591D01*
X133021736Y-91396475D01*
X133021735Y-91396476D01*
X132980295Y-91446971D01*
X132939205Y-91523844D01*
X132913904Y-91607255D01*
X132905359Y-91694000D01*
X132907501Y-91715745D01*
X132907500Y-95193711D01*
X132836252Y-95264959D01*
X132837036Y-95257000D01*
X132837036Y-92957000D01*
X132830906Y-92894759D01*
X132812751Y-92834910D01*
X132783269Y-92779753D01*
X132743593Y-92731407D01*
X132695247Y-92691731D01*
X132640090Y-92662249D01*
X132580241Y-92644094D01*
X132518000Y-92637964D01*
X129418000Y-92637964D01*
X129355759Y-92644094D01*
X129295910Y-92662249D01*
X129240753Y-92691731D01*
X129192407Y-92731407D01*
X129152731Y-92779753D01*
X129123249Y-92834910D01*
X129105094Y-92894759D01*
X129098964Y-92957000D01*
X129098964Y-95257000D01*
X129105094Y-95319241D01*
X129123249Y-95379090D01*
X129152731Y-95434247D01*
X129192407Y-95482593D01*
X129240753Y-95522269D01*
X129295910Y-95551751D01*
X129355759Y-95569906D01*
X129418000Y-95576036D01*
X131803983Y-95576036D01*
X131798964Y-95627000D01*
X131798964Y-95927000D01*
X131805094Y-95989241D01*
X131816548Y-96027000D01*
X131805094Y-96064759D01*
X131798964Y-96127000D01*
X131798964Y-96427000D01*
X131805094Y-96489241D01*
X131816548Y-96527000D01*
X131805094Y-96564759D01*
X131798964Y-96627000D01*
X131798964Y-96927000D01*
X131805094Y-96989241D01*
X131816548Y-97027000D01*
X131805094Y-97064759D01*
X131798964Y-97127000D01*
X131798964Y-97427000D01*
X131805094Y-97489241D01*
X131816548Y-97527000D01*
X131805094Y-97564759D01*
X131798964Y-97627000D01*
X131798964Y-97927000D01*
X131805094Y-97989241D01*
X131816548Y-98027000D01*
X131805094Y-98064759D01*
X131798964Y-98127000D01*
X131798964Y-98427000D01*
X131805094Y-98489241D01*
X131816585Y-98527122D01*
X131805811Y-98561259D01*
X131800500Y-98611125D01*
X131879875Y-98690500D01*
X131938597Y-98690500D01*
X131940753Y-98692269D01*
X131995910Y-98721751D01*
X132055759Y-98739906D01*
X132118000Y-98746036D01*
X132878500Y-98746036D01*
X132878500Y-98807964D01*
X132118000Y-98807964D01*
X132055759Y-98814094D01*
X131995910Y-98832249D01*
X131940753Y-98861731D01*
X131938597Y-98863500D01*
X131879875Y-98863500D01*
X131800500Y-98942875D01*
X131805811Y-98992741D01*
X131816585Y-99026878D01*
X131805094Y-99064759D01*
X131798964Y-99127000D01*
X131798964Y-99427000D01*
X131803983Y-99477964D01*
X129418000Y-99477964D01*
X129355759Y-99484094D01*
X129295910Y-99502249D01*
X129240753Y-99531731D01*
X129192407Y-99571407D01*
X129152731Y-99619753D01*
X129123249Y-99674910D01*
X129105094Y-99734759D01*
X129098964Y-99797000D01*
X129098964Y-102097000D01*
X129105094Y-102159241D01*
X129123249Y-102219090D01*
X129152731Y-102274247D01*
X129192407Y-102322593D01*
X129240753Y-102362269D01*
X129295910Y-102391751D01*
X129355759Y-102409906D01*
X129418000Y-102416036D01*
X132518000Y-102416036D01*
X132580241Y-102409906D01*
X132640090Y-102391751D01*
X132695247Y-102362269D01*
X132743593Y-102322593D01*
X132783269Y-102274247D01*
X132812751Y-102219090D01*
X132830906Y-102159241D01*
X132837036Y-102097000D01*
X132837036Y-99906820D01*
X133472500Y-100542284D01*
X133472501Y-101044145D01*
X133471500Y-101054302D01*
X133471500Y-102018697D01*
X133471501Y-102018707D01*
X133471500Y-103441091D01*
X133032092Y-103880500D01*
X130652107Y-103880500D01*
X130648682Y-103877075D01*
X130486125Y-103768458D01*
X130305501Y-103693641D01*
X130113753Y-103655500D01*
X129918247Y-103655500D01*
X129726499Y-103693641D01*
X129545875Y-103768458D01*
X129383318Y-103877075D01*
X129245075Y-104015318D01*
X129136458Y-104177875D01*
X129061641Y-104358499D01*
X129023500Y-104550247D01*
X129023500Y-104745753D01*
X129061641Y-104937501D01*
X129098501Y-105026488D01*
X129098500Y-105823959D01*
X128778960Y-106143500D01*
X124840041Y-106143500D01*
X124463500Y-105766960D01*
X124463500Y-102429036D01*
X124546000Y-102429036D01*
X124608241Y-102422906D01*
X124668090Y-102404751D01*
X124723247Y-102375269D01*
X124771593Y-102335593D01*
X124811269Y-102287247D01*
X124840751Y-102232090D01*
X124858906Y-102172241D01*
X124865036Y-102110000D01*
X124865036Y-100610000D01*
X124858906Y-100547759D01*
X124840751Y-100487910D01*
X124811269Y-100432753D01*
X124771593Y-100384407D01*
X124723247Y-100344731D01*
X124668090Y-100315249D01*
X124608241Y-100297094D01*
X124546000Y-100290964D01*
X122546000Y-100290964D01*
X122483759Y-100297094D01*
X122423910Y-100315249D01*
X122368753Y-100344731D01*
X122320407Y-100384407D01*
X122280731Y-100432753D01*
X122251249Y-100487910D01*
X122233094Y-100547759D01*
X122226964Y-100610000D01*
X122226964Y-102110000D01*
X122233094Y-102172241D01*
X122251249Y-102232090D01*
X122280731Y-102287247D01*
X122320407Y-102335593D01*
X122368753Y-102375269D01*
X122423910Y-102404751D01*
X122483759Y-102422906D01*
X122546000Y-102429036D01*
X122628500Y-102429036D01*
X122628501Y-106101928D01*
X122624062Y-106147000D01*
X122641776Y-106326861D01*
X122694239Y-106499810D01*
X122694240Y-106499811D01*
X122779437Y-106659202D01*
X122819639Y-106708188D01*
X122865361Y-106763901D01*
X122865364Y-106763904D01*
X122894092Y-106798909D01*
X122929096Y-106827637D01*
X123779363Y-107677904D01*
X123808091Y-107712909D01*
X123947798Y-107827564D01*
X124107189Y-107912761D01*
X124280139Y-107965224D01*
X124414931Y-107978500D01*
X124414940Y-107978500D01*
X124459999Y-107982938D01*
X124505058Y-107978500D01*
X129113938Y-107978500D01*
X129159000Y-107982938D01*
X129204062Y-107978500D01*
X129204069Y-107978500D01*
X129338861Y-107965224D01*
X129511811Y-107912761D01*
X129671202Y-107827564D01*
X129810909Y-107712909D01*
X129839641Y-107677899D01*
X130632905Y-106884636D01*
X130667909Y-106855909D01*
X130782564Y-106716202D01*
X130867761Y-106556811D01*
X130870192Y-106548797D01*
X130920224Y-106383862D01*
X130925838Y-106326861D01*
X130933500Y-106249069D01*
X130933500Y-106249063D01*
X130937938Y-106204001D01*
X130933500Y-106158939D01*
X130933500Y-105415500D01*
X133312302Y-105415500D01*
X133350000Y-105419213D01*
X133500456Y-105404394D01*
X133519052Y-105398753D01*
X133645130Y-105360508D01*
X133778463Y-105289240D01*
X133895330Y-105193330D01*
X133919370Y-105164037D01*
X134755048Y-104328361D01*
X134784330Y-104304330D01*
X134825352Y-104254344D01*
X135290129Y-104254344D01*
X135354150Y-104408931D01*
X135476226Y-104602528D01*
X135633725Y-104768589D01*
X135820595Y-104900733D01*
X136029654Y-104993881D01*
X136207500Y-104958488D01*
X136207500Y-104076500D01*
X135326680Y-104076500D01*
X135290129Y-104254344D01*
X134825352Y-104254344D01*
X134880240Y-104187463D01*
X134951508Y-104054130D01*
X134995394Y-103909456D01*
X135006500Y-103796698D01*
X135006500Y-103796697D01*
X135010213Y-103759000D01*
X135006500Y-103721302D01*
X135006500Y-103517656D01*
X135290129Y-103517656D01*
X135326680Y-103695500D01*
X136207500Y-103695500D01*
X136207500Y-102813512D01*
X136029654Y-102778119D01*
X135820595Y-102871267D01*
X135633725Y-103003411D01*
X135476226Y-103169472D01*
X135354150Y-103363069D01*
X135290129Y-103517656D01*
X135006500Y-103517656D01*
X135006500Y-101054302D01*
X135005500Y-101044149D01*
X135005500Y-100863159D01*
X135007978Y-100837999D01*
X135005500Y-100812839D01*
X135005500Y-100812830D01*
X134998084Y-100737533D01*
X134968779Y-100640926D01*
X134921189Y-100551893D01*
X134857145Y-100473855D01*
X134837594Y-100457810D01*
X134365189Y-99985405D01*
X134349145Y-99965855D01*
X134329594Y-99949810D01*
X133537036Y-99157252D01*
X133537036Y-99127000D01*
X133535269Y-99109058D01*
X135321144Y-100894934D01*
X135275366Y-101005453D01*
X135230500Y-101231011D01*
X135230500Y-101460989D01*
X135275366Y-101686547D01*
X135363375Y-101899019D01*
X135491144Y-102090238D01*
X135653762Y-102252856D01*
X135844981Y-102380625D01*
X136057453Y-102468634D01*
X136283011Y-102513500D01*
X136512989Y-102513500D01*
X136738547Y-102468634D01*
X136951019Y-102380625D01*
X137142238Y-102252856D01*
X137304856Y-102090238D01*
X137432625Y-101899019D01*
X137452500Y-101851036D01*
X137452500Y-103388785D01*
X137441850Y-103363069D01*
X137319774Y-103169472D01*
X137162275Y-103003411D01*
X136975405Y-102871267D01*
X136766346Y-102778119D01*
X136588500Y-102813512D01*
X136588500Y-103695500D01*
X136608500Y-103695500D01*
X136608500Y-104076500D01*
X136588500Y-104076500D01*
X136588500Y-104958488D01*
X136766346Y-104993881D01*
X136975405Y-104900733D01*
X137162275Y-104768589D01*
X137319774Y-104602528D01*
X137441850Y-104408931D01*
X137452500Y-104383215D01*
X137452500Y-105333097D01*
X137425247Y-105310731D01*
X137370090Y-105281249D01*
X137310241Y-105263094D01*
X137248000Y-105256964D01*
X135548000Y-105256964D01*
X135485759Y-105263094D01*
X135425910Y-105281249D01*
X135370753Y-105310731D01*
X135322407Y-105350407D01*
X135282731Y-105398753D01*
X135253249Y-105453910D01*
X135235094Y-105513759D01*
X135228964Y-105576000D01*
X135228964Y-107276000D01*
X135235094Y-107338241D01*
X135253249Y-107398090D01*
X135282731Y-107453247D01*
X135322407Y-107501593D01*
X135370753Y-107541269D01*
X135425910Y-107570751D01*
X135485759Y-107588906D01*
X135548000Y-107595036D01*
X137248000Y-107595036D01*
X137310241Y-107588906D01*
X137370090Y-107570751D01*
X137425247Y-107541269D01*
X137452500Y-107518903D01*
X137452500Y-109584253D01*
X137409038Y-110027508D01*
X137285172Y-110437775D01*
X137083974Y-110816173D01*
X136813117Y-111148276D01*
X136482910Y-111421447D01*
X136105929Y-111625280D01*
X135696539Y-111752007D01*
X135254190Y-111798500D01*
X103013747Y-111798500D01*
X102570492Y-111755038D01*
X102160225Y-111631172D01*
X101781827Y-111429974D01*
X101449724Y-111159117D01*
X101176553Y-110828910D01*
X100972720Y-110451929D01*
X100845993Y-110042539D01*
X100799500Y-109600190D01*
X100799500Y-100260000D01*
X107284964Y-100260000D01*
X107284964Y-101160000D01*
X107291094Y-101222241D01*
X107309249Y-101282090D01*
X107338731Y-101337247D01*
X107378407Y-101385593D01*
X107426753Y-101425269D01*
X107436500Y-101430479D01*
X107436501Y-102277521D01*
X107426753Y-102282731D01*
X107378407Y-102322407D01*
X107338731Y-102370753D01*
X107309249Y-102425910D01*
X107291094Y-102485759D01*
X107284964Y-102548000D01*
X107284964Y-103448000D01*
X107291094Y-103510241D01*
X107309249Y-103570090D01*
X107338731Y-103625247D01*
X107378407Y-103673593D01*
X107426753Y-103713269D01*
X107481910Y-103742751D01*
X107541759Y-103760906D01*
X107604000Y-103767036D01*
X108181897Y-103767036D01*
X108204000Y-103769213D01*
X108226103Y-103767036D01*
X108804000Y-103767036D01*
X108866241Y-103760906D01*
X108926090Y-103742751D01*
X108981247Y-103713269D01*
X109010500Y-103689262D01*
X109010500Y-103829668D01*
X109010501Y-103829671D01*
X109010501Y-104438758D01*
X109007030Y-104474000D01*
X109020883Y-104614654D01*
X109061910Y-104749903D01*
X109128535Y-104874550D01*
X109195732Y-104956429D01*
X109195736Y-104956433D01*
X109218198Y-104983803D01*
X109245568Y-105006265D01*
X109769802Y-105530500D01*
X108819596Y-105530500D01*
X108804000Y-105528964D01*
X107604000Y-105528964D01*
X107541759Y-105535094D01*
X107481910Y-105553249D01*
X107426753Y-105582731D01*
X107378407Y-105622407D01*
X107338731Y-105670753D01*
X107309249Y-105725910D01*
X107291094Y-105785759D01*
X107284964Y-105848000D01*
X107284964Y-106748000D01*
X107291094Y-106810241D01*
X107309249Y-106870090D01*
X107338731Y-106925247D01*
X107378407Y-106973593D01*
X107426753Y-107013269D01*
X107481910Y-107042751D01*
X107541759Y-107060906D01*
X107604000Y-107067036D01*
X108804000Y-107067036D01*
X108819596Y-107065500D01*
X110439302Y-107065500D01*
X110477000Y-107069213D01*
X110627456Y-107054394D01*
X110637906Y-107051224D01*
X110772130Y-107010508D01*
X110905463Y-106939240D01*
X111022330Y-106843330D01*
X111046370Y-106814037D01*
X111493795Y-106366613D01*
X111598075Y-106356342D01*
X111702477Y-106324672D01*
X111798695Y-106273243D01*
X111883030Y-106204030D01*
X111952243Y-106119695D01*
X111990564Y-106048000D01*
X112997964Y-106048000D01*
X113004094Y-106110241D01*
X113022249Y-106170090D01*
X113051731Y-106225247D01*
X113091407Y-106273593D01*
X113139753Y-106313269D01*
X113194910Y-106342751D01*
X113254759Y-106360906D01*
X113317000Y-106367036D01*
X113522125Y-106365500D01*
X113601500Y-106286125D01*
X113601500Y-105713500D01*
X113982500Y-105713500D01*
X113982500Y-106286125D01*
X114061875Y-106365500D01*
X114267000Y-106367036D01*
X114329241Y-106360906D01*
X114389090Y-106342751D01*
X114444247Y-106313269D01*
X114492593Y-106273593D01*
X114532269Y-106225247D01*
X114561751Y-106170090D01*
X114579906Y-106110241D01*
X114586036Y-106048000D01*
X114584500Y-105792875D01*
X114505125Y-105713500D01*
X113982500Y-105713500D01*
X113601500Y-105713500D01*
X113078875Y-105713500D01*
X112999500Y-105792875D01*
X112997964Y-106048000D01*
X111990564Y-106048000D01*
X112003672Y-106023477D01*
X112035342Y-105919075D01*
X112046036Y-105810500D01*
X112046036Y-105235500D01*
X112035342Y-105126925D01*
X112003672Y-105022523D01*
X111990565Y-104998000D01*
X112997964Y-104998000D01*
X112999500Y-105253125D01*
X113078875Y-105332500D01*
X113601500Y-105332500D01*
X113601500Y-104759875D01*
X113982500Y-104759875D01*
X113982500Y-105332500D01*
X114505125Y-105332500D01*
X114584500Y-105253125D01*
X114586036Y-104998000D01*
X114579906Y-104935759D01*
X114561751Y-104875910D01*
X114532269Y-104820753D01*
X114492593Y-104772407D01*
X114444247Y-104732731D01*
X114389090Y-104703249D01*
X114329241Y-104685094D01*
X114267000Y-104678964D01*
X114061875Y-104680500D01*
X113982500Y-104759875D01*
X113601500Y-104759875D01*
X113522125Y-104680500D01*
X113317000Y-104678964D01*
X113254759Y-104685094D01*
X113194910Y-104703249D01*
X113139753Y-104732731D01*
X113091407Y-104772407D01*
X113051731Y-104820753D01*
X113022249Y-104875910D01*
X113004094Y-104935759D01*
X112997964Y-104998000D01*
X111990565Y-104998000D01*
X111952243Y-104926305D01*
X111883030Y-104841970D01*
X111798695Y-104772757D01*
X111702477Y-104721328D01*
X111598075Y-104689658D01*
X111489500Y-104678964D01*
X111014500Y-104678964D01*
X110953655Y-104684957D01*
X110884925Y-104616228D01*
X110982125Y-104615500D01*
X111061500Y-104536125D01*
X111061500Y-103963500D01*
X111442500Y-103963500D01*
X111442500Y-104536125D01*
X111521875Y-104615500D01*
X111727000Y-104617036D01*
X111789241Y-104610906D01*
X111849090Y-104592751D01*
X111904247Y-104563269D01*
X111952593Y-104523593D01*
X111992269Y-104475247D01*
X112021751Y-104420090D01*
X112039906Y-104360241D01*
X112046036Y-104298000D01*
X112044500Y-104042875D01*
X111965125Y-103963500D01*
X111442500Y-103963500D01*
X111061500Y-103963500D01*
X110538875Y-103963500D01*
X110459500Y-104042875D01*
X110458615Y-104189917D01*
X110445500Y-104176803D01*
X110445500Y-103248000D01*
X110457964Y-103248000D01*
X110459500Y-103503125D01*
X110538875Y-103582500D01*
X111061500Y-103582500D01*
X111061500Y-103009875D01*
X111442500Y-103009875D01*
X111442500Y-103582500D01*
X111965125Y-103582500D01*
X112044500Y-103503125D01*
X112046036Y-103248000D01*
X112039906Y-103185759D01*
X112021751Y-103125910D01*
X111992269Y-103070753D01*
X111952593Y-103022407D01*
X111904247Y-102982731D01*
X111849090Y-102953249D01*
X111789241Y-102935094D01*
X111727000Y-102928964D01*
X111521875Y-102930500D01*
X111442500Y-103009875D01*
X111061500Y-103009875D01*
X110982125Y-102930500D01*
X110777000Y-102928964D01*
X110714759Y-102935094D01*
X110654910Y-102953249D01*
X110599753Y-102982731D01*
X110551407Y-103022407D01*
X110511731Y-103070753D01*
X110482249Y-103125910D01*
X110464094Y-103185759D01*
X110457964Y-103248000D01*
X110445500Y-103248000D01*
X110445500Y-103053332D01*
X110438589Y-103018588D01*
X110435118Y-102983346D01*
X110424838Y-102949459D01*
X110417927Y-102914713D01*
X110404369Y-102881980D01*
X110394090Y-102848096D01*
X110377401Y-102816873D01*
X110363841Y-102784136D01*
X110344153Y-102754671D01*
X110327465Y-102723450D01*
X110305008Y-102696086D01*
X110285319Y-102666620D01*
X110260257Y-102641558D01*
X110237802Y-102614197D01*
X110210443Y-102591744D01*
X110185380Y-102566681D01*
X110155910Y-102546990D01*
X110128549Y-102524535D01*
X110097333Y-102507850D01*
X110067864Y-102488159D01*
X110035122Y-102474597D01*
X110003903Y-102457910D01*
X109970023Y-102447633D01*
X109937287Y-102434073D01*
X109902538Y-102427161D01*
X109868653Y-102416882D01*
X109833413Y-102413411D01*
X109798668Y-102406500D01*
X109763242Y-102406500D01*
X109728000Y-102403029D01*
X109692758Y-102406500D01*
X109657332Y-102406500D01*
X109622588Y-102413411D01*
X109587346Y-102416882D01*
X109553459Y-102427162D01*
X109518713Y-102434073D01*
X109485980Y-102447631D01*
X109452096Y-102457910D01*
X109420873Y-102474599D01*
X109388136Y-102488159D01*
X109358671Y-102507847D01*
X109327450Y-102524535D01*
X109300086Y-102546992D01*
X109270620Y-102566681D01*
X109245558Y-102591743D01*
X109218197Y-102614198D01*
X109195744Y-102641557D01*
X109170681Y-102666620D01*
X109150990Y-102696090D01*
X109128535Y-102723451D01*
X109123036Y-102733739D01*
X109123036Y-102548000D01*
X109116906Y-102485759D01*
X109098751Y-102425910D01*
X109069269Y-102370753D01*
X109029593Y-102322407D01*
X108981247Y-102282731D01*
X108971500Y-102277521D01*
X108971500Y-101477500D01*
X110439302Y-101477500D01*
X110477000Y-101481213D01*
X110627456Y-101466394D01*
X110645274Y-101460989D01*
X110772130Y-101422508D01*
X110905463Y-101351240D01*
X111022330Y-101255330D01*
X111046370Y-101226037D01*
X111493795Y-100778613D01*
X111598075Y-100768342D01*
X111702477Y-100736672D01*
X111798695Y-100685243D01*
X111883030Y-100616030D01*
X111952243Y-100531695D01*
X112003672Y-100435477D01*
X112035342Y-100331075D01*
X112042342Y-100260000D01*
X112872964Y-100260000D01*
X112872964Y-101160000D01*
X112879094Y-101222241D01*
X112897249Y-101282090D01*
X112926731Y-101337247D01*
X112966407Y-101385593D01*
X113014753Y-101425269D01*
X113024500Y-101430479D01*
X113024501Y-103324698D01*
X113008658Y-103376925D01*
X112997964Y-103485500D01*
X112997964Y-104060500D01*
X113008658Y-104169075D01*
X113040328Y-104273477D01*
X113091757Y-104369695D01*
X113160970Y-104454030D01*
X113245305Y-104523243D01*
X113341523Y-104574672D01*
X113445925Y-104606342D01*
X113554500Y-104617036D01*
X114029500Y-104617036D01*
X114138075Y-104606342D01*
X114242477Y-104574672D01*
X114306409Y-104540500D01*
X119582302Y-104540500D01*
X119620000Y-104544213D01*
X119770456Y-104529394D01*
X119790733Y-104523243D01*
X119915130Y-104485508D01*
X120048463Y-104414240D01*
X120165330Y-104318330D01*
X120189370Y-104289037D01*
X120212546Y-104265861D01*
X120221537Y-104273239D01*
X120354870Y-104344507D01*
X120499543Y-104388394D01*
X120649999Y-104403212D01*
X120800455Y-104388394D01*
X120945130Y-104344507D01*
X121078462Y-104273239D01*
X121195329Y-104177329D01*
X121291239Y-104060462D01*
X121362507Y-103927130D01*
X121406394Y-103782455D01*
X121421212Y-103631999D01*
X121406394Y-103481543D01*
X121362507Y-103336870D01*
X121291239Y-103203537D01*
X121219360Y-103115952D01*
X121163500Y-103060092D01*
X121163500Y-103034698D01*
X121167213Y-102997000D01*
X121152394Y-102846544D01*
X121133463Y-102784136D01*
X121108508Y-102701870D01*
X121037240Y-102568537D01*
X120941330Y-102451670D01*
X120824462Y-102355760D01*
X120691129Y-102284492D01*
X120588134Y-102253249D01*
X120546456Y-102240606D01*
X120396000Y-102225787D01*
X120245544Y-102240606D01*
X120100870Y-102284492D01*
X119967537Y-102355760D01*
X119850670Y-102451670D01*
X119826639Y-102480952D01*
X119302092Y-103005500D01*
X114559500Y-103005500D01*
X114559500Y-101430479D01*
X114569247Y-101425269D01*
X114617593Y-101385593D01*
X114657269Y-101337247D01*
X114686751Y-101282090D01*
X114704906Y-101222241D01*
X114711036Y-101160000D01*
X114711036Y-100260000D01*
X114704906Y-100197759D01*
X114686751Y-100137910D01*
X114657269Y-100082753D01*
X114617593Y-100034407D01*
X114569247Y-99994731D01*
X114514090Y-99965249D01*
X114454241Y-99947094D01*
X114392000Y-99940964D01*
X113814103Y-99940964D01*
X113792000Y-99938787D01*
X113769897Y-99940964D01*
X113192000Y-99940964D01*
X113129759Y-99947094D01*
X113069910Y-99965249D01*
X113014753Y-99994731D01*
X112966407Y-100034407D01*
X112926731Y-100082753D01*
X112897249Y-100137910D01*
X112879094Y-100197759D01*
X112872964Y-100260000D01*
X112042342Y-100260000D01*
X112046036Y-100222500D01*
X112046036Y-99647500D01*
X112035342Y-99538925D01*
X112003672Y-99434523D01*
X111952243Y-99338305D01*
X111883030Y-99253970D01*
X111798695Y-99184757D01*
X111702477Y-99133328D01*
X111598075Y-99101658D01*
X111489500Y-99090964D01*
X111014500Y-99090964D01*
X110905925Y-99101658D01*
X110801523Y-99133328D01*
X110705305Y-99184757D01*
X110620970Y-99253970D01*
X110551757Y-99338305D01*
X110500328Y-99434523D01*
X110468658Y-99538925D01*
X110458387Y-99643205D01*
X110159092Y-99942500D01*
X108819596Y-99942500D01*
X108804000Y-99940964D01*
X108226103Y-99940964D01*
X108204000Y-99938787D01*
X108181897Y-99940964D01*
X107604000Y-99940964D01*
X107541759Y-99947094D01*
X107481910Y-99965249D01*
X107426753Y-99994731D01*
X107378407Y-100034407D01*
X107338731Y-100082753D01*
X107309249Y-100137910D01*
X107291094Y-100197759D01*
X107284964Y-100260000D01*
X100799500Y-100260000D01*
X100799500Y-97860000D01*
X107284964Y-97860000D01*
X107291094Y-97922241D01*
X107309249Y-97982090D01*
X107338731Y-98037247D01*
X107378407Y-98085593D01*
X107426753Y-98125269D01*
X107481910Y-98154751D01*
X107541759Y-98172906D01*
X107604000Y-98179036D01*
X107934125Y-98177500D01*
X108013500Y-98098125D01*
X108013500Y-97600500D01*
X108394500Y-97600500D01*
X108394500Y-98098125D01*
X108473875Y-98177500D01*
X108804000Y-98179036D01*
X108866241Y-98172906D01*
X108926090Y-98154751D01*
X108981247Y-98125269D01*
X109029593Y-98085593D01*
X109069269Y-98037247D01*
X109098751Y-97982090D01*
X109116906Y-97922241D01*
X109123036Y-97860000D01*
X109121500Y-97679875D01*
X109042125Y-97600500D01*
X108394500Y-97600500D01*
X108013500Y-97600500D01*
X107365875Y-97600500D01*
X107286500Y-97679875D01*
X107284964Y-97860000D01*
X100799500Y-97860000D01*
X100799500Y-96960000D01*
X107284964Y-96960000D01*
X107286500Y-97140125D01*
X107365875Y-97219500D01*
X108013500Y-97219500D01*
X108013500Y-96721875D01*
X108394500Y-96721875D01*
X108394500Y-97219500D01*
X109042125Y-97219500D01*
X109121500Y-97140125D01*
X109123036Y-96960000D01*
X109116906Y-96897759D01*
X109098751Y-96837910D01*
X109069269Y-96782753D01*
X109029593Y-96734407D01*
X108981247Y-96694731D01*
X108926090Y-96665249D01*
X108866241Y-96647094D01*
X108804000Y-96640964D01*
X108473875Y-96642500D01*
X108394500Y-96721875D01*
X108013500Y-96721875D01*
X107934125Y-96642500D01*
X107604000Y-96640964D01*
X107541759Y-96647094D01*
X107481910Y-96665249D01*
X107426753Y-96694731D01*
X107378407Y-96734407D01*
X107338731Y-96782753D01*
X107309249Y-96837910D01*
X107291094Y-96897759D01*
X107284964Y-96960000D01*
X100799500Y-96960000D01*
X100799500Y-95472000D01*
X108514787Y-95472000D01*
X108529606Y-95622456D01*
X108566964Y-95745610D01*
X108566964Y-95922000D01*
X108573094Y-95984241D01*
X108591249Y-96044090D01*
X108620731Y-96099247D01*
X108660407Y-96147593D01*
X108708753Y-96187269D01*
X108763910Y-96216751D01*
X108823759Y-96234906D01*
X108886000Y-96241036D01*
X109686000Y-96241036D01*
X109701596Y-96239500D01*
X111259501Y-96239500D01*
X111259500Y-97092091D01*
X111010205Y-97341387D01*
X110905925Y-97351658D01*
X110801523Y-97383328D01*
X110705305Y-97434757D01*
X110620970Y-97503970D01*
X110551757Y-97588305D01*
X110500328Y-97684523D01*
X110468658Y-97788925D01*
X110457964Y-97897500D01*
X110457964Y-98472500D01*
X110468658Y-98581075D01*
X110500328Y-98685477D01*
X110551757Y-98781695D01*
X110620970Y-98866030D01*
X110705305Y-98935243D01*
X110801523Y-98986672D01*
X110905925Y-99018342D01*
X111014500Y-99029036D01*
X111489500Y-99029036D01*
X111598075Y-99018342D01*
X111702477Y-98986672D01*
X111798695Y-98935243D01*
X111883030Y-98866030D01*
X111952243Y-98781695D01*
X112003672Y-98685477D01*
X112035342Y-98581075D01*
X112045613Y-98476795D01*
X112344908Y-98177500D01*
X113176404Y-98177500D01*
X113192000Y-98179036D01*
X114392000Y-98179036D01*
X114454241Y-98172906D01*
X114514090Y-98154751D01*
X114569247Y-98125269D01*
X114617593Y-98085593D01*
X114657269Y-98037247D01*
X114686751Y-97982090D01*
X114704906Y-97922241D01*
X114711036Y-97860000D01*
X114711036Y-96960000D01*
X114704906Y-96897759D01*
X114686751Y-96837910D01*
X114657269Y-96782753D01*
X114617593Y-96734407D01*
X114569247Y-96694731D01*
X114514090Y-96665249D01*
X114454241Y-96647094D01*
X114392000Y-96640964D01*
X113192000Y-96640964D01*
X113176404Y-96642500D01*
X112794500Y-96642500D01*
X112794500Y-96257036D01*
X114108000Y-96257036D01*
X114170241Y-96250906D01*
X114230090Y-96232751D01*
X114285247Y-96203269D01*
X114333593Y-96163593D01*
X114373269Y-96115247D01*
X114402751Y-96060090D01*
X114420906Y-96000241D01*
X114427036Y-95938000D01*
X114427036Y-93038000D01*
X115188964Y-93038000D01*
X115188964Y-95938000D01*
X115195094Y-96000241D01*
X115213249Y-96060090D01*
X115242731Y-96115247D01*
X115282407Y-96163593D01*
X115330753Y-96203269D01*
X115385910Y-96232751D01*
X115445759Y-96250906D01*
X115508000Y-96257036D01*
X116328501Y-96257036D01*
X116328501Y-96840964D01*
X116246000Y-96840964D01*
X116183759Y-96847094D01*
X116123910Y-96865249D01*
X116068753Y-96894731D01*
X116020407Y-96934407D01*
X115980731Y-96982753D01*
X115951249Y-97037910D01*
X115933094Y-97097759D01*
X115926964Y-97160000D01*
X115926964Y-100960000D01*
X115933094Y-101022241D01*
X115951249Y-101082090D01*
X115980731Y-101137247D01*
X116020407Y-101185593D01*
X116068753Y-101225269D01*
X116123910Y-101254751D01*
X116183759Y-101272906D01*
X116246000Y-101279036D01*
X118246000Y-101279036D01*
X118308241Y-101272906D01*
X118368090Y-101254751D01*
X118423247Y-101225269D01*
X118471593Y-101185593D01*
X118511269Y-101137247D01*
X118540751Y-101082090D01*
X118558906Y-101022241D01*
X118565036Y-100960000D01*
X118565036Y-100203500D01*
X121648938Y-100203500D01*
X121694000Y-100207938D01*
X121739062Y-100203500D01*
X121739069Y-100203500D01*
X121873861Y-100190224D01*
X122046811Y-100137761D01*
X122206202Y-100052564D01*
X122282767Y-99989728D01*
X122320407Y-100035593D01*
X122368753Y-100075269D01*
X122423910Y-100104751D01*
X122483759Y-100122906D01*
X122546000Y-100129036D01*
X124546000Y-100129036D01*
X124608241Y-100122906D01*
X124668090Y-100104751D01*
X124698797Y-100088338D01*
X127098500Y-102488041D01*
X127098501Y-103768008D01*
X127075731Y-103795753D01*
X127046249Y-103850910D01*
X127028094Y-103910759D01*
X127021964Y-103973000D01*
X127021964Y-105323000D01*
X127028094Y-105385241D01*
X127046249Y-105445090D01*
X127075731Y-105500247D01*
X127115407Y-105548593D01*
X127163753Y-105588269D01*
X127218910Y-105617751D01*
X127278759Y-105635906D01*
X127341000Y-105642036D01*
X128691000Y-105642036D01*
X128753241Y-105635906D01*
X128813090Y-105617751D01*
X128868247Y-105588269D01*
X128916593Y-105548593D01*
X128956269Y-105500247D01*
X128985751Y-105445090D01*
X129003906Y-105385241D01*
X129010036Y-105323000D01*
X129010036Y-103973000D01*
X129003906Y-103910759D01*
X128985751Y-103850910D01*
X128956269Y-103795753D01*
X128933500Y-103768009D01*
X128933500Y-102153062D01*
X128937938Y-102108000D01*
X128933500Y-102062938D01*
X128933500Y-102062931D01*
X128920224Y-101928139D01*
X128909946Y-101894254D01*
X128867761Y-101755189D01*
X128852694Y-101727001D01*
X128782564Y-101595798D01*
X128667909Y-101456091D01*
X128632905Y-101427364D01*
X125947342Y-98741802D01*
X127568332Y-97120813D01*
X127586172Y-97106172D01*
X127644593Y-97034986D01*
X127688003Y-96953770D01*
X127714736Y-96865646D01*
X127721500Y-96796967D01*
X127721500Y-96796966D01*
X127723762Y-96774001D01*
X127721500Y-96751036D01*
X127721500Y-91304629D01*
X127724125Y-91303542D01*
X127886682Y-91194925D01*
X128024925Y-91056682D01*
X128133542Y-90894125D01*
X128208359Y-90713501D01*
X128246500Y-90521753D01*
X128246500Y-90326247D01*
X128261500Y-90326247D01*
X128261500Y-90521753D01*
X128299641Y-90713501D01*
X128374458Y-90894125D01*
X128483075Y-91056682D01*
X128621318Y-91194925D01*
X128783875Y-91303542D01*
X128964499Y-91378359D01*
X129156247Y-91416500D01*
X129351753Y-91416500D01*
X129543501Y-91378359D01*
X129724125Y-91303542D01*
X129886682Y-91194925D01*
X129982607Y-91099000D01*
X130259964Y-91099000D01*
X130266094Y-91161241D01*
X130284249Y-91221090D01*
X130313731Y-91276247D01*
X130353407Y-91324593D01*
X130401753Y-91364269D01*
X130456910Y-91393751D01*
X130516759Y-91411906D01*
X130579000Y-91418036D01*
X130984125Y-91416500D01*
X131063500Y-91337125D01*
X131063500Y-90614500D01*
X131444500Y-90614500D01*
X131444500Y-91337125D01*
X131523875Y-91416500D01*
X131929000Y-91418036D01*
X131991241Y-91411906D01*
X132051090Y-91393751D01*
X132106247Y-91364269D01*
X132154593Y-91324593D01*
X132194269Y-91276247D01*
X132223751Y-91221090D01*
X132241906Y-91161241D01*
X132248036Y-91099000D01*
X132246500Y-90693875D01*
X132167125Y-90614500D01*
X131444500Y-90614500D01*
X131063500Y-90614500D01*
X130340875Y-90614500D01*
X130261500Y-90693875D01*
X130259964Y-91099000D01*
X129982607Y-91099000D01*
X130024925Y-91056682D01*
X130133542Y-90894125D01*
X130208359Y-90713501D01*
X130246500Y-90521753D01*
X130246500Y-90326247D01*
X130208359Y-90134499D01*
X130133542Y-89953875D01*
X130024925Y-89791318D01*
X129982607Y-89749000D01*
X130259964Y-89749000D01*
X130261500Y-90154125D01*
X130340875Y-90233500D01*
X131063500Y-90233500D01*
X131063500Y-89510875D01*
X131444500Y-89510875D01*
X131444500Y-90233500D01*
X132167125Y-90233500D01*
X132246500Y-90154125D01*
X132248036Y-89749000D01*
X132241906Y-89686759D01*
X132223751Y-89626910D01*
X132194269Y-89571753D01*
X132154593Y-89523407D01*
X132106247Y-89483731D01*
X132051090Y-89454249D01*
X131991241Y-89436094D01*
X131929000Y-89429964D01*
X131523875Y-89431500D01*
X131444500Y-89510875D01*
X131063500Y-89510875D01*
X130984125Y-89431500D01*
X130579000Y-89429964D01*
X130516759Y-89436094D01*
X130456910Y-89454249D01*
X130401753Y-89483731D01*
X130353407Y-89523407D01*
X130313731Y-89571753D01*
X130284249Y-89626910D01*
X130266094Y-89686759D01*
X130259964Y-89749000D01*
X129982607Y-89749000D01*
X129886682Y-89653075D01*
X129724125Y-89544458D01*
X129543501Y-89469641D01*
X129351753Y-89431500D01*
X129156247Y-89431500D01*
X128964499Y-89469641D01*
X128783875Y-89544458D01*
X128621318Y-89653075D01*
X128483075Y-89791318D01*
X128374458Y-89953875D01*
X128299641Y-90134499D01*
X128261500Y-90326247D01*
X128246500Y-90326247D01*
X128208359Y-90134499D01*
X128133542Y-89953875D01*
X128024925Y-89791318D01*
X127886682Y-89653075D01*
X127724125Y-89544458D01*
X127543501Y-89469641D01*
X127351753Y-89431500D01*
X127156247Y-89431500D01*
X126964499Y-89469641D01*
X126783875Y-89544458D01*
X126621318Y-89653075D01*
X126483075Y-89791318D01*
X126374458Y-89953875D01*
X126299641Y-90134499D01*
X126261500Y-90326247D01*
X126261500Y-90521753D01*
X126299641Y-90713501D01*
X126374458Y-90894125D01*
X126483075Y-91056682D01*
X126621318Y-91194925D01*
X126783875Y-91303542D01*
X126786500Y-91304629D01*
X126786501Y-96580354D01*
X125196366Y-98170490D01*
X125147861Y-98155776D01*
X125013069Y-98142500D01*
X125013062Y-98142500D01*
X124968000Y-98138062D01*
X124922938Y-98142500D01*
X124816479Y-98142500D01*
X124811269Y-98132753D01*
X124771593Y-98084407D01*
X124723247Y-98044731D01*
X124668090Y-98015249D01*
X124608241Y-97997094D01*
X124546000Y-97990964D01*
X122546000Y-97990964D01*
X122483759Y-97997094D01*
X122423910Y-98015249D01*
X122368753Y-98044731D01*
X122320407Y-98084407D01*
X122280731Y-98132753D01*
X122275521Y-98142500D01*
X121965058Y-98142500D01*
X121919999Y-98138062D01*
X121874940Y-98142500D01*
X121874931Y-98142500D01*
X121740139Y-98155776D01*
X121567189Y-98208239D01*
X121407798Y-98293436D01*
X121316333Y-98368500D01*
X118565036Y-98368500D01*
X118565036Y-97510000D01*
X122226964Y-97510000D01*
X122233094Y-97572241D01*
X122251249Y-97632090D01*
X122280731Y-97687247D01*
X122320407Y-97735593D01*
X122368753Y-97775269D01*
X122423910Y-97804751D01*
X122483759Y-97822906D01*
X122546000Y-97829036D01*
X123276125Y-97827500D01*
X123355500Y-97748125D01*
X123355500Y-96950500D01*
X123736500Y-96950500D01*
X123736500Y-97748125D01*
X123815875Y-97827500D01*
X124546000Y-97829036D01*
X124608241Y-97822906D01*
X124668090Y-97804751D01*
X124723247Y-97775269D01*
X124771593Y-97735593D01*
X124811269Y-97687247D01*
X124840751Y-97632090D01*
X124858906Y-97572241D01*
X124865036Y-97510000D01*
X124863500Y-97029875D01*
X124784125Y-96950500D01*
X123736500Y-96950500D01*
X123355500Y-96950500D01*
X122307875Y-96950500D01*
X122228500Y-97029875D01*
X122226964Y-97510000D01*
X118565036Y-97510000D01*
X118565036Y-97160000D01*
X118558906Y-97097759D01*
X118540751Y-97037910D01*
X118511269Y-96982753D01*
X118471593Y-96934407D01*
X118423247Y-96894731D01*
X118368090Y-96865249D01*
X118308241Y-96847094D01*
X118246000Y-96840964D01*
X118163500Y-96840964D01*
X118163500Y-96010000D01*
X122226964Y-96010000D01*
X122228500Y-96490125D01*
X122307875Y-96569500D01*
X123355500Y-96569500D01*
X123355500Y-95771875D01*
X123736500Y-95771875D01*
X123736500Y-96569500D01*
X124784125Y-96569500D01*
X124863500Y-96490125D01*
X124865036Y-96010000D01*
X124858906Y-95947759D01*
X124840751Y-95887910D01*
X124811269Y-95832753D01*
X124771593Y-95784407D01*
X124723247Y-95744731D01*
X124668090Y-95715249D01*
X124608241Y-95697094D01*
X124546000Y-95690964D01*
X123815875Y-95692500D01*
X123736500Y-95771875D01*
X123355500Y-95771875D01*
X123276125Y-95692500D01*
X122546000Y-95690964D01*
X122483759Y-95697094D01*
X122423910Y-95715249D01*
X122368753Y-95744731D01*
X122320407Y-95784407D01*
X122280731Y-95832753D01*
X122251249Y-95887910D01*
X122233094Y-95947759D01*
X122226964Y-96010000D01*
X118163500Y-96010000D01*
X118163500Y-95493907D01*
X119148472Y-94508937D01*
X119183523Y-94527672D01*
X119287925Y-94559342D01*
X119396500Y-94570036D01*
X119871500Y-94570036D01*
X119980075Y-94559342D01*
X120084477Y-94527672D01*
X120180695Y-94476243D01*
X120265030Y-94407030D01*
X120334243Y-94322695D01*
X120385672Y-94226477D01*
X120417342Y-94122075D01*
X120428036Y-94013500D01*
X120428036Y-93438500D01*
X120417342Y-93329925D01*
X120385672Y-93225523D01*
X120334243Y-93129305D01*
X120265030Y-93044970D01*
X120180695Y-92975757D01*
X120084477Y-92924328D01*
X119980075Y-92892658D01*
X119871500Y-92881964D01*
X119396500Y-92881964D01*
X119287925Y-92892658D01*
X119183523Y-92924328D01*
X119119591Y-92958500D01*
X118883698Y-92958500D01*
X118846000Y-92954787D01*
X118808302Y-92958500D01*
X118695544Y-92969606D01*
X118550870Y-93013492D01*
X118417537Y-93084760D01*
X118300670Y-93180670D01*
X118276638Y-93209953D01*
X117627036Y-93859556D01*
X117627036Y-93038000D01*
X117620906Y-92975759D01*
X117602751Y-92915910D01*
X117573269Y-92860753D01*
X117533593Y-92812407D01*
X117485247Y-92772731D01*
X117430090Y-92743249D01*
X117370241Y-92725094D01*
X117308000Y-92718964D01*
X115508000Y-92718964D01*
X115445759Y-92725094D01*
X115385910Y-92743249D01*
X115330753Y-92772731D01*
X115282407Y-92812407D01*
X115242731Y-92860753D01*
X115213249Y-92915910D01*
X115195094Y-92975759D01*
X115188964Y-93038000D01*
X114427036Y-93038000D01*
X114420906Y-92975759D01*
X114402751Y-92915910D01*
X114373269Y-92860753D01*
X114333593Y-92812407D01*
X114285247Y-92772731D01*
X114230090Y-92743249D01*
X114170241Y-92725094D01*
X114108000Y-92718964D01*
X112308000Y-92718964D01*
X112245759Y-92725094D01*
X112185910Y-92743249D01*
X112130753Y-92772731D01*
X112082407Y-92812407D01*
X112042731Y-92860753D01*
X112013249Y-92915910D01*
X111995094Y-92975759D01*
X111988964Y-93038000D01*
X111988964Y-94621628D01*
X111906092Y-94704500D01*
X109701596Y-94704500D01*
X109686000Y-94702964D01*
X108886000Y-94702964D01*
X108823759Y-94709094D01*
X108763910Y-94727249D01*
X108708753Y-94756731D01*
X108660407Y-94796407D01*
X108620731Y-94844753D01*
X108591249Y-94899910D01*
X108573094Y-94959759D01*
X108566964Y-95022000D01*
X108566964Y-95198390D01*
X108529606Y-95321544D01*
X108514787Y-95472000D01*
X100799500Y-95472000D01*
X100799500Y-90107999D01*
X106676964Y-90107999D01*
X106676964Y-90758001D01*
X106687898Y-90869014D01*
X106720279Y-90975761D01*
X106772864Y-91074140D01*
X106843630Y-91160370D01*
X106929860Y-91231136D01*
X107028239Y-91283721D01*
X107134986Y-91316102D01*
X107245999Y-91327036D01*
X107761501Y-91327036D01*
X107761501Y-91380738D01*
X107746620Y-91390681D01*
X107646681Y-91490620D01*
X107568159Y-91608136D01*
X107514073Y-91738713D01*
X107486500Y-91877332D01*
X107486500Y-92018668D01*
X107514073Y-92157287D01*
X107568159Y-92287864D01*
X107646681Y-92405380D01*
X107746620Y-92505319D01*
X107761500Y-92515262D01*
X107761501Y-92755262D01*
X107758753Y-92756731D01*
X107710407Y-92796407D01*
X107670731Y-92844753D01*
X107641249Y-92899910D01*
X107623094Y-92959759D01*
X107616964Y-93022000D01*
X107616964Y-93922000D01*
X107623094Y-93984241D01*
X107641249Y-94044090D01*
X107670731Y-94099247D01*
X107710407Y-94147593D01*
X107758753Y-94187269D01*
X107813910Y-94216751D01*
X107873759Y-94234906D01*
X107936000Y-94241036D01*
X108736000Y-94241036D01*
X108798241Y-94234906D01*
X108858090Y-94216751D01*
X108913247Y-94187269D01*
X108961593Y-94147593D01*
X109001269Y-94099247D01*
X109030751Y-94044090D01*
X109048906Y-93984241D01*
X109055036Y-93922000D01*
X109055036Y-93022000D01*
X109516964Y-93022000D01*
X109516964Y-93922000D01*
X109523094Y-93984241D01*
X109541249Y-94044090D01*
X109570731Y-94099247D01*
X109610407Y-94147593D01*
X109658753Y-94187269D01*
X109713910Y-94216751D01*
X109773759Y-94234906D01*
X109836000Y-94241036D01*
X110636000Y-94241036D01*
X110698241Y-94234906D01*
X110758090Y-94216751D01*
X110813247Y-94187269D01*
X110861593Y-94147593D01*
X110901269Y-94099247D01*
X110930751Y-94044090D01*
X110948906Y-93984241D01*
X110955036Y-93922000D01*
X110955036Y-93022000D01*
X110948906Y-92959759D01*
X110930751Y-92899910D01*
X110901269Y-92844753D01*
X110867042Y-92803046D01*
X110871841Y-92795864D01*
X110925927Y-92665287D01*
X110953500Y-92526668D01*
X110953500Y-92501000D01*
X118839964Y-92501000D01*
X118846094Y-92563241D01*
X118864249Y-92623090D01*
X118893731Y-92678247D01*
X118933407Y-92726593D01*
X118981753Y-92766269D01*
X119036910Y-92795751D01*
X119096759Y-92813906D01*
X119159000Y-92820036D01*
X119364125Y-92818500D01*
X119443500Y-92739125D01*
X119443500Y-92166500D01*
X119824500Y-92166500D01*
X119824500Y-92739125D01*
X119903875Y-92818500D01*
X120109000Y-92820036D01*
X120171241Y-92813906D01*
X120231090Y-92795751D01*
X120286247Y-92766269D01*
X120334593Y-92726593D01*
X120374269Y-92678247D01*
X120403751Y-92623090D01*
X120421906Y-92563241D01*
X120428036Y-92501000D01*
X120426500Y-92245875D01*
X120347125Y-92166500D01*
X119824500Y-92166500D01*
X119443500Y-92166500D01*
X118920875Y-92166500D01*
X118841500Y-92245875D01*
X118839964Y-92501000D01*
X110953500Y-92501000D01*
X110953500Y-92385332D01*
X110925927Y-92246713D01*
X110871841Y-92116136D01*
X110793319Y-91998620D01*
X110693380Y-91898681D01*
X110678500Y-91888738D01*
X110678500Y-91451000D01*
X118839964Y-91451000D01*
X118841500Y-91706125D01*
X118920875Y-91785500D01*
X119443500Y-91785500D01*
X119443500Y-91212875D01*
X119824500Y-91212875D01*
X119824500Y-91785500D01*
X120347125Y-91785500D01*
X120426500Y-91706125D01*
X120428036Y-91451000D01*
X120421906Y-91388759D01*
X120403751Y-91328910D01*
X120374269Y-91273753D01*
X120334593Y-91225407D01*
X120286247Y-91185731D01*
X120231090Y-91156249D01*
X120171241Y-91138094D01*
X120109000Y-91131964D01*
X119903875Y-91133500D01*
X119824500Y-91212875D01*
X119443500Y-91212875D01*
X119364125Y-91133500D01*
X119159000Y-91131964D01*
X119096759Y-91138094D01*
X119036910Y-91156249D01*
X118981753Y-91185731D01*
X118933407Y-91225407D01*
X118893731Y-91273753D01*
X118864249Y-91328910D01*
X118846094Y-91388759D01*
X118839964Y-91451000D01*
X110678500Y-91451000D01*
X110678500Y-91318036D01*
X111194001Y-91318036D01*
X111305014Y-91307102D01*
X111411761Y-91274721D01*
X111510140Y-91222136D01*
X111596370Y-91151370D01*
X111667136Y-91065140D01*
X111719721Y-90966761D01*
X111752102Y-90860014D01*
X111763036Y-90749001D01*
X111763036Y-90098999D01*
X111752102Y-89987986D01*
X111742617Y-89956717D01*
X121513691Y-89956717D01*
X121663103Y-90149888D01*
X121946418Y-90272656D01*
X122248240Y-90337793D01*
X122556970Y-90342795D01*
X122860743Y-90287471D01*
X123147886Y-90173946D01*
X123192897Y-90149888D01*
X123342309Y-89956717D01*
X122428000Y-89042408D01*
X121513691Y-89956717D01*
X111742617Y-89956717D01*
X111719721Y-89881239D01*
X111667136Y-89782860D01*
X111596370Y-89696630D01*
X111510140Y-89625864D01*
X111411761Y-89573279D01*
X111305014Y-89540898D01*
X111194001Y-89529964D01*
X110293999Y-89529964D01*
X110182986Y-89540898D01*
X110076239Y-89573279D01*
X109977860Y-89625864D01*
X109891630Y-89696630D01*
X109820864Y-89782860D01*
X109768279Y-89881239D01*
X109735898Y-89987986D01*
X109724964Y-90098999D01*
X109724964Y-90749001D01*
X109735898Y-90860014D01*
X109768279Y-90966761D01*
X109793501Y-91013948D01*
X109793500Y-91888738D01*
X109778620Y-91898681D01*
X109678681Y-91998620D01*
X109600159Y-92116136D01*
X109546073Y-92246713D01*
X109518500Y-92385332D01*
X109518500Y-92526668D01*
X109546073Y-92665287D01*
X109600159Y-92795864D01*
X109604958Y-92803046D01*
X109570731Y-92844753D01*
X109541249Y-92899910D01*
X109523094Y-92959759D01*
X109516964Y-93022000D01*
X109055036Y-93022000D01*
X109048906Y-92959759D01*
X109030751Y-92899910D01*
X109001269Y-92844753D01*
X108961593Y-92796407D01*
X108913247Y-92756731D01*
X108858090Y-92727249D01*
X108798241Y-92709094D01*
X108736000Y-92702964D01*
X108646500Y-92702964D01*
X108646500Y-92515262D01*
X108661380Y-92505319D01*
X108761319Y-92405380D01*
X108839841Y-92287864D01*
X108893927Y-92157287D01*
X108921500Y-92018668D01*
X108921500Y-91877332D01*
X108893927Y-91738713D01*
X108839841Y-91608136D01*
X108761319Y-91490620D01*
X108661380Y-91390681D01*
X108646500Y-91380738D01*
X108646500Y-91022946D01*
X108671721Y-90975761D01*
X108704102Y-90869014D01*
X108715036Y-90758001D01*
X108715036Y-90107999D01*
X108704102Y-89996986D01*
X108671721Y-89890239D01*
X108619136Y-89791860D01*
X108548370Y-89705630D01*
X108462140Y-89634864D01*
X108363761Y-89582279D01*
X108257014Y-89549898D01*
X108146001Y-89538964D01*
X107245999Y-89538964D01*
X107134986Y-89549898D01*
X107028239Y-89582279D01*
X106929860Y-89634864D01*
X106843630Y-89705630D01*
X106772864Y-89791860D01*
X106720279Y-89890239D01*
X106687898Y-89996986D01*
X106676964Y-90107999D01*
X100799500Y-90107999D01*
X100799500Y-88958000D01*
X106676964Y-88958000D01*
X106683094Y-89020241D01*
X106701249Y-89080090D01*
X106730731Y-89135247D01*
X106770407Y-89183593D01*
X106818753Y-89223269D01*
X106873910Y-89252751D01*
X106933759Y-89270906D01*
X106996000Y-89277036D01*
X107426125Y-89275500D01*
X107505500Y-89196125D01*
X107505500Y-88573500D01*
X107886500Y-88573500D01*
X107886500Y-89196125D01*
X107965875Y-89275500D01*
X108396000Y-89277036D01*
X108458241Y-89270906D01*
X108518090Y-89252751D01*
X108573247Y-89223269D01*
X108621593Y-89183593D01*
X108661269Y-89135247D01*
X108690751Y-89080090D01*
X108708906Y-89020241D01*
X108715036Y-88958000D01*
X108714991Y-88949000D01*
X109724964Y-88949000D01*
X109731094Y-89011241D01*
X109749249Y-89071090D01*
X109778731Y-89126247D01*
X109818407Y-89174593D01*
X109866753Y-89214269D01*
X109921910Y-89243751D01*
X109981759Y-89261906D01*
X110044000Y-89268036D01*
X110474125Y-89266500D01*
X110553500Y-89187125D01*
X110553500Y-88564500D01*
X110934500Y-88564500D01*
X110934500Y-89187125D01*
X111013875Y-89266500D01*
X111444000Y-89268036D01*
X111506241Y-89261906D01*
X111566090Y-89243751D01*
X111621247Y-89214269D01*
X111669593Y-89174593D01*
X111709269Y-89126247D01*
X111738751Y-89071090D01*
X111756906Y-89011241D01*
X111763036Y-88949000D01*
X111762800Y-88901970D01*
X120858205Y-88901970D01*
X120913529Y-89205743D01*
X121027054Y-89492886D01*
X121051112Y-89537897D01*
X121244283Y-89687309D01*
X122158592Y-88773000D01*
X122697408Y-88773000D01*
X123611717Y-89687309D01*
X123804888Y-89537897D01*
X123927656Y-89254582D01*
X123992793Y-88952760D01*
X123997795Y-88644030D01*
X123942471Y-88340257D01*
X123828946Y-88053114D01*
X123804888Y-88008103D01*
X123611717Y-87858691D01*
X122697408Y-88773000D01*
X122158592Y-88773000D01*
X121244283Y-87858691D01*
X121051112Y-88008103D01*
X120928344Y-88291418D01*
X120863207Y-88593240D01*
X120858205Y-88901970D01*
X111762800Y-88901970D01*
X111761500Y-88643875D01*
X111682125Y-88564500D01*
X110934500Y-88564500D01*
X110553500Y-88564500D01*
X109805875Y-88564500D01*
X109726500Y-88643875D01*
X109724964Y-88949000D01*
X108714991Y-88949000D01*
X108713500Y-88652875D01*
X108634125Y-88573500D01*
X107886500Y-88573500D01*
X107505500Y-88573500D01*
X106757875Y-88573500D01*
X106678500Y-88652875D01*
X106676964Y-88958000D01*
X100799500Y-88958000D01*
X100799500Y-87808000D01*
X106676964Y-87808000D01*
X106678500Y-88113125D01*
X106757875Y-88192500D01*
X107505500Y-88192500D01*
X107505500Y-87569875D01*
X107886500Y-87569875D01*
X107886500Y-88192500D01*
X108634125Y-88192500D01*
X108713500Y-88113125D01*
X108715036Y-87808000D01*
X108714150Y-87799000D01*
X109724964Y-87799000D01*
X109726500Y-88104125D01*
X109805875Y-88183500D01*
X110553500Y-88183500D01*
X110553500Y-87560875D01*
X110934500Y-87560875D01*
X110934500Y-88183500D01*
X111682125Y-88183500D01*
X111761500Y-88104125D01*
X111763036Y-87799000D01*
X111756906Y-87736759D01*
X111738751Y-87676910D01*
X111709269Y-87621753D01*
X111682622Y-87589283D01*
X121513691Y-87589283D01*
X122428000Y-88503592D01*
X123342309Y-87589283D01*
X123192897Y-87396112D01*
X122909582Y-87273344D01*
X122607760Y-87208207D01*
X122299030Y-87203205D01*
X121995257Y-87258529D01*
X121708114Y-87372054D01*
X121663103Y-87396112D01*
X121513691Y-87589283D01*
X111682622Y-87589283D01*
X111669593Y-87573407D01*
X111621247Y-87533731D01*
X111566090Y-87504249D01*
X111506241Y-87486094D01*
X111444000Y-87479964D01*
X111013875Y-87481500D01*
X110934500Y-87560875D01*
X110553500Y-87560875D01*
X110474125Y-87481500D01*
X110044000Y-87479964D01*
X109981759Y-87486094D01*
X109921910Y-87504249D01*
X109866753Y-87533731D01*
X109818407Y-87573407D01*
X109778731Y-87621753D01*
X109749249Y-87676910D01*
X109731094Y-87736759D01*
X109724964Y-87799000D01*
X108714150Y-87799000D01*
X108708906Y-87745759D01*
X108690751Y-87685910D01*
X108661269Y-87630753D01*
X108621593Y-87582407D01*
X108573247Y-87542731D01*
X108518090Y-87513249D01*
X108458241Y-87495094D01*
X108396000Y-87488964D01*
X107965875Y-87490500D01*
X107886500Y-87569875D01*
X107505500Y-87569875D01*
X107426125Y-87490500D01*
X106996000Y-87488964D01*
X106933759Y-87495094D01*
X106873910Y-87513249D01*
X106818753Y-87542731D01*
X106770407Y-87582407D01*
X106730731Y-87630753D01*
X106701249Y-87685910D01*
X106683094Y-87745759D01*
X106676964Y-87808000D01*
X100799500Y-87808000D01*
X100799500Y-85487747D01*
X100842962Y-85044491D01*
X100966828Y-84634225D01*
X101168023Y-84255831D01*
X101438886Y-83923721D01*
X101769090Y-83650553D01*
X102146069Y-83446721D01*
X102555462Y-83319993D01*
X102997810Y-83273500D01*
X135238253Y-83273500D01*
X135681509Y-83316962D01*
G37*
X135681509Y-83316962D02*
X136091775Y-83440828D01*
X136470169Y-83642023D01*
X136802279Y-83912886D01*
X137075447Y-84243090D01*
X137279279Y-84620069D01*
X137406007Y-85029462D01*
X137452501Y-85471816D01*
X137452501Y-88140966D01*
X137432625Y-88092981D01*
X137304856Y-87901762D01*
X137142238Y-87739144D01*
X136951019Y-87611375D01*
X136738547Y-87523366D01*
X136512989Y-87478500D01*
X136283011Y-87478500D01*
X136057453Y-87523366D01*
X135844981Y-87611375D01*
X135653762Y-87739144D01*
X135491144Y-87901762D01*
X135363375Y-88092981D01*
X135275366Y-88305453D01*
X135230500Y-88531011D01*
X135230500Y-88760989D01*
X135275366Y-88986547D01*
X135321144Y-89097066D01*
X133052476Y-91365735D01*
X133035592Y-91379591D01*
X133021736Y-91396475D01*
X133021735Y-91396476D01*
X132980295Y-91446971D01*
X132939205Y-91523844D01*
X132913904Y-91607255D01*
X132905359Y-91694000D01*
X132907501Y-91715745D01*
X132907500Y-95193711D01*
X132836252Y-95264959D01*
X132837036Y-95257000D01*
X132837036Y-92957000D01*
X132830906Y-92894759D01*
X132812751Y-92834910D01*
X132783269Y-92779753D01*
X132743593Y-92731407D01*
X132695247Y-92691731D01*
X132640090Y-92662249D01*
X132580241Y-92644094D01*
X132518000Y-92637964D01*
X129418000Y-92637964D01*
X129355759Y-92644094D01*
X129295910Y-92662249D01*
X129240753Y-92691731D01*
X129192407Y-92731407D01*
X129152731Y-92779753D01*
X129123249Y-92834910D01*
X129105094Y-92894759D01*
X129098964Y-92957000D01*
X129098964Y-95257000D01*
X129105094Y-95319241D01*
X129123249Y-95379090D01*
X129152731Y-95434247D01*
X129192407Y-95482593D01*
X129240753Y-95522269D01*
X129295910Y-95551751D01*
X129355759Y-95569906D01*
X129418000Y-95576036D01*
X131803983Y-95576036D01*
X131798964Y-95627000D01*
X131798964Y-95927000D01*
X131805094Y-95989241D01*
X131816548Y-96027000D01*
X131805094Y-96064759D01*
X131798964Y-96127000D01*
X131798964Y-96427000D01*
X131805094Y-96489241D01*
X131816548Y-96527000D01*
X131805094Y-96564759D01*
X131798964Y-96627000D01*
X131798964Y-96927000D01*
X131805094Y-96989241D01*
X131816548Y-97027000D01*
X131805094Y-97064759D01*
X131798964Y-97127000D01*
X131798964Y-97427000D01*
X131805094Y-97489241D01*
X131816548Y-97527000D01*
X131805094Y-97564759D01*
X131798964Y-97627000D01*
X131798964Y-97927000D01*
X131805094Y-97989241D01*
X131816548Y-98027000D01*
X131805094Y-98064759D01*
X131798964Y-98127000D01*
X131798964Y-98427000D01*
X131805094Y-98489241D01*
X131816585Y-98527122D01*
X131805811Y-98561259D01*
X131800500Y-98611125D01*
X131879875Y-98690500D01*
X131938597Y-98690500D01*
X131940753Y-98692269D01*
X131995910Y-98721751D01*
X132055759Y-98739906D01*
X132118000Y-98746036D01*
X132878500Y-98746036D01*
X132878500Y-98807964D01*
X132118000Y-98807964D01*
X132055759Y-98814094D01*
X131995910Y-98832249D01*
X131940753Y-98861731D01*
X131938597Y-98863500D01*
X131879875Y-98863500D01*
X131800500Y-98942875D01*
X131805811Y-98992741D01*
X131816585Y-99026878D01*
X131805094Y-99064759D01*
X131798964Y-99127000D01*
X131798964Y-99427000D01*
X131803983Y-99477964D01*
X129418000Y-99477964D01*
X129355759Y-99484094D01*
X129295910Y-99502249D01*
X129240753Y-99531731D01*
X129192407Y-99571407D01*
X129152731Y-99619753D01*
X129123249Y-99674910D01*
X129105094Y-99734759D01*
X129098964Y-99797000D01*
X129098964Y-102097000D01*
X129105094Y-102159241D01*
X129123249Y-102219090D01*
X129152731Y-102274247D01*
X129192407Y-102322593D01*
X129240753Y-102362269D01*
X129295910Y-102391751D01*
X129355759Y-102409906D01*
X129418000Y-102416036D01*
X132518000Y-102416036D01*
X132580241Y-102409906D01*
X132640090Y-102391751D01*
X132695247Y-102362269D01*
X132743593Y-102322593D01*
X132783269Y-102274247D01*
X132812751Y-102219090D01*
X132830906Y-102159241D01*
X132837036Y-102097000D01*
X132837036Y-99906820D01*
X133472500Y-100542284D01*
X133472501Y-101044145D01*
X133471500Y-101054302D01*
X133471500Y-102018697D01*
X133471501Y-102018707D01*
X133471500Y-103441091D01*
X133032092Y-103880500D01*
X130652107Y-103880500D01*
X130648682Y-103877075D01*
X130486125Y-103768458D01*
X130305501Y-103693641D01*
X130113753Y-103655500D01*
X129918247Y-103655500D01*
X129726499Y-103693641D01*
X129545875Y-103768458D01*
X129383318Y-103877075D01*
X129245075Y-104015318D01*
X129136458Y-104177875D01*
X129061641Y-104358499D01*
X129023500Y-104550247D01*
X129023500Y-104745753D01*
X129061641Y-104937501D01*
X129098501Y-105026488D01*
X129098500Y-105823959D01*
X128778960Y-106143500D01*
X124840041Y-106143500D01*
X124463500Y-105766960D01*
X124463500Y-102429036D01*
X124546000Y-102429036D01*
X124608241Y-102422906D01*
X124668090Y-102404751D01*
X124723247Y-102375269D01*
X124771593Y-102335593D01*
X124811269Y-102287247D01*
X124840751Y-102232090D01*
X124858906Y-102172241D01*
X124865036Y-102110000D01*
X124865036Y-100610000D01*
X124858906Y-100547759D01*
X124840751Y-100487910D01*
X124811269Y-100432753D01*
X124771593Y-100384407D01*
X124723247Y-100344731D01*
X124668090Y-100315249D01*
X124608241Y-100297094D01*
X124546000Y-100290964D01*
X122546000Y-100290964D01*
X122483759Y-100297094D01*
X122423910Y-100315249D01*
X122368753Y-100344731D01*
X122320407Y-100384407D01*
X122280731Y-100432753D01*
X122251249Y-100487910D01*
X122233094Y-100547759D01*
X122226964Y-100610000D01*
X122226964Y-102110000D01*
X122233094Y-102172241D01*
X122251249Y-102232090D01*
X122280731Y-102287247D01*
X122320407Y-102335593D01*
X122368753Y-102375269D01*
X122423910Y-102404751D01*
X122483759Y-102422906D01*
X122546000Y-102429036D01*
X122628500Y-102429036D01*
X122628501Y-106101928D01*
X122624062Y-106147000D01*
X122641776Y-106326861D01*
X122694239Y-106499810D01*
X122694240Y-106499811D01*
X122779437Y-106659202D01*
X122819639Y-106708188D01*
X122865361Y-106763901D01*
X122865364Y-106763904D01*
X122894092Y-106798909D01*
X122929096Y-106827637D01*
X123779363Y-107677904D01*
X123808091Y-107712909D01*
X123947798Y-107827564D01*
X124107189Y-107912761D01*
X124280139Y-107965224D01*
X124414931Y-107978500D01*
X124414940Y-107978500D01*
X124459999Y-107982938D01*
X124505058Y-107978500D01*
X129113938Y-107978500D01*
X129159000Y-107982938D01*
X129204062Y-107978500D01*
X129204069Y-107978500D01*
X129338861Y-107965224D01*
X129511811Y-107912761D01*
X129671202Y-107827564D01*
X129810909Y-107712909D01*
X129839641Y-107677899D01*
X130632905Y-106884636D01*
X130667909Y-106855909D01*
X130782564Y-106716202D01*
X130867761Y-106556811D01*
X130870192Y-106548797D01*
X130920224Y-106383862D01*
X130925838Y-106326861D01*
X130933500Y-106249069D01*
X130933500Y-106249063D01*
X130937938Y-106204001D01*
X130933500Y-106158939D01*
X130933500Y-105415500D01*
X133312302Y-105415500D01*
X133350000Y-105419213D01*
X133500456Y-105404394D01*
X133519052Y-105398753D01*
X133645130Y-105360508D01*
X133778463Y-105289240D01*
X133895330Y-105193330D01*
X133919370Y-105164037D01*
X134755048Y-104328361D01*
X134784330Y-104304330D01*
X134825352Y-104254344D01*
X135290129Y-104254344D01*
X135354150Y-104408931D01*
X135476226Y-104602528D01*
X135633725Y-104768589D01*
X135820595Y-104900733D01*
X136029654Y-104993881D01*
X136207500Y-104958488D01*
X136207500Y-104076500D01*
X135326680Y-104076500D01*
X135290129Y-104254344D01*
X134825352Y-104254344D01*
X134880240Y-104187463D01*
X134951508Y-104054130D01*
X134995394Y-103909456D01*
X135006500Y-103796698D01*
X135006500Y-103796697D01*
X135010213Y-103759000D01*
X135006500Y-103721302D01*
X135006500Y-103517656D01*
X135290129Y-103517656D01*
X135326680Y-103695500D01*
X136207500Y-103695500D01*
X136207500Y-102813512D01*
X136029654Y-102778119D01*
X135820595Y-102871267D01*
X135633725Y-103003411D01*
X135476226Y-103169472D01*
X135354150Y-103363069D01*
X135290129Y-103517656D01*
X135006500Y-103517656D01*
X135006500Y-101054302D01*
X135005500Y-101044149D01*
X135005500Y-100863159D01*
X135007978Y-100837999D01*
X135005500Y-100812839D01*
X135005500Y-100812830D01*
X134998084Y-100737533D01*
X134968779Y-100640926D01*
X134921189Y-100551893D01*
X134857145Y-100473855D01*
X134837594Y-100457810D01*
X134365189Y-99985405D01*
X134349145Y-99965855D01*
X134329594Y-99949810D01*
X133537036Y-99157252D01*
X133537036Y-99127000D01*
X133535269Y-99109058D01*
X135321144Y-100894934D01*
X135275366Y-101005453D01*
X135230500Y-101231011D01*
X135230500Y-101460989D01*
X135275366Y-101686547D01*
X135363375Y-101899019D01*
X135491144Y-102090238D01*
X135653762Y-102252856D01*
X135844981Y-102380625D01*
X136057453Y-102468634D01*
X136283011Y-102513500D01*
X136512989Y-102513500D01*
X136738547Y-102468634D01*
X136951019Y-102380625D01*
X137142238Y-102252856D01*
X137304856Y-102090238D01*
X137432625Y-101899019D01*
X137452500Y-101851036D01*
X137452500Y-103388785D01*
X137441850Y-103363069D01*
X137319774Y-103169472D01*
X137162275Y-103003411D01*
X136975405Y-102871267D01*
X136766346Y-102778119D01*
X136588500Y-102813512D01*
X136588500Y-103695500D01*
X136608500Y-103695500D01*
X136608500Y-104076500D01*
X136588500Y-104076500D01*
X136588500Y-104958488D01*
X136766346Y-104993881D01*
X136975405Y-104900733D01*
X137162275Y-104768589D01*
X137319774Y-104602528D01*
X137441850Y-104408931D01*
X137452500Y-104383215D01*
X137452500Y-105333097D01*
X137425247Y-105310731D01*
X137370090Y-105281249D01*
X137310241Y-105263094D01*
X137248000Y-105256964D01*
X135548000Y-105256964D01*
X135485759Y-105263094D01*
X135425910Y-105281249D01*
X135370753Y-105310731D01*
X135322407Y-105350407D01*
X135282731Y-105398753D01*
X135253249Y-105453910D01*
X135235094Y-105513759D01*
X135228964Y-105576000D01*
X135228964Y-107276000D01*
X135235094Y-107338241D01*
X135253249Y-107398090D01*
X135282731Y-107453247D01*
X135322407Y-107501593D01*
X135370753Y-107541269D01*
X135425910Y-107570751D01*
X135485759Y-107588906D01*
X135548000Y-107595036D01*
X137248000Y-107595036D01*
X137310241Y-107588906D01*
X137370090Y-107570751D01*
X137425247Y-107541269D01*
X137452500Y-107518903D01*
X137452500Y-109584253D01*
X137409038Y-110027508D01*
X137285172Y-110437775D01*
X137083974Y-110816173D01*
X136813117Y-111148276D01*
X136482910Y-111421447D01*
X136105929Y-111625280D01*
X135696539Y-111752007D01*
X135254190Y-111798500D01*
X103013747Y-111798500D01*
X102570492Y-111755038D01*
X102160225Y-111631172D01*
X101781827Y-111429974D01*
X101449724Y-111159117D01*
X101176553Y-110828910D01*
X100972720Y-110451929D01*
X100845993Y-110042539D01*
X100799500Y-109600190D01*
X100799500Y-100260000D01*
X107284964Y-100260000D01*
X107284964Y-101160000D01*
X107291094Y-101222241D01*
X107309249Y-101282090D01*
X107338731Y-101337247D01*
X107378407Y-101385593D01*
X107426753Y-101425269D01*
X107436500Y-101430479D01*
X107436501Y-102277521D01*
X107426753Y-102282731D01*
X107378407Y-102322407D01*
X107338731Y-102370753D01*
X107309249Y-102425910D01*
X107291094Y-102485759D01*
X107284964Y-102548000D01*
X107284964Y-103448000D01*
X107291094Y-103510241D01*
X107309249Y-103570090D01*
X107338731Y-103625247D01*
X107378407Y-103673593D01*
X107426753Y-103713269D01*
X107481910Y-103742751D01*
X107541759Y-103760906D01*
X107604000Y-103767036D01*
X108181897Y-103767036D01*
X108204000Y-103769213D01*
X108226103Y-103767036D01*
X108804000Y-103767036D01*
X108866241Y-103760906D01*
X108926090Y-103742751D01*
X108981247Y-103713269D01*
X109010500Y-103689262D01*
X109010500Y-103829668D01*
X109010501Y-103829671D01*
X109010501Y-104438758D01*
X109007030Y-104474000D01*
X109020883Y-104614654D01*
X109061910Y-104749903D01*
X109128535Y-104874550D01*
X109195732Y-104956429D01*
X109195736Y-104956433D01*
X109218198Y-104983803D01*
X109245568Y-105006265D01*
X109769802Y-105530500D01*
X108819596Y-105530500D01*
X108804000Y-105528964D01*
X107604000Y-105528964D01*
X107541759Y-105535094D01*
X107481910Y-105553249D01*
X107426753Y-105582731D01*
X107378407Y-105622407D01*
X107338731Y-105670753D01*
X107309249Y-105725910D01*
X107291094Y-105785759D01*
X107284964Y-105848000D01*
X107284964Y-106748000D01*
X107291094Y-106810241D01*
X107309249Y-106870090D01*
X107338731Y-106925247D01*
X107378407Y-106973593D01*
X107426753Y-107013269D01*
X107481910Y-107042751D01*
X107541759Y-107060906D01*
X107604000Y-107067036D01*
X108804000Y-107067036D01*
X108819596Y-107065500D01*
X110439302Y-107065500D01*
X110477000Y-107069213D01*
X110627456Y-107054394D01*
X110637906Y-107051224D01*
X110772130Y-107010508D01*
X110905463Y-106939240D01*
X111022330Y-106843330D01*
X111046370Y-106814037D01*
X111493795Y-106366613D01*
X111598075Y-106356342D01*
X111702477Y-106324672D01*
X111798695Y-106273243D01*
X111883030Y-106204030D01*
X111952243Y-106119695D01*
X111990564Y-106048000D01*
X112997964Y-106048000D01*
X113004094Y-106110241D01*
X113022249Y-106170090D01*
X113051731Y-106225247D01*
X113091407Y-106273593D01*
X113139753Y-106313269D01*
X113194910Y-106342751D01*
X113254759Y-106360906D01*
X113317000Y-106367036D01*
X113522125Y-106365500D01*
X113601500Y-106286125D01*
X113601500Y-105713500D01*
X113982500Y-105713500D01*
X113982500Y-106286125D01*
X114061875Y-106365500D01*
X114267000Y-106367036D01*
X114329241Y-106360906D01*
X114389090Y-106342751D01*
X114444247Y-106313269D01*
X114492593Y-106273593D01*
X114532269Y-106225247D01*
X114561751Y-106170090D01*
X114579906Y-106110241D01*
X114586036Y-106048000D01*
X114584500Y-105792875D01*
X114505125Y-105713500D01*
X113982500Y-105713500D01*
X113601500Y-105713500D01*
X113078875Y-105713500D01*
X112999500Y-105792875D01*
X112997964Y-106048000D01*
X111990564Y-106048000D01*
X112003672Y-106023477D01*
X112035342Y-105919075D01*
X112046036Y-105810500D01*
X112046036Y-105235500D01*
X112035342Y-105126925D01*
X112003672Y-105022523D01*
X111990565Y-104998000D01*
X112997964Y-104998000D01*
X112999500Y-105253125D01*
X113078875Y-105332500D01*
X113601500Y-105332500D01*
X113601500Y-104759875D01*
X113982500Y-104759875D01*
X113982500Y-105332500D01*
X114505125Y-105332500D01*
X114584500Y-105253125D01*
X114586036Y-104998000D01*
X114579906Y-104935759D01*
X114561751Y-104875910D01*
X114532269Y-104820753D01*
X114492593Y-104772407D01*
X114444247Y-104732731D01*
X114389090Y-104703249D01*
X114329241Y-104685094D01*
X114267000Y-104678964D01*
X114061875Y-104680500D01*
X113982500Y-104759875D01*
X113601500Y-104759875D01*
X113522125Y-104680500D01*
X113317000Y-104678964D01*
X113254759Y-104685094D01*
X113194910Y-104703249D01*
X113139753Y-104732731D01*
X113091407Y-104772407D01*
X113051731Y-104820753D01*
X113022249Y-104875910D01*
X113004094Y-104935759D01*
X112997964Y-104998000D01*
X111990565Y-104998000D01*
X111952243Y-104926305D01*
X111883030Y-104841970D01*
X111798695Y-104772757D01*
X111702477Y-104721328D01*
X111598075Y-104689658D01*
X111489500Y-104678964D01*
X111014500Y-104678964D01*
X110953655Y-104684957D01*
X110884925Y-104616228D01*
X110982125Y-104615500D01*
X111061500Y-104536125D01*
X111061500Y-103963500D01*
X111442500Y-103963500D01*
X111442500Y-104536125D01*
X111521875Y-104615500D01*
X111727000Y-104617036D01*
X111789241Y-104610906D01*
X111849090Y-104592751D01*
X111904247Y-104563269D01*
X111952593Y-104523593D01*
X111992269Y-104475247D01*
X112021751Y-104420090D01*
X112039906Y-104360241D01*
X112046036Y-104298000D01*
X112044500Y-104042875D01*
X111965125Y-103963500D01*
X111442500Y-103963500D01*
X111061500Y-103963500D01*
X110538875Y-103963500D01*
X110459500Y-104042875D01*
X110458615Y-104189917D01*
X110445500Y-104176803D01*
X110445500Y-103248000D01*
X110457964Y-103248000D01*
X110459500Y-103503125D01*
X110538875Y-103582500D01*
X111061500Y-103582500D01*
X111061500Y-103009875D01*
X111442500Y-103009875D01*
X111442500Y-103582500D01*
X111965125Y-103582500D01*
X112044500Y-103503125D01*
X112046036Y-103248000D01*
X112039906Y-103185759D01*
X112021751Y-103125910D01*
X111992269Y-103070753D01*
X111952593Y-103022407D01*
X111904247Y-102982731D01*
X111849090Y-102953249D01*
X111789241Y-102935094D01*
X111727000Y-102928964D01*
X111521875Y-102930500D01*
X111442500Y-103009875D01*
X111061500Y-103009875D01*
X110982125Y-102930500D01*
X110777000Y-102928964D01*
X110714759Y-102935094D01*
X110654910Y-102953249D01*
X110599753Y-102982731D01*
X110551407Y-103022407D01*
X110511731Y-103070753D01*
X110482249Y-103125910D01*
X110464094Y-103185759D01*
X110457964Y-103248000D01*
X110445500Y-103248000D01*
X110445500Y-103053332D01*
X110438589Y-103018588D01*
X110435118Y-102983346D01*
X110424838Y-102949459D01*
X110417927Y-102914713D01*
X110404369Y-102881980D01*
X110394090Y-102848096D01*
X110377401Y-102816873D01*
X110363841Y-102784136D01*
X110344153Y-102754671D01*
X110327465Y-102723450D01*
X110305008Y-102696086D01*
X110285319Y-102666620D01*
X110260257Y-102641558D01*
X110237802Y-102614197D01*
X110210443Y-102591744D01*
X110185380Y-102566681D01*
X110155910Y-102546990D01*
X110128549Y-102524535D01*
X110097333Y-102507850D01*
X110067864Y-102488159D01*
X110035122Y-102474597D01*
X110003903Y-102457910D01*
X109970023Y-102447633D01*
X109937287Y-102434073D01*
X109902538Y-102427161D01*
X109868653Y-102416882D01*
X109833413Y-102413411D01*
X109798668Y-102406500D01*
X109763242Y-102406500D01*
X109728000Y-102403029D01*
X109692758Y-102406500D01*
X109657332Y-102406500D01*
X109622588Y-102413411D01*
X109587346Y-102416882D01*
X109553459Y-102427162D01*
X109518713Y-102434073D01*
X109485980Y-102447631D01*
X109452096Y-102457910D01*
X109420873Y-102474599D01*
X109388136Y-102488159D01*
X109358671Y-102507847D01*
X109327450Y-102524535D01*
X109300086Y-102546992D01*
X109270620Y-102566681D01*
X109245558Y-102591743D01*
X109218197Y-102614198D01*
X109195744Y-102641557D01*
X109170681Y-102666620D01*
X109150990Y-102696090D01*
X109128535Y-102723451D01*
X109123036Y-102733739D01*
X109123036Y-102548000D01*
X109116906Y-102485759D01*
X109098751Y-102425910D01*
X109069269Y-102370753D01*
X109029593Y-102322407D01*
X108981247Y-102282731D01*
X108971500Y-102277521D01*
X108971500Y-101477500D01*
X110439302Y-101477500D01*
X110477000Y-101481213D01*
X110627456Y-101466394D01*
X110645274Y-101460989D01*
X110772130Y-101422508D01*
X110905463Y-101351240D01*
X111022330Y-101255330D01*
X111046370Y-101226037D01*
X111493795Y-100778613D01*
X111598075Y-100768342D01*
X111702477Y-100736672D01*
X111798695Y-100685243D01*
X111883030Y-100616030D01*
X111952243Y-100531695D01*
X112003672Y-100435477D01*
X112035342Y-100331075D01*
X112042342Y-100260000D01*
X112872964Y-100260000D01*
X112872964Y-101160000D01*
X112879094Y-101222241D01*
X112897249Y-101282090D01*
X112926731Y-101337247D01*
X112966407Y-101385593D01*
X113014753Y-101425269D01*
X113024500Y-101430479D01*
X113024501Y-103324698D01*
X113008658Y-103376925D01*
X112997964Y-103485500D01*
X112997964Y-104060500D01*
X113008658Y-104169075D01*
X113040328Y-104273477D01*
X113091757Y-104369695D01*
X113160970Y-104454030D01*
X113245305Y-104523243D01*
X113341523Y-104574672D01*
X113445925Y-104606342D01*
X113554500Y-104617036D01*
X114029500Y-104617036D01*
X114138075Y-104606342D01*
X114242477Y-104574672D01*
X114306409Y-104540500D01*
X119582302Y-104540500D01*
X119620000Y-104544213D01*
X119770456Y-104529394D01*
X119790733Y-104523243D01*
X119915130Y-104485508D01*
X120048463Y-104414240D01*
X120165330Y-104318330D01*
X120189370Y-104289037D01*
X120212546Y-104265861D01*
X120221537Y-104273239D01*
X120354870Y-104344507D01*
X120499543Y-104388394D01*
X120649999Y-104403212D01*
X120800455Y-104388394D01*
X120945130Y-104344507D01*
X121078462Y-104273239D01*
X121195329Y-104177329D01*
X121291239Y-104060462D01*
X121362507Y-103927130D01*
X121406394Y-103782455D01*
X121421212Y-103631999D01*
X121406394Y-103481543D01*
X121362507Y-103336870D01*
X121291239Y-103203537D01*
X121219360Y-103115952D01*
X121163500Y-103060092D01*
X121163500Y-103034698D01*
X121167213Y-102997000D01*
X121152394Y-102846544D01*
X121133463Y-102784136D01*
X121108508Y-102701870D01*
X121037240Y-102568537D01*
X120941330Y-102451670D01*
X120824462Y-102355760D01*
X120691129Y-102284492D01*
X120588134Y-102253249D01*
X120546456Y-102240606D01*
X120396000Y-102225787D01*
X120245544Y-102240606D01*
X120100870Y-102284492D01*
X119967537Y-102355760D01*
X119850670Y-102451670D01*
X119826639Y-102480952D01*
X119302092Y-103005500D01*
X114559500Y-103005500D01*
X114559500Y-101430479D01*
X114569247Y-101425269D01*
X114617593Y-101385593D01*
X114657269Y-101337247D01*
X114686751Y-101282090D01*
X114704906Y-101222241D01*
X114711036Y-101160000D01*
X114711036Y-100260000D01*
X114704906Y-100197759D01*
X114686751Y-100137910D01*
X114657269Y-100082753D01*
X114617593Y-100034407D01*
X114569247Y-99994731D01*
X114514090Y-99965249D01*
X114454241Y-99947094D01*
X114392000Y-99940964D01*
X113814103Y-99940964D01*
X113792000Y-99938787D01*
X113769897Y-99940964D01*
X113192000Y-99940964D01*
X113129759Y-99947094D01*
X113069910Y-99965249D01*
X113014753Y-99994731D01*
X112966407Y-100034407D01*
X112926731Y-100082753D01*
X112897249Y-100137910D01*
X112879094Y-100197759D01*
X112872964Y-100260000D01*
X112042342Y-100260000D01*
X112046036Y-100222500D01*
X112046036Y-99647500D01*
X112035342Y-99538925D01*
X112003672Y-99434523D01*
X111952243Y-99338305D01*
X111883030Y-99253970D01*
X111798695Y-99184757D01*
X111702477Y-99133328D01*
X111598075Y-99101658D01*
X111489500Y-99090964D01*
X111014500Y-99090964D01*
X110905925Y-99101658D01*
X110801523Y-99133328D01*
X110705305Y-99184757D01*
X110620970Y-99253970D01*
X110551757Y-99338305D01*
X110500328Y-99434523D01*
X110468658Y-99538925D01*
X110458387Y-99643205D01*
X110159092Y-99942500D01*
X108819596Y-99942500D01*
X108804000Y-99940964D01*
X108226103Y-99940964D01*
X108204000Y-99938787D01*
X108181897Y-99940964D01*
X107604000Y-99940964D01*
X107541759Y-99947094D01*
X107481910Y-99965249D01*
X107426753Y-99994731D01*
X107378407Y-100034407D01*
X107338731Y-100082753D01*
X107309249Y-100137910D01*
X107291094Y-100197759D01*
X107284964Y-100260000D01*
X100799500Y-100260000D01*
X100799500Y-97860000D01*
X107284964Y-97860000D01*
X107291094Y-97922241D01*
X107309249Y-97982090D01*
X107338731Y-98037247D01*
X107378407Y-98085593D01*
X107426753Y-98125269D01*
X107481910Y-98154751D01*
X107541759Y-98172906D01*
X107604000Y-98179036D01*
X107934125Y-98177500D01*
X108013500Y-98098125D01*
X108013500Y-97600500D01*
X108394500Y-97600500D01*
X108394500Y-98098125D01*
X108473875Y-98177500D01*
X108804000Y-98179036D01*
X108866241Y-98172906D01*
X108926090Y-98154751D01*
X108981247Y-98125269D01*
X109029593Y-98085593D01*
X109069269Y-98037247D01*
X109098751Y-97982090D01*
X109116906Y-97922241D01*
X109123036Y-97860000D01*
X109121500Y-97679875D01*
X109042125Y-97600500D01*
X108394500Y-97600500D01*
X108013500Y-97600500D01*
X107365875Y-97600500D01*
X107286500Y-97679875D01*
X107284964Y-97860000D01*
X100799500Y-97860000D01*
X100799500Y-96960000D01*
X107284964Y-96960000D01*
X107286500Y-97140125D01*
X107365875Y-97219500D01*
X108013500Y-97219500D01*
X108013500Y-96721875D01*
X108394500Y-96721875D01*
X108394500Y-97219500D01*
X109042125Y-97219500D01*
X109121500Y-97140125D01*
X109123036Y-96960000D01*
X109116906Y-96897759D01*
X109098751Y-96837910D01*
X109069269Y-96782753D01*
X109029593Y-96734407D01*
X108981247Y-96694731D01*
X108926090Y-96665249D01*
X108866241Y-96647094D01*
X108804000Y-96640964D01*
X108473875Y-96642500D01*
X108394500Y-96721875D01*
X108013500Y-96721875D01*
X107934125Y-96642500D01*
X107604000Y-96640964D01*
X107541759Y-96647094D01*
X107481910Y-96665249D01*
X107426753Y-96694731D01*
X107378407Y-96734407D01*
X107338731Y-96782753D01*
X107309249Y-96837910D01*
X107291094Y-96897759D01*
X107284964Y-96960000D01*
X100799500Y-96960000D01*
X100799500Y-95472000D01*
X108514787Y-95472000D01*
X108529606Y-95622456D01*
X108566964Y-95745610D01*
X108566964Y-95922000D01*
X108573094Y-95984241D01*
X108591249Y-96044090D01*
X108620731Y-96099247D01*
X108660407Y-96147593D01*
X108708753Y-96187269D01*
X108763910Y-96216751D01*
X108823759Y-96234906D01*
X108886000Y-96241036D01*
X109686000Y-96241036D01*
X109701596Y-96239500D01*
X111259501Y-96239500D01*
X111259500Y-97092091D01*
X111010205Y-97341387D01*
X110905925Y-97351658D01*
X110801523Y-97383328D01*
X110705305Y-97434757D01*
X110620970Y-97503970D01*
X110551757Y-97588305D01*
X110500328Y-97684523D01*
X110468658Y-97788925D01*
X110457964Y-97897500D01*
X110457964Y-98472500D01*
X110468658Y-98581075D01*
X110500328Y-98685477D01*
X110551757Y-98781695D01*
X110620970Y-98866030D01*
X110705305Y-98935243D01*
X110801523Y-98986672D01*
X110905925Y-99018342D01*
X111014500Y-99029036D01*
X111489500Y-99029036D01*
X111598075Y-99018342D01*
X111702477Y-98986672D01*
X111798695Y-98935243D01*
X111883030Y-98866030D01*
X111952243Y-98781695D01*
X112003672Y-98685477D01*
X112035342Y-98581075D01*
X112045613Y-98476795D01*
X112344908Y-98177500D01*
X113176404Y-98177500D01*
X113192000Y-98179036D01*
X114392000Y-98179036D01*
X114454241Y-98172906D01*
X114514090Y-98154751D01*
X114569247Y-98125269D01*
X114617593Y-98085593D01*
X114657269Y-98037247D01*
X114686751Y-97982090D01*
X114704906Y-97922241D01*
X114711036Y-97860000D01*
X114711036Y-96960000D01*
X114704906Y-96897759D01*
X114686751Y-96837910D01*
X114657269Y-96782753D01*
X114617593Y-96734407D01*
X114569247Y-96694731D01*
X114514090Y-96665249D01*
X114454241Y-96647094D01*
X114392000Y-96640964D01*
X113192000Y-96640964D01*
X113176404Y-96642500D01*
X112794500Y-96642500D01*
X112794500Y-96257036D01*
X114108000Y-96257036D01*
X114170241Y-96250906D01*
X114230090Y-96232751D01*
X114285247Y-96203269D01*
X114333593Y-96163593D01*
X114373269Y-96115247D01*
X114402751Y-96060090D01*
X114420906Y-96000241D01*
X114427036Y-95938000D01*
X114427036Y-93038000D01*
X115188964Y-93038000D01*
X115188964Y-95938000D01*
X115195094Y-96000241D01*
X115213249Y-96060090D01*
X115242731Y-96115247D01*
X115282407Y-96163593D01*
X115330753Y-96203269D01*
X115385910Y-96232751D01*
X115445759Y-96250906D01*
X115508000Y-96257036D01*
X116328501Y-96257036D01*
X116328501Y-96840964D01*
X116246000Y-96840964D01*
X116183759Y-96847094D01*
X116123910Y-96865249D01*
X116068753Y-96894731D01*
X116020407Y-96934407D01*
X115980731Y-96982753D01*
X115951249Y-97037910D01*
X115933094Y-97097759D01*
X115926964Y-97160000D01*
X115926964Y-100960000D01*
X115933094Y-101022241D01*
X115951249Y-101082090D01*
X115980731Y-101137247D01*
X116020407Y-101185593D01*
X116068753Y-101225269D01*
X116123910Y-101254751D01*
X116183759Y-101272906D01*
X116246000Y-101279036D01*
X118246000Y-101279036D01*
X118308241Y-101272906D01*
X118368090Y-101254751D01*
X118423247Y-101225269D01*
X118471593Y-101185593D01*
X118511269Y-101137247D01*
X118540751Y-101082090D01*
X118558906Y-101022241D01*
X118565036Y-100960000D01*
X118565036Y-100203500D01*
X121648938Y-100203500D01*
X121694000Y-100207938D01*
X121739062Y-100203500D01*
X121739069Y-100203500D01*
X121873861Y-100190224D01*
X122046811Y-100137761D01*
X122206202Y-100052564D01*
X122282767Y-99989728D01*
X122320407Y-100035593D01*
X122368753Y-100075269D01*
X122423910Y-100104751D01*
X122483759Y-100122906D01*
X122546000Y-100129036D01*
X124546000Y-100129036D01*
X124608241Y-100122906D01*
X124668090Y-100104751D01*
X124698797Y-100088338D01*
X127098500Y-102488041D01*
X127098501Y-103768008D01*
X127075731Y-103795753D01*
X127046249Y-103850910D01*
X127028094Y-103910759D01*
X127021964Y-103973000D01*
X127021964Y-105323000D01*
X127028094Y-105385241D01*
X127046249Y-105445090D01*
X127075731Y-105500247D01*
X127115407Y-105548593D01*
X127163753Y-105588269D01*
X127218910Y-105617751D01*
X127278759Y-105635906D01*
X127341000Y-105642036D01*
X128691000Y-105642036D01*
X128753241Y-105635906D01*
X128813090Y-105617751D01*
X128868247Y-105588269D01*
X128916593Y-105548593D01*
X128956269Y-105500247D01*
X128985751Y-105445090D01*
X129003906Y-105385241D01*
X129010036Y-105323000D01*
X129010036Y-103973000D01*
X129003906Y-103910759D01*
X128985751Y-103850910D01*
X128956269Y-103795753D01*
X128933500Y-103768009D01*
X128933500Y-102153062D01*
X128937938Y-102108000D01*
X128933500Y-102062938D01*
X128933500Y-102062931D01*
X128920224Y-101928139D01*
X128909946Y-101894254D01*
X128867761Y-101755189D01*
X128852694Y-101727001D01*
X128782564Y-101595798D01*
X128667909Y-101456091D01*
X128632905Y-101427364D01*
X125947342Y-98741802D01*
X127568332Y-97120813D01*
X127586172Y-97106172D01*
X127644593Y-97034986D01*
X127688003Y-96953770D01*
X127714736Y-96865646D01*
X127721500Y-96796967D01*
X127721500Y-96796966D01*
X127723762Y-96774001D01*
X127721500Y-96751036D01*
X127721500Y-91304629D01*
X127724125Y-91303542D01*
X127886682Y-91194925D01*
X128024925Y-91056682D01*
X128133542Y-90894125D01*
X128208359Y-90713501D01*
X128246500Y-90521753D01*
X128246500Y-90326247D01*
X128261500Y-90326247D01*
X128261500Y-90521753D01*
X128299641Y-90713501D01*
X128374458Y-90894125D01*
X128483075Y-91056682D01*
X128621318Y-91194925D01*
X128783875Y-91303542D01*
X128964499Y-91378359D01*
X129156247Y-91416500D01*
X129351753Y-91416500D01*
X129543501Y-91378359D01*
X129724125Y-91303542D01*
X129886682Y-91194925D01*
X129982607Y-91099000D01*
X130259964Y-91099000D01*
X130266094Y-91161241D01*
X130284249Y-91221090D01*
X130313731Y-91276247D01*
X130353407Y-91324593D01*
X130401753Y-91364269D01*
X130456910Y-91393751D01*
X130516759Y-91411906D01*
X130579000Y-91418036D01*
X130984125Y-91416500D01*
X131063500Y-91337125D01*
X131063500Y-90614500D01*
X131444500Y-90614500D01*
X131444500Y-91337125D01*
X131523875Y-91416500D01*
X131929000Y-91418036D01*
X131991241Y-91411906D01*
X132051090Y-91393751D01*
X132106247Y-91364269D01*
X132154593Y-91324593D01*
X132194269Y-91276247D01*
X132223751Y-91221090D01*
X132241906Y-91161241D01*
X132248036Y-91099000D01*
X132246500Y-90693875D01*
X132167125Y-90614500D01*
X131444500Y-90614500D01*
X131063500Y-90614500D01*
X130340875Y-90614500D01*
X130261500Y-90693875D01*
X130259964Y-91099000D01*
X129982607Y-91099000D01*
X130024925Y-91056682D01*
X130133542Y-90894125D01*
X130208359Y-90713501D01*
X130246500Y-90521753D01*
X130246500Y-90326247D01*
X130208359Y-90134499D01*
X130133542Y-89953875D01*
X130024925Y-89791318D01*
X129982607Y-89749000D01*
X130259964Y-89749000D01*
X130261500Y-90154125D01*
X130340875Y-90233500D01*
X131063500Y-90233500D01*
X131063500Y-89510875D01*
X131444500Y-89510875D01*
X131444500Y-90233500D01*
X132167125Y-90233500D01*
X132246500Y-90154125D01*
X132248036Y-89749000D01*
X132241906Y-89686759D01*
X132223751Y-89626910D01*
X132194269Y-89571753D01*
X132154593Y-89523407D01*
X132106247Y-89483731D01*
X132051090Y-89454249D01*
X131991241Y-89436094D01*
X131929000Y-89429964D01*
X131523875Y-89431500D01*
X131444500Y-89510875D01*
X131063500Y-89510875D01*
X130984125Y-89431500D01*
X130579000Y-89429964D01*
X130516759Y-89436094D01*
X130456910Y-89454249D01*
X130401753Y-89483731D01*
X130353407Y-89523407D01*
X130313731Y-89571753D01*
X130284249Y-89626910D01*
X130266094Y-89686759D01*
X130259964Y-89749000D01*
X129982607Y-89749000D01*
X129886682Y-89653075D01*
X129724125Y-89544458D01*
X129543501Y-89469641D01*
X129351753Y-89431500D01*
X129156247Y-89431500D01*
X128964499Y-89469641D01*
X128783875Y-89544458D01*
X128621318Y-89653075D01*
X128483075Y-89791318D01*
X128374458Y-89953875D01*
X128299641Y-90134499D01*
X128261500Y-90326247D01*
X128246500Y-90326247D01*
X128208359Y-90134499D01*
X128133542Y-89953875D01*
X128024925Y-89791318D01*
X127886682Y-89653075D01*
X127724125Y-89544458D01*
X127543501Y-89469641D01*
X127351753Y-89431500D01*
X127156247Y-89431500D01*
X126964499Y-89469641D01*
X126783875Y-89544458D01*
X126621318Y-89653075D01*
X126483075Y-89791318D01*
X126374458Y-89953875D01*
X126299641Y-90134499D01*
X126261500Y-90326247D01*
X126261500Y-90521753D01*
X126299641Y-90713501D01*
X126374458Y-90894125D01*
X126483075Y-91056682D01*
X126621318Y-91194925D01*
X126783875Y-91303542D01*
X126786500Y-91304629D01*
X126786501Y-96580354D01*
X125196366Y-98170490D01*
X125147861Y-98155776D01*
X125013069Y-98142500D01*
X125013062Y-98142500D01*
X124968000Y-98138062D01*
X124922938Y-98142500D01*
X124816479Y-98142500D01*
X124811269Y-98132753D01*
X124771593Y-98084407D01*
X124723247Y-98044731D01*
X124668090Y-98015249D01*
X124608241Y-97997094D01*
X124546000Y-97990964D01*
X122546000Y-97990964D01*
X122483759Y-97997094D01*
X122423910Y-98015249D01*
X122368753Y-98044731D01*
X122320407Y-98084407D01*
X122280731Y-98132753D01*
X122275521Y-98142500D01*
X121965058Y-98142500D01*
X121919999Y-98138062D01*
X121874940Y-98142500D01*
X121874931Y-98142500D01*
X121740139Y-98155776D01*
X121567189Y-98208239D01*
X121407798Y-98293436D01*
X121316333Y-98368500D01*
X118565036Y-98368500D01*
X118565036Y-97510000D01*
X122226964Y-97510000D01*
X122233094Y-97572241D01*
X122251249Y-97632090D01*
X122280731Y-97687247D01*
X122320407Y-97735593D01*
X122368753Y-97775269D01*
X122423910Y-97804751D01*
X122483759Y-97822906D01*
X122546000Y-97829036D01*
X123276125Y-97827500D01*
X123355500Y-97748125D01*
X123355500Y-96950500D01*
X123736500Y-96950500D01*
X123736500Y-97748125D01*
X123815875Y-97827500D01*
X124546000Y-97829036D01*
X124608241Y-97822906D01*
X124668090Y-97804751D01*
X124723247Y-97775269D01*
X124771593Y-97735593D01*
X124811269Y-97687247D01*
X124840751Y-97632090D01*
X124858906Y-97572241D01*
X124865036Y-97510000D01*
X124863500Y-97029875D01*
X124784125Y-96950500D01*
X123736500Y-96950500D01*
X123355500Y-96950500D01*
X122307875Y-96950500D01*
X122228500Y-97029875D01*
X122226964Y-97510000D01*
X118565036Y-97510000D01*
X118565036Y-97160000D01*
X118558906Y-97097759D01*
X118540751Y-97037910D01*
X118511269Y-96982753D01*
X118471593Y-96934407D01*
X118423247Y-96894731D01*
X118368090Y-96865249D01*
X118308241Y-96847094D01*
X118246000Y-96840964D01*
X118163500Y-96840964D01*
X118163500Y-96010000D01*
X122226964Y-96010000D01*
X122228500Y-96490125D01*
X122307875Y-96569500D01*
X123355500Y-96569500D01*
X123355500Y-95771875D01*
X123736500Y-95771875D01*
X123736500Y-96569500D01*
X124784125Y-96569500D01*
X124863500Y-96490125D01*
X124865036Y-96010000D01*
X124858906Y-95947759D01*
X124840751Y-95887910D01*
X124811269Y-95832753D01*
X124771593Y-95784407D01*
X124723247Y-95744731D01*
X124668090Y-95715249D01*
X124608241Y-95697094D01*
X124546000Y-95690964D01*
X123815875Y-95692500D01*
X123736500Y-95771875D01*
X123355500Y-95771875D01*
X123276125Y-95692500D01*
X122546000Y-95690964D01*
X122483759Y-95697094D01*
X122423910Y-95715249D01*
X122368753Y-95744731D01*
X122320407Y-95784407D01*
X122280731Y-95832753D01*
X122251249Y-95887910D01*
X122233094Y-95947759D01*
X122226964Y-96010000D01*
X118163500Y-96010000D01*
X118163500Y-95493907D01*
X119148472Y-94508937D01*
X119183523Y-94527672D01*
X119287925Y-94559342D01*
X119396500Y-94570036D01*
X119871500Y-94570036D01*
X119980075Y-94559342D01*
X120084477Y-94527672D01*
X120180695Y-94476243D01*
X120265030Y-94407030D01*
X120334243Y-94322695D01*
X120385672Y-94226477D01*
X120417342Y-94122075D01*
X120428036Y-94013500D01*
X120428036Y-93438500D01*
X120417342Y-93329925D01*
X120385672Y-93225523D01*
X120334243Y-93129305D01*
X120265030Y-93044970D01*
X120180695Y-92975757D01*
X120084477Y-92924328D01*
X119980075Y-92892658D01*
X119871500Y-92881964D01*
X119396500Y-92881964D01*
X119287925Y-92892658D01*
X119183523Y-92924328D01*
X119119591Y-92958500D01*
X118883698Y-92958500D01*
X118846000Y-92954787D01*
X118808302Y-92958500D01*
X118695544Y-92969606D01*
X118550870Y-93013492D01*
X118417537Y-93084760D01*
X118300670Y-93180670D01*
X118276638Y-93209953D01*
X117627036Y-93859556D01*
X117627036Y-93038000D01*
X117620906Y-92975759D01*
X117602751Y-92915910D01*
X117573269Y-92860753D01*
X117533593Y-92812407D01*
X117485247Y-92772731D01*
X117430090Y-92743249D01*
X117370241Y-92725094D01*
X117308000Y-92718964D01*
X115508000Y-92718964D01*
X115445759Y-92725094D01*
X115385910Y-92743249D01*
X115330753Y-92772731D01*
X115282407Y-92812407D01*
X115242731Y-92860753D01*
X115213249Y-92915910D01*
X115195094Y-92975759D01*
X115188964Y-93038000D01*
X114427036Y-93038000D01*
X114420906Y-92975759D01*
X114402751Y-92915910D01*
X114373269Y-92860753D01*
X114333593Y-92812407D01*
X114285247Y-92772731D01*
X114230090Y-92743249D01*
X114170241Y-92725094D01*
X114108000Y-92718964D01*
X112308000Y-92718964D01*
X112245759Y-92725094D01*
X112185910Y-92743249D01*
X112130753Y-92772731D01*
X112082407Y-92812407D01*
X112042731Y-92860753D01*
X112013249Y-92915910D01*
X111995094Y-92975759D01*
X111988964Y-93038000D01*
X111988964Y-94621628D01*
X111906092Y-94704500D01*
X109701596Y-94704500D01*
X109686000Y-94702964D01*
X108886000Y-94702964D01*
X108823759Y-94709094D01*
X108763910Y-94727249D01*
X108708753Y-94756731D01*
X108660407Y-94796407D01*
X108620731Y-94844753D01*
X108591249Y-94899910D01*
X108573094Y-94959759D01*
X108566964Y-95022000D01*
X108566964Y-95198390D01*
X108529606Y-95321544D01*
X108514787Y-95472000D01*
X100799500Y-95472000D01*
X100799500Y-90107999D01*
X106676964Y-90107999D01*
X106676964Y-90758001D01*
X106687898Y-90869014D01*
X106720279Y-90975761D01*
X106772864Y-91074140D01*
X106843630Y-91160370D01*
X106929860Y-91231136D01*
X107028239Y-91283721D01*
X107134986Y-91316102D01*
X107245999Y-91327036D01*
X107761501Y-91327036D01*
X107761501Y-91380738D01*
X107746620Y-91390681D01*
X107646681Y-91490620D01*
X107568159Y-91608136D01*
X107514073Y-91738713D01*
X107486500Y-91877332D01*
X107486500Y-92018668D01*
X107514073Y-92157287D01*
X107568159Y-92287864D01*
X107646681Y-92405380D01*
X107746620Y-92505319D01*
X107761500Y-92515262D01*
X107761501Y-92755262D01*
X107758753Y-92756731D01*
X107710407Y-92796407D01*
X107670731Y-92844753D01*
X107641249Y-92899910D01*
X107623094Y-92959759D01*
X107616964Y-93022000D01*
X107616964Y-93922000D01*
X107623094Y-93984241D01*
X107641249Y-94044090D01*
X107670731Y-94099247D01*
X107710407Y-94147593D01*
X107758753Y-94187269D01*
X107813910Y-94216751D01*
X107873759Y-94234906D01*
X107936000Y-94241036D01*
X108736000Y-94241036D01*
X108798241Y-94234906D01*
X108858090Y-94216751D01*
X108913247Y-94187269D01*
X108961593Y-94147593D01*
X109001269Y-94099247D01*
X109030751Y-94044090D01*
X109048906Y-93984241D01*
X109055036Y-93922000D01*
X109055036Y-93022000D01*
X109516964Y-93022000D01*
X109516964Y-93922000D01*
X109523094Y-93984241D01*
X109541249Y-94044090D01*
X109570731Y-94099247D01*
X109610407Y-94147593D01*
X109658753Y-94187269D01*
X109713910Y-94216751D01*
X109773759Y-94234906D01*
X109836000Y-94241036D01*
X110636000Y-94241036D01*
X110698241Y-94234906D01*
X110758090Y-94216751D01*
X110813247Y-94187269D01*
X110861593Y-94147593D01*
X110901269Y-94099247D01*
X110930751Y-94044090D01*
X110948906Y-93984241D01*
X110955036Y-93922000D01*
X110955036Y-93022000D01*
X110948906Y-92959759D01*
X110930751Y-92899910D01*
X110901269Y-92844753D01*
X110867042Y-92803046D01*
X110871841Y-92795864D01*
X110925927Y-92665287D01*
X110953500Y-92526668D01*
X110953500Y-92501000D01*
X118839964Y-92501000D01*
X118846094Y-92563241D01*
X118864249Y-92623090D01*
X118893731Y-92678247D01*
X118933407Y-92726593D01*
X118981753Y-92766269D01*
X119036910Y-92795751D01*
X119096759Y-92813906D01*
X119159000Y-92820036D01*
X119364125Y-92818500D01*
X119443500Y-92739125D01*
X119443500Y-92166500D01*
X119824500Y-92166500D01*
X119824500Y-92739125D01*
X119903875Y-92818500D01*
X120109000Y-92820036D01*
X120171241Y-92813906D01*
X120231090Y-92795751D01*
X120286247Y-92766269D01*
X120334593Y-92726593D01*
X120374269Y-92678247D01*
X120403751Y-92623090D01*
X120421906Y-92563241D01*
X120428036Y-92501000D01*
X120426500Y-92245875D01*
X120347125Y-92166500D01*
X119824500Y-92166500D01*
X119443500Y-92166500D01*
X118920875Y-92166500D01*
X118841500Y-92245875D01*
X118839964Y-92501000D01*
X110953500Y-92501000D01*
X110953500Y-92385332D01*
X110925927Y-92246713D01*
X110871841Y-92116136D01*
X110793319Y-91998620D01*
X110693380Y-91898681D01*
X110678500Y-91888738D01*
X110678500Y-91451000D01*
X118839964Y-91451000D01*
X118841500Y-91706125D01*
X118920875Y-91785500D01*
X119443500Y-91785500D01*
X119443500Y-91212875D01*
X119824500Y-91212875D01*
X119824500Y-91785500D01*
X120347125Y-91785500D01*
X120426500Y-91706125D01*
X120428036Y-91451000D01*
X120421906Y-91388759D01*
X120403751Y-91328910D01*
X120374269Y-91273753D01*
X120334593Y-91225407D01*
X120286247Y-91185731D01*
X120231090Y-91156249D01*
X120171241Y-91138094D01*
X120109000Y-91131964D01*
X119903875Y-91133500D01*
X119824500Y-91212875D01*
X119443500Y-91212875D01*
X119364125Y-91133500D01*
X119159000Y-91131964D01*
X119096759Y-91138094D01*
X119036910Y-91156249D01*
X118981753Y-91185731D01*
X118933407Y-91225407D01*
X118893731Y-91273753D01*
X118864249Y-91328910D01*
X118846094Y-91388759D01*
X118839964Y-91451000D01*
X110678500Y-91451000D01*
X110678500Y-91318036D01*
X111194001Y-91318036D01*
X111305014Y-91307102D01*
X111411761Y-91274721D01*
X111510140Y-91222136D01*
X111596370Y-91151370D01*
X111667136Y-91065140D01*
X111719721Y-90966761D01*
X111752102Y-90860014D01*
X111763036Y-90749001D01*
X111763036Y-90098999D01*
X111752102Y-89987986D01*
X111742617Y-89956717D01*
X121513691Y-89956717D01*
X121663103Y-90149888D01*
X121946418Y-90272656D01*
X122248240Y-90337793D01*
X122556970Y-90342795D01*
X122860743Y-90287471D01*
X123147886Y-90173946D01*
X123192897Y-90149888D01*
X123342309Y-89956717D01*
X122428000Y-89042408D01*
X121513691Y-89956717D01*
X111742617Y-89956717D01*
X111719721Y-89881239D01*
X111667136Y-89782860D01*
X111596370Y-89696630D01*
X111510140Y-89625864D01*
X111411761Y-89573279D01*
X111305014Y-89540898D01*
X111194001Y-89529964D01*
X110293999Y-89529964D01*
X110182986Y-89540898D01*
X110076239Y-89573279D01*
X109977860Y-89625864D01*
X109891630Y-89696630D01*
X109820864Y-89782860D01*
X109768279Y-89881239D01*
X109735898Y-89987986D01*
X109724964Y-90098999D01*
X109724964Y-90749001D01*
X109735898Y-90860014D01*
X109768279Y-90966761D01*
X109793501Y-91013948D01*
X109793500Y-91888738D01*
X109778620Y-91898681D01*
X109678681Y-91998620D01*
X109600159Y-92116136D01*
X109546073Y-92246713D01*
X109518500Y-92385332D01*
X109518500Y-92526668D01*
X109546073Y-92665287D01*
X109600159Y-92795864D01*
X109604958Y-92803046D01*
X109570731Y-92844753D01*
X109541249Y-92899910D01*
X109523094Y-92959759D01*
X109516964Y-93022000D01*
X109055036Y-93022000D01*
X109048906Y-92959759D01*
X109030751Y-92899910D01*
X109001269Y-92844753D01*
X108961593Y-92796407D01*
X108913247Y-92756731D01*
X108858090Y-92727249D01*
X108798241Y-92709094D01*
X108736000Y-92702964D01*
X108646500Y-92702964D01*
X108646500Y-92515262D01*
X108661380Y-92505319D01*
X108761319Y-92405380D01*
X108839841Y-92287864D01*
X108893927Y-92157287D01*
X108921500Y-92018668D01*
X108921500Y-91877332D01*
X108893927Y-91738713D01*
X108839841Y-91608136D01*
X108761319Y-91490620D01*
X108661380Y-91390681D01*
X108646500Y-91380738D01*
X108646500Y-91022946D01*
X108671721Y-90975761D01*
X108704102Y-90869014D01*
X108715036Y-90758001D01*
X108715036Y-90107999D01*
X108704102Y-89996986D01*
X108671721Y-89890239D01*
X108619136Y-89791860D01*
X108548370Y-89705630D01*
X108462140Y-89634864D01*
X108363761Y-89582279D01*
X108257014Y-89549898D01*
X108146001Y-89538964D01*
X107245999Y-89538964D01*
X107134986Y-89549898D01*
X107028239Y-89582279D01*
X106929860Y-89634864D01*
X106843630Y-89705630D01*
X106772864Y-89791860D01*
X106720279Y-89890239D01*
X106687898Y-89996986D01*
X106676964Y-90107999D01*
X100799500Y-90107999D01*
X100799500Y-88958000D01*
X106676964Y-88958000D01*
X106683094Y-89020241D01*
X106701249Y-89080090D01*
X106730731Y-89135247D01*
X106770407Y-89183593D01*
X106818753Y-89223269D01*
X106873910Y-89252751D01*
X106933759Y-89270906D01*
X106996000Y-89277036D01*
X107426125Y-89275500D01*
X107505500Y-89196125D01*
X107505500Y-88573500D01*
X107886500Y-88573500D01*
X107886500Y-89196125D01*
X107965875Y-89275500D01*
X108396000Y-89277036D01*
X108458241Y-89270906D01*
X108518090Y-89252751D01*
X108573247Y-89223269D01*
X108621593Y-89183593D01*
X108661269Y-89135247D01*
X108690751Y-89080090D01*
X108708906Y-89020241D01*
X108715036Y-88958000D01*
X108714991Y-88949000D01*
X109724964Y-88949000D01*
X109731094Y-89011241D01*
X109749249Y-89071090D01*
X109778731Y-89126247D01*
X109818407Y-89174593D01*
X109866753Y-89214269D01*
X109921910Y-89243751D01*
X109981759Y-89261906D01*
X110044000Y-89268036D01*
X110474125Y-89266500D01*
X110553500Y-89187125D01*
X110553500Y-88564500D01*
X110934500Y-88564500D01*
X110934500Y-89187125D01*
X111013875Y-89266500D01*
X111444000Y-89268036D01*
X111506241Y-89261906D01*
X111566090Y-89243751D01*
X111621247Y-89214269D01*
X111669593Y-89174593D01*
X111709269Y-89126247D01*
X111738751Y-89071090D01*
X111756906Y-89011241D01*
X111763036Y-88949000D01*
X111762800Y-88901970D01*
X120858205Y-88901970D01*
X120913529Y-89205743D01*
X121027054Y-89492886D01*
X121051112Y-89537897D01*
X121244283Y-89687309D01*
X122158592Y-88773000D01*
X122697408Y-88773000D01*
X123611717Y-89687309D01*
X123804888Y-89537897D01*
X123927656Y-89254582D01*
X123992793Y-88952760D01*
X123997795Y-88644030D01*
X123942471Y-88340257D01*
X123828946Y-88053114D01*
X123804888Y-88008103D01*
X123611717Y-87858691D01*
X122697408Y-88773000D01*
X122158592Y-88773000D01*
X121244283Y-87858691D01*
X121051112Y-88008103D01*
X120928344Y-88291418D01*
X120863207Y-88593240D01*
X120858205Y-88901970D01*
X111762800Y-88901970D01*
X111761500Y-88643875D01*
X111682125Y-88564500D01*
X110934500Y-88564500D01*
X110553500Y-88564500D01*
X109805875Y-88564500D01*
X109726500Y-88643875D01*
X109724964Y-88949000D01*
X108714991Y-88949000D01*
X108713500Y-88652875D01*
X108634125Y-88573500D01*
X107886500Y-88573500D01*
X107505500Y-88573500D01*
X106757875Y-88573500D01*
X106678500Y-88652875D01*
X106676964Y-88958000D01*
X100799500Y-88958000D01*
X100799500Y-87808000D01*
X106676964Y-87808000D01*
X106678500Y-88113125D01*
X106757875Y-88192500D01*
X107505500Y-88192500D01*
X107505500Y-87569875D01*
X107886500Y-87569875D01*
X107886500Y-88192500D01*
X108634125Y-88192500D01*
X108713500Y-88113125D01*
X108715036Y-87808000D01*
X108714150Y-87799000D01*
X109724964Y-87799000D01*
X109726500Y-88104125D01*
X109805875Y-88183500D01*
X110553500Y-88183500D01*
X110553500Y-87560875D01*
X110934500Y-87560875D01*
X110934500Y-88183500D01*
X111682125Y-88183500D01*
X111761500Y-88104125D01*
X111763036Y-87799000D01*
X111756906Y-87736759D01*
X111738751Y-87676910D01*
X111709269Y-87621753D01*
X111682622Y-87589283D01*
X121513691Y-87589283D01*
X122428000Y-88503592D01*
X123342309Y-87589283D01*
X123192897Y-87396112D01*
X122909582Y-87273344D01*
X122607760Y-87208207D01*
X122299030Y-87203205D01*
X121995257Y-87258529D01*
X121708114Y-87372054D01*
X121663103Y-87396112D01*
X121513691Y-87589283D01*
X111682622Y-87589283D01*
X111669593Y-87573407D01*
X111621247Y-87533731D01*
X111566090Y-87504249D01*
X111506241Y-87486094D01*
X111444000Y-87479964D01*
X111013875Y-87481500D01*
X110934500Y-87560875D01*
X110553500Y-87560875D01*
X110474125Y-87481500D01*
X110044000Y-87479964D01*
X109981759Y-87486094D01*
X109921910Y-87504249D01*
X109866753Y-87533731D01*
X109818407Y-87573407D01*
X109778731Y-87621753D01*
X109749249Y-87676910D01*
X109731094Y-87736759D01*
X109724964Y-87799000D01*
X108714150Y-87799000D01*
X108708906Y-87745759D01*
X108690751Y-87685910D01*
X108661269Y-87630753D01*
X108621593Y-87582407D01*
X108573247Y-87542731D01*
X108518090Y-87513249D01*
X108458241Y-87495094D01*
X108396000Y-87488964D01*
X107965875Y-87490500D01*
X107886500Y-87569875D01*
X107505500Y-87569875D01*
X107426125Y-87490500D01*
X106996000Y-87488964D01*
X106933759Y-87495094D01*
X106873910Y-87513249D01*
X106818753Y-87542731D01*
X106770407Y-87582407D01*
X106730731Y-87630753D01*
X106701249Y-87685910D01*
X106683094Y-87745759D01*
X106676964Y-87808000D01*
X100799500Y-87808000D01*
X100799500Y-85487747D01*
X100842962Y-85044491D01*
X100966828Y-84634225D01*
X101168023Y-84255831D01*
X101438886Y-83923721D01*
X101769090Y-83650553D01*
X102146069Y-83446721D01*
X102555462Y-83319993D01*
X102997810Y-83273500D01*
X135238253Y-83273500D01*
X135681509Y-83316962D01*
%TD*%
D31*
X124968000Y-89916000D03*
X115824000Y-86868000D03*
X121920000Y-86868000D03*
X128016000Y-86868000D03*
X112776000Y-83820000D03*
X118872000Y-83820000D03*
X124968000Y-83820000D03*
X131064000Y-83820000D03*
X112776000Y-89916000D03*
X102616000Y-97536000D03*
X102616000Y-100584000D03*
X102616000Y-103632000D03*
X102616000Y-91440000D03*
X128016000Y-99060000D03*
X128016000Y-111252000D03*
X121920000Y-111252000D03*
X115824000Y-111252000D03*
X109728000Y-111252000D03*
X103632000Y-83820000D03*
X103632000Y-111252000D03*
X112776000Y-108204000D03*
X118872000Y-108204000D03*
X131064000Y-108204000D03*
X106807000Y-85471000D03*
X134366000Y-85471000D03*
X106807000Y-109601000D03*
X134493000Y-109601000D03*
X109728000Y-86868000D03*
X120678000Y-99286000D03*
X121694000Y-99286000D03*
X120396000Y-102997000D03*
X120650000Y-103632000D03*
X109728000Y-103759000D03*
X109728000Y-103124000D03*
X108204000Y-91948000D03*
X110236000Y-92456000D03*
X136398000Y-106426000D03*
X136398000Y-103886000D03*
X136398000Y-101346000D03*
X136398000Y-98806000D03*
X136398000Y-96266000D03*
X136398000Y-93726000D03*
X136398000Y-91186000D03*
X136398000Y-88646000D03*
X131254000Y-90424000D03*
X129254000Y-90424000D03*
X127254000Y-90424000D03*
X128016000Y-104648000D03*
X130016000Y-104648000D03*
X122428000Y-88773000D03*
M02*
